# Second Life Avatar OBJ v. 4
# Jan. 7 2005
#
# Created by Stephen "Xenon Linden" Lewis
#                        _\
#                    @  Q Q)  
#                         ~}
#                         o
#                        /
#              --  Art Monkey --
#
# Copyright 2005 Linden Lab, Inc.
# www.secondlife.com
# www.lindenlab.com
#
# This obj format 3d model matches the Second Life v 1.5 - v1.?? avatar base skirt mesh.
# Poly vertex relationships and UV texture coordinates are consistent with the SL avatar skirt.
# This model is released for use by residents of Second Life.  
# It may be imported into external 3D modeling, texturing, and animation applications to aid in the creation of character animations and textures for Second Life, as well as for any non-commercial purpose.
# Use or modification of this model for any other commercial purpose is prohibited without the express written consent of Linden Lab.  



v -0.060550 0.000000 1.208294
v -0.026625 0.086752 1.207430
v 0.021041 0.126951 1.207430
v 0.089558 0.110146 1.207430
v 0.116925 0.000000 1.208294
v -0.181360 0.000000 1.049233
v -0.157731 0.129754 1.049233
v 0.011804 0.228378 1.049233
v 0.137907 0.122662 1.049233
v 0.156668 0.000000 1.049233
v -0.233714 0.020882 0.719967
v -0.199429 0.156929 0.719787
v 0.004192 0.271553 0.719787
v 0.180910 0.152302 0.719787
v 0.214100 0.024951 0.720026
v -0.259463 0.016981 0.465235
v -0.229691 0.175482 0.465326
v -0.003489 0.300695 0.465326
v 0.188052 0.170506 0.465326
v 0.221261 0.023947 0.465136
v -0.294283 0.026134 0.086277
v -0.245250 0.179371 0.088707
v -0.004607 0.314296 0.088707
v 0.189142 0.174159 0.088707
v 0.233156 0.026079 0.085737
v 0.224557 0.017520 0.256729
v 0.187574 0.172583 0.258779
v -0.004011 0.303148 0.258806
v -0.237355 0.177633 0.258794
v -0.277292 0.017671 0.257413
v 0.227940 0.019391 0.567655
v 0.193342 0.159062 0.567583
v 0.001601 0.282198 0.567535
v -0.218351 0.163633 0.567552
v -0.250291 0.013721 0.567607
v 0.188650 0.015812 0.910519
v 0.165601 0.143535 0.910359
v 0.003963 0.258501 0.910357
v -0.189381 0.147854 0.910391
v -0.213198 0.057629 0.910587
v 0.129294 -0.000623 1.154500
v 0.096431 0.114482 1.153311
v 0.010123 0.185331 1.153222
v -0.086995 0.114379 1.153242
v -0.117162 0.000000 1.155507
v 0.043189 0.280593 0.088707
v -0.083240 0.280891 0.088707
v 0.050826 0.271635 0.465152
v -0.082553 0.271903 0.464993
v 0.062092 0.251612 0.719849
v -0.068649 0.244672 0.719827
v 0.155729 0.029106 1.049327
v 0.084666 0.218812 1.049237
v -0.055118 0.214265 1.049372
v -0.178348 0.052026 1.049279
v 0.114462 0.043208 1.208836
v 0.048043 0.128921 1.207430
v -0.008623 0.110704 1.207430
v -0.065242 0.042859 1.209620
v 0.043797 0.274289 0.258733
v -0.082826 0.274581 0.258651
v 0.061849 0.258548 0.567550
v -0.075940 0.254881 0.567557
v 0.095476 0.238752 0.910376
v -0.065920 0.239725 0.910464
v 0.121965 0.058753 1.154375
v 0.064721 0.173848 1.153241
v -0.041365 0.163116 1.153336
v -0.109978 0.058731 1.154799
v -0.026625 -0.086752 1.207430
v 0.021041 -0.126951 1.207430
v 0.089558 -0.110146 1.207430
v -0.157731 -0.129754 1.049233
v 0.011804 -0.228378 1.049233
v 0.137907 -0.122662 1.049233
v -0.199429 -0.156929 0.719787
v 0.004192 -0.271553 0.719787
v 0.180910 -0.152302 0.719787
v -0.229691 -0.175482 0.465326
v -0.003489 -0.300695 0.465326
v 0.188052 -0.170506 0.465326
v -0.245250 -0.179371 0.088707
v -0.004607 -0.314296 0.088707
v 0.189142 -0.174159 0.088707
v 0.187574 -0.172583 0.258779
v -0.004011 -0.303148 0.258806
v -0.237355 -0.177633 0.258794
v 0.193342 -0.159062 0.567583
v 0.001601 -0.282199 0.567535
v -0.218351 -0.163633 0.567552
v 0.165601 -0.143535 0.910359
v 0.003963 -0.258501 0.910357
v -0.189381 -0.147854 0.910391
v 0.096431 -0.114482 1.153311
v 0.010123 -0.185331 1.153222
v -0.086995 -0.114379 1.153242
v 0.233156 -0.026080 0.085737
v 0.043189 -0.280593 0.088707
v -0.083240 -0.280891 0.088707
v -0.294283 -0.026134 0.086277
v 0.221261 -0.023947 0.465136
v 0.050826 -0.271635 0.465152
v -0.082553 -0.271903 0.464993
v -0.259463 -0.016981 0.465235
v 0.214100 -0.024951 0.720026
v 0.062092 -0.251612 0.719849
v -0.068649 -0.244672 0.719827
v -0.233714 -0.020882 0.719967
v 0.155729 -0.029106 1.049327
v 0.084666 -0.218812 1.049237
v -0.055118 -0.214265 1.049372
v -0.178348 -0.052026 1.049279
v 0.114462 -0.043208 1.208836
v 0.048043 -0.128921 1.207430
v -0.008623 -0.110704 1.207430
v -0.065242 -0.042859 1.209620
v 0.224557 -0.017520 0.256729
v 0.043797 -0.274289 0.258733
v -0.082826 -0.274581 0.258651
v -0.277292 -0.017671 0.257413
v 0.227940 -0.019391 0.567655
v 0.061849 -0.258548 0.567550
v -0.075940 -0.254881 0.567557
v -0.250291 -0.013721 0.567607
v 0.188650 -0.015812 0.910519
v 0.095476 -0.238752 0.910376
v -0.065920 -0.239725 0.910464
v -0.213198 -0.057629 0.910587
v 0.121965 -0.058753 1.154375
v 0.064721 -0.173848 1.153241
v -0.041365 -0.163116 1.153336
v -0.109978 -0.058731 1.154799
v -0.207864 0.028918 0.979865
v -0.179909 0.139114 0.979865
v 0.007888 0.244080 0.979865
v 0.151740 0.133380 0.979865
v 0.174042 0.007930 0.979865
v 0.173587 0.022519 0.979865
v 0.093963 0.229389 0.979865
v -0.060524 0.227616 0.979865
v -0.204654 0.054991 0.979865
v -0.179909 -0.139114 0.979865
v 0.007888 -0.244080 0.979865
v 0.151740 -0.133379 0.979865
v 0.173587 -0.022519 0.979865
v 0.093963 -0.229389 0.979865
v -0.060524 -0.227615 0.979865
v -0.204654 -0.054991 0.979865
v -0.207864 -0.028918 0.979865
v 0.174042 -0.007930 0.979865
v -0.123385 0.181512 0.979865
v 0.060260 0.234190 0.979865
v 0.164663 0.069390 0.979865
v 0.125095 0.181664 0.979865
v -0.027049 0.234681 0.979865
v -0.192102 0.094218 0.979865
v -0.123385 -0.181511 0.979865
v 0.060260 -0.234190 0.979865
v 0.160664 -0.086498 0.979865
v 0.125095 -0.181664 0.979865
v -0.027049 -0.234681 0.979865
v -0.191758 -0.100160 0.979865
vt 0.217620 0.933429
vt 0.256669 0.933429
vt 0.220995 0.982405
vt 0.256870 0.982405
vt 0.138754 0.935168
vt 0.180457 0.935168
vt 0.164206 0.982405
vt 0.184254 0.982405
vt 0.256848 0.838400
vt 0.869665 0.935168
vt 0.902574 0.934164
vt 0.225457 0.838400
vt 0.854607 0.982405
vt 0.878227 0.982405
vt 0.829226 0.935168
vt 0.829305 0.982405
vt 0.219275 0.693372
vt 0.097803 0.691525
vt 0.172109 0.691525
vt 0.112973 0.839406
vt 0.184823 0.839406
vt 0.087761 0.547881
vt 0.081830 0.450000
vt 0.169370 0.547881
vt 0.791284 0.933429
vt 0.784876 0.982405
vt 0.171899 0.450000
vt 0.940492 0.692962
vt 0.927446 0.837683
vt 0.896830 0.691525
vt 0.885978 0.839406
vt 0.158082 0.308475
vt 0.072077 0.308475
vt 0.155437 0.162767
vt 0.066479 0.162013
vt 0.032738 0.162317
vt 0.046224 0.017595
vt 0.021173 0.017595
vt 0.837541 0.691525
vt 0.825194 0.839406
vt 0.036153 0.307038
vt 0.759685 0.691714
vt 0.769097 0.838400
vt 0.924630 0.450000
vt 0.962293 0.451760
vt 0.102173 0.017595
vt 0.227681 0.017595
vt 0.237340 0.161600
vt 0.240801 0.308286
vt 0.041380 0.451760
vt 0.050674 0.548240
vt 0.243695 0.451657
vt 0.920297 0.547881
vt 0.953098 0.548240
vt 0.239867 0.548343
vt 0.770794 0.548343
vt 0.768785 0.451657
vt 0.835953 0.547881
vt 0.830626 0.450000
vt 0.967464 0.307038
vt 0.941889 0.308475
vt 0.970843 0.162317
vt 0.063415 0.692962
vt 0.076601 0.837683
vt 0.101740 0.934164
vt 0.123940 0.982405
vt 0.945100 0.162045
vt 0.773428 0.308286
vt 0.768586 0.161600
vt 0.296125 0.933429
vt 0.292744 0.982405
vt 0.374754 0.935168
vt 0.349533 0.982405
vt 0.333214 0.935168
vt 0.329485 0.982405
vt 0.294494 0.693372
vt 0.288249 0.838400
vt 0.415917 0.691525
vt 0.850881 0.308475
vt 0.848491 0.163425
vt 0.902146 0.017595
vt 0.781113 0.017595
vt 0.957280 0.017595
vt 0.982285 0.017595
vt 0.400739 0.839406
vt 0.341560 0.691525
vt 0.328976 0.839406
vt 0.270047 0.451657
vt 0.273877 0.548343
vt 0.425975 0.547881
vt 0.344361 0.547881
vt 0.431907 0.450000
vt 0.749104 0.838400
vt 0.748591 0.933429
vt 0.749093 0.982405
vt 0.628517 0.935168
vt 0.643579 0.982405
vt 0.595613 0.934164
vt 0.341833 0.450000
vt 0.276268 0.161600
vt 0.272934 0.308286
vt 0.355622 0.308475
vt 0.357973 0.162773
vt 0.441662 0.308475
vt 0.447393 0.162008
vt 0.492567 0.017595
vt 0.617293 0.982405
vt 0.668949 0.935168
vt 0.706879 0.933429
vt 0.668881 0.982405
vt 0.713311 0.982405
vt 0.557694 0.692962
vt 0.481002 0.162317
vt 0.467516 0.017595
vt 0.477587 0.307038
vt 0.411566 0.017595
vt 0.286058 0.017595
vt 0.472360 0.451760
vt 0.463066 0.548240
vt 0.450325 0.692962
vt 0.437138 0.837683
vt 0.601373 0.691525
vt 0.570741 0.837683
vt 0.612205 0.839406
vt 0.672968 0.839406
vt 0.660692 0.691525
vt 0.729099 0.838400
vt 0.738552 0.691714
vt 0.573558 0.450000
vt 0.577893 0.547881
vt 0.535893 0.451760
vt 0.411999 0.934164
vt 0.375132 0.982405
vt 0.545088 0.548240
vt 0.667565 0.450000
vt 0.729406 0.451657
vt 0.662246 0.547881
vt 0.727404 0.548343
vt 0.530722 0.307038
vt 0.527343 0.162317
vt 0.556298 0.308475
vt 0.553086 0.162045
vt 0.649695 0.163425
vt 0.729601 0.161600
vt 0.647307 0.308475
vt 0.724761 0.308286
vt 0.717073 0.017595
vt 0.596040 0.017595
vt 0.540906 0.017595
vt 0.515901 0.017595
vt 0.238049 0.765838
vt 0.178471 0.765521
vt 0.070015 0.765395
vt 0.933962 0.765395
vt 0.831362 0.765538
vt 0.754395 0.765045
vt 0.764387 0.764996
vt 0.891399 0.765527
vt 0.105382 0.765408
vt 0.222363 0.765814
vt 0.335264 0.765521
vt 0.564224 0.765395
vt 0.443725 0.765395
vt 0.666836 0.765538
vt 0.733830 0.764996
vt 0.606794 0.765527
vt 0.408334 0.765408
vt 0.291374 0.765814
vt 0.275683 0.765838
vt 0.743827 0.765045
vt 0.142548 0.765447
vt 0.912151 0.764667
vt 0.792434 0.765548
vt 0.861782 0.765536
vt 0.087199 0.764621
vt 0.202060 0.766341
vt 0.371142 0.765447
vt 0.586044 0.764667
vt 0.694906 0.764985
vt 0.636425 0.765536
vt 0.426530 0.764621
vt 0.314893 0.764994
vn -0.778944 0.216427 0.588562
vn -0.794174 -0.012761 0.607556
vn -0.669266 0.195839 0.716749
vn -0.719537 -0.028146 0.693884
vn -0.450597 0.645056 0.617143
vn -0.639965 0.399879 0.656156
vn -0.443175 0.477252 0.758832
vn -0.492568 0.419362 0.762569
vn 0.450995 0.754944 0.476092
vn -0.089765 0.811413 0.577540
vn 0.139816 0.706562 0.693702
vn -0.213346 0.631708 0.745270
vn 0.856442 0.436154 0.276184
vn 0.799996 0.510182 0.315787
vn 0.940639 0.232095 0.247648
vn 0.962684 0.174070 0.207216
vn -0.903845 -0.000000 0.427859
vn -0.861917 0.175685 0.475641
vn -0.951204 0.190706 0.242575
vn -0.970804 0.049221 0.234770
vn -0.407407 0.906411 0.111530
vn -0.823484 0.553531 0.124410
vn -0.589743 0.781132 0.205026
vn -0.401415 0.895115 0.193996
vn -0.768834 0.479578 0.422964
vn -0.428037 0.843019 0.325734
vn -0.806216 0.538617 0.244761
vn -0.026615 0.990653 0.133783
vn -0.032434 0.977032 0.210610
vn 0.162992 0.971449 0.172398
vn 0.473096 0.877175 0.082117
vn -0.003445 0.957720 0.287683
vn 0.650983 0.690347 0.315662
vn 0.519500 0.837353 0.170174
vn 0.912031 0.381222 0.151228
vn 0.914962 0.331998 0.229397
vn 0.959691 0.184912 0.211663
vn 0.978754 0.095531 0.181422
vn 0.905907 0.315653 0.282304
vn 0.960376 0.106274 0.257649
vn 0.969689 0.107024 0.219659
vn -0.430099 0.900875 0.058645
vn -0.459847 0.879399 0.123279
vn -0.738374 0.669080 0.084476
vn -0.846938 0.514052 0.135821
vn 0.503335 0.861674 0.064590
vn -0.044011 0.992315 0.115645
vn 0.490413 0.871015 0.028771
vn -0.015607 0.998492 0.052634
vn 0.989324 0.097669 0.108157
vn 0.988624 0.147684 0.028483
vn 0.864921 0.497674 0.065056
vn 0.840610 0.540589 0.033732
vn -0.866381 0.490376 0.094419
vn -0.455351 0.883892 0.106723
vn -0.803954 0.592765 0.047823
vn -0.438617 0.898376 0.023152
vn 0.051567 0.995640 0.077724
vn 0.538406 0.842516 0.016873
vn 0.160356 0.986581 0.030729
vn 0.555938 0.831151 0.010979
vn 0.992946 0.114486 -0.030849
vn 0.993071 0.114751 0.025329
vn 0.836948 0.547066 0.015392
vn 0.824954 0.565011 0.014617
vn 0.743833 0.668115 0.018273
vn 0.990557 0.130026 0.043467
vn 0.560796 0.827152 0.036425
vn 0.105963 0.992266 0.064658
vn -0.422263 0.905428 0.043520
vn -0.709376 0.703699 0.039924
vn -0.986522 0.137297 0.089020
vn -0.987454 0.133990 0.083554
vn -0.992122 0.082440 0.094329
vn -0.989766 0.104306 0.097385
vn -0.988036 0.119504 0.097492
vn 0.973960 0.015230 0.226209
vn 0.834575 0.513261 0.200119
vn -0.227996 0.951749 0.205404
vn -0.981538 0.156800 0.109530
vn -0.933874 0.266725 0.238195
vn 0.964984 -0.000366 0.262310
vn 0.976457 -0.000850 0.215709
vn 0.974570 0.000015 0.224084
vn -0.772929 -0.151582 0.616120
vn -0.676402 -0.226336 0.700894
vn -0.450598 -0.645056 0.617143
vn -0.443175 -0.477252 0.758832
vn -0.639965 -0.399879 0.656156
vn -0.492568 -0.419362 0.762570
vn 0.450995 -0.754944 0.476092
vn 0.139814 -0.706562 0.693702
vn -0.089765 -0.811413 0.577539
vn -0.213349 -0.631708 0.745270
vn 0.856442 -0.436154 0.276184
vn 0.940496 -0.232812 0.247518
vn 0.799995 -0.510182 0.315787
vn 0.962403 -0.174906 0.207819
vn -0.989035 -0.106705 0.102098
vn -0.970804 -0.049222 0.234770
vn -0.951779 -0.179695 0.248650
vn -0.868721 -0.186992 0.458647
vn -0.407407 -0.906411 0.111531
vn -0.401416 -0.895115 0.193997
vn -0.589743 -0.781132 0.205026
vn -0.846384 -0.517017 0.127779
vn -0.731123 -0.522007 0.439281
vn -0.799539 -0.546731 0.248641
vn -0.428037 -0.843020 0.325733
vn -0.026614 -0.990653 0.133783
vn 0.473096 -0.877175 0.082117
vn 0.162992 -0.971449 0.172398
vn -0.032433 -0.977032 0.210610
vn -0.003444 -0.957720 0.287682
vn 0.519500 -0.837354 0.170174
vn 0.650983 -0.690347 0.315661
vn 0.893967 -0.339770 0.292197
vn 0.915007 -0.329914 0.232204
vn 0.958526 -0.184680 0.217074
vn 0.960351 -0.123795 0.249802
vn 0.921506 -0.353353 0.161145
vn 0.983103 -0.064804 0.171199
vn 0.968849 -0.108958 0.222395
vn -0.992762 -0.069496 0.097945
vn -0.982777 -0.159226 0.093790
vn -0.430099 -0.900875 0.058645
vn -0.738374 -0.669080 0.084476
vn -0.459848 -0.879399 0.123279
vn -0.846938 -0.514052 0.135822
vn 0.503336 -0.861674 0.064589
vn 0.490413 -0.871015 0.028772
vn -0.044011 -0.992315 0.115645
vn -0.015606 -0.998492 0.052635
vn 0.840610 -0.540589 0.033732
vn 0.994127 -0.105522 0.024025
vn 0.864921 -0.497674 0.065056
vn 0.984862 -0.136738 0.106532
vn -0.991672 -0.095706 0.086178
vn -0.988575 -0.115411 0.096948
vn -0.866381 -0.490376 0.094419
vn -0.769444 -0.637060 0.045945
vn -0.455351 -0.883892 0.106723
vn -0.419506 -0.907508 0.021077
vn 0.051568 -0.995641 0.077723
vn 0.160356 -0.986581 0.030729
vn 0.538406 -0.842517 0.016872
vn 0.555938 -0.831151 0.010979
vn 0.824954 -0.565011 0.014617
vn 0.992907 -0.114754 0.031106
vn 0.836948 -0.547066 0.015392
vn 0.993275 -0.114486 -0.017283
vn 0.984028 -0.173222 0.041029
vn 0.743833 -0.668115 0.018273
vn 0.560796 -0.827153 0.036425
vn 0.105963 -0.992266 0.064658
vn -0.450216 -0.891977 0.041011
vn -0.789201 -0.612635 0.042892
vn -0.979420 -0.182897 0.085352
vn 0.973960 -0.015230 0.226209
vn 0.834575 -0.513261 0.200119
vn -0.227996 -0.951749 0.205405
vn -0.931462 -0.265351 0.248931
s 1
g default
f 69/1/1 45/2/2 59/3/3
f 1/4/4 59/3/3 45/2/2
f 68/5/5 44/6/6 58/7/7
f 2/8/8 58/7/7 44/6/6
f 67/10/9 43/11/10 57/13/11
f 3/14/12 57/13/11 43/11/10
f 42/15/13 4/16/14 66/25/15
f 4/16/14 56/26/16 66/25/15
f 6/9/17 55/12/18 141/160/19 133/151/20
f 65/18/21 39/19/22 151/171/23 140/159/24
f 7/21/25 54/20/26 151/171/23 134/152/27
f 38/28/28 135/154/29 152/172/30 64/30/31
f 8/29/32 53/31/33 139/158/34 152/172/30
f 37/39/35 136/155/36 153/173/37 36/42/38
f 9/40/39 52/43/40 138/157/41 153/173/37
f 51/22/42 63/23/43 12/24/44
f 12/24/44 63/23/43 34/27/45
f 62/44/46 33/45/47 50/53/48
f 13/54/49 50/53/48 33/45/47
f 15/56/50 31/57/51 14/58/52
f 14/58/52 31/57/51 32/59/53
f 17/32/54 49/33/55 29/34/56
f 49/33/55 61/35/57 29/34/56
f 18/60/58 48/61/59 28/62/60
f 48/61/59 60/67/61 28/62/60
f 20/68/62 26/69/63 19/79/64
f 19/79/64 26/69/63 27/80/65
f 24/81/66 27/80/65 25/82/67
f 27/80/65 26/69/63 25/82/67
f 46/83/68 60/67/61 24/81/66
f 60/67/61 27/80/65 24/81/66
f 60/67/61 48/61/59 27/80/65
f 27/80/65 48/61/59 19/79/64
f 60/67/61 46/83/68 28/62/60
f 28/62/60 46/83/68 23/84/69
f 61/35/57 28/36/60 47/37/70
f 47/37/70 28/36/60 23/38/69
f 28/36/60 61/35/57 18/41/58
f 61/35/57 49/33/55 18/41/58
f 47/37/70 22/46/71 61/35/57
f 29/34/56 61/35/57 22/46/71
f 22/46/71 21/47/72 29/34/56
f 21/47/72 30/48/73 29/34/56
f 29/34/56 30/48/73 17/32/54
f 30/48/73 16/49/74 17/32/54
f 19/79/64 32/59/53 20/68/62
f 32/59/53 31/57/51 20/68/62
f 48/61/59 62/44/46 19/79/64
f 62/44/46 32/59/53 19/79/64
f 62/44/46 50/53/48 32/59/53
f 32/59/53 50/53/48 14/58/52
f 33/45/47 62/44/46 18/60/58
f 62/44/46 48/61/59 18/60/58
f 18/41/58 49/33/55 33/50/47
f 49/33/55 63/23/43 33/50/47
f 63/23/43 51/22/42 33/50/47
f 33/50/47 51/22/42 13/51/49
f 63/23/43 49/33/55 34/27/45
f 34/27/45 49/33/55 17/32/54
f 35/52/75 34/27/45 16/49/74
f 16/49/74 34/27/45 17/32/54
f 35/52/75 11/55/76 34/27/45
f 34/27/45 11/55/76 12/24/44
f 36/42/38 138/157/41 137/156/77
f 14/58/52 37/39/35 15/56/50
f 37/39/35 36/42/38 15/56/50
f 50/53/48 64/30/31 14/58/52
f 64/30/31 37/39/35 14/58/52
f 64/30/31 139/158/34 154/174/78 37/39/35
f 37/39/35 154/174/78 136/155/36
f 38/28/28 64/30/31 13/54/49
f 64/30/31 50/53/48 13/54/49
f 51/22/42 65/18/21 13/51/49
f 65/18/21 38/63/28 13/51/49
f 38/63/28 65/18/21 155/175/79 135/153/29
f 65/18/21 140/159/24 155/175/79
f 39/19/22 65/18/21 12/24/44
f 65/18/21 51/22/42 12/24/44
f 40/17/80 39/19/22 11/55/76
f 11/55/76 39/19/22 12/24/44
f 39/19/22 40/17/80 156/176/81 134/152/27
f 40/17/80 141/160/19 156/176/81
f 52/43/40 66/25/15 10/93/82
f 66/25/15 41/94/83 10/93/82
f 66/25/15 56/26/16 41/94/83
f 41/94/83 56/26/16 5/95/84
f 52/43/40 9/40/39 66/25/15
f 42/15/13 66/25/15 9/40/39
f 9/40/39 53/31/33 42/15/13
f 53/31/33 67/10/9 42/15/13
f 57/13/11 4/16/14 67/10/9
f 42/15/13 67/10/9 4/16/14
f 43/11/10 67/10/9 8/29/32
f 67/10/9 53/31/33 8/29/32
f 68/5/5 43/65/10 54/20/26
f 54/20/26 43/65/10 8/64/32
f 43/65/10 68/5/5 3/66/12
f 68/5/5 58/7/7 3/66/12
f 54/20/26 7/21/25 68/5/5
f 44/6/6 68/5/5 7/21/25
f 7/21/25 55/12/18 44/6/6
f 55/12/18 69/1/1 44/6/6
f 69/1/1 59/3/3 44/6/6
f 44/6/6 59/3/3 2/8/8
f 6/9/17 45/2/2 55/12/18
f 45/2/2 69/1/1 55/12/18
f 45/2/2 132/70/85 1/4/4
f 1/4/4 132/70/85 116/71/86
f 131/72/87 115/73/88 96/74/89
f 70/75/90 96/74/89 115/73/88
f 130/96/91 114/97/92 95/98/93
f 71/107/94 95/98/93 114/97/92
f 94/108/95 129/109/96 72/110/97
f 72/110/97 129/109/96 113/111/98
f 40/17/80 128/76/99 149/169/100 133/151/20
f 6/9/17 149/169/100 148/168/101 112/77/102
f 127/78/103 147/167/104 157/177/105 93/86/106
f 73/87/107 142/161/108 157/177/105 111/85/109
f 92/112/110 126/122/111 158/178/112 143/162/113
f 74/123/114 158/178/112 146/166/115 110/124/116
f 75/125/117 144/164/118 159/179/119 109/127/120
f 91/126/121 125/128/122 145/165/123 159/179/119
f 35/52/75 124/88/124 11/55/76
f 11/55/76 124/88/124 108/89/125
f 107/90/126 76/91/127 123/92/128
f 76/91/127 90/99/129 123/92/128
f 122/129/130 106/130/131 89/131/132
f 77/134/133 89/131/132 106/130/131
f 88/135/134 121/136/135 78/137/136
f 78/137/136 121/136/135 105/138/137
f 30/48/73 120/100/138 16/49/74
f 16/49/74 120/100/138 104/101/139
f 79/102/140 87/103/141 103/104/142
f 87/103/141 119/105/143 103/104/142
f 80/139/144 86/140/145 102/141/146
f 86/140/145 118/142/147 102/141/146
f 85/143/148 117/144/149 81/145/150
f 81/145/150 117/144/149 101/146/151
f 97/147/152 25/82/67 117/144/149
f 25/82/67 26/69/63 117/144/149
f 117/144/149 26/69/63 101/146/151
f 26/69/63 20/68/62 101/146/151
f 84/148/153 97/147/152 85/143/148
f 85/143/148 97/147/152 117/144/149
f 98/149/154 84/148/153 118/142/147
f 84/148/153 85/143/148 118/142/147
f 118/142/147 85/143/148 102/141/146
f 85/143/148 81/145/150 102/141/146
f 83/150/155 98/149/154 86/140/145
f 86/140/145 98/149/154 118/142/147
f 83/106/155 86/113/145 99/114/156
f 99/114/156 86/113/145 119/105/143
f 86/113/145 80/115/144 119/105/143
f 80/115/144 103/104/142 119/105/143
f 82/116/157 99/114/156 87/103/141
f 87/103/141 99/114/156 119/105/143
f 82/116/157 87/103/141 100/117/158
f 100/117/158 87/103/141 120/100/138
f 87/103/141 79/102/140 120/100/138
f 79/102/140 104/101/139 120/100/138
f 100/117/158 120/100/138 21/47/72
f 30/48/73 21/47/72 120/100/138
f 101/146/151 20/68/62 121/136/135
f 20/68/62 31/57/51 121/136/135
f 31/57/51 15/56/50 121/136/135
f 15/56/50 105/138/137 121/136/135
f 81/145/150 101/146/151 88/135/134
f 88/135/134 101/146/151 121/136/135
f 102/141/146 81/145/150 122/129/130
f 81/145/150 88/135/134 122/129/130
f 78/137/136 106/130/131 88/135/134
f 88/135/134 106/130/131 122/129/130
f 89/131/132 80/139/144 122/129/130
f 80/139/144 102/141/146 122/129/130
f 80/115/144 89/118/132 103/104/142
f 103/104/142 89/118/132 123/92/128
f 123/92/128 89/118/132 107/90/126
f 89/118/132 77/119/133 107/90/126
f 123/92/128 90/99/129 103/104/142
f 90/99/129 79/102/140 103/104/142
f 79/102/140 90/99/129 104/101/139
f 104/101/139 90/99/129 124/88/124
f 76/91/127 108/89/125 90/99/129
f 90/99/129 108/89/125 124/88/124
f 104/101/139 124/88/124 16/49/74
f 35/52/75 16/49/74 124/88/124
f 105/138/137 15/56/50 125/128/122
f 15/56/50 36/42/38 125/128/122
f 36/42/38 137/156/77 150/170/159 125/128/122
f 10/93/82 109/127/120 145/165/123 150/170/159
f 78/137/136 105/138/137 91/126/121
f 91/126/121 105/138/137 125/128/122
f 106/130/131 78/137/136 126/122/111
f 78/137/136 91/126/121 126/122/111
f 126/122/111 91/126/121 160/180/160 146/166/115
f 91/126/121 144/164/118 160/180/160
f 92/112/110 77/134/133 126/122/111
f 77/134/133 106/130/131 126/122/111
f 107/90/126 77/119/133 127/78/103
f 77/119/133 92/120/110 127/78/103
f 92/120/110 143/163/113 161/181/161 127/78/103
f 74/121/114 111/85/109 147/167/104 161/181/161
f 93/86/106 76/91/127 127/78/103
f 76/91/127 107/90/126 127/78/103
f 76/91/127 93/86/106 108/89/125
f 108/89/125 93/86/106 128/76/99
f 73/87/107 112/77/102 162/182/162 142/161/108
f 93/86/106 162/182/162 148/168/101 128/76/99
f 108/89/125 128/76/99 11/55/76
f 40/17/80 11/55/76 128/76/99
f 109/127/120 10/93/82 129/109/96
f 129/109/96 10/93/82 41/94/83
f 129/109/96 41/94/83 113/111/98
f 41/94/83 5/95/84 113/111/98
f 109/127/120 129/109/96 75/125/117
f 94/108/95 75/125/117 129/109/96
f 75/125/117 94/108/95 110/124/116
f 110/124/116 94/108/95 130/96/91
f 114/97/92 130/96/91 72/110/97
f 94/108/95 72/110/97 130/96/91
f 95/98/93 74/123/114 130/96/91
f 74/123/114 110/124/116 130/96/91
f 74/121/114 95/132/93 111/85/109
f 111/85/109 95/132/93 131/72/87
f 95/132/93 71/133/94 131/72/87
f 71/133/94 115/73/88 131/72/87
f 111/85/109 131/72/87 73/87/107
f 96/74/89 73/87/107 131/72/87
f 73/87/107 96/74/89 112/77/102
f 112/77/102 96/74/89 132/70/85
f 70/75/90 116/71/86 96/74/89
f 96/74/89 116/71/86 132/70/85
f 6/9/17 112/77/102 45/2/2
f 45/2/2 112/77/102 132/70/85
f 133/151/20 141/160/19 40/17/80
f 140/159/24 151/171/23 54/20/26
f 134/152/27 151/171/23 39/19/22
f 152/172/30 135/154/29 8/29/32
f 152/172/30 139/158/34 64/30/31
f 153/173/37 136/155/36 9/40/39
f 153/173/37 138/157/41 36/42/38
f 137/156/77 138/157/41 52/43/40 10/93/82
f 154/174/78 139/158/34 53/31/33
f 136/155/36 154/174/78 53/31/33 9/40/39
f 135/153/29 155/175/79 8/64/32
f 155/175/79 140/159/24 54/20/26 8/64/32
f 134/152/27 156/176/81 7/21/25
f 156/176/81 141/160/19 55/12/18 7/21/25
f 133/151/20 149/169/100 6/9/17
f 148/168/101 149/169/100 128/76/99
f 157/177/105 147/167/104 111/85/109
f 157/177/105 142/161/108 93/86/106
f 143/162/113 158/178/112 74/123/114
f 146/166/115 158/178/112 126/122/111
f 159/179/119 144/164/118 91/126/121
f 159/179/119 145/165/123 109/127/120
f 150/170/159 137/156/77 10/93/82
f 150/170/159 145/165/123 125/128/122
f 146/166/115 160/180/160 110/124/116
f 160/180/160 144/164/118 75/125/117 110/124/116
f 161/181/161 143/163/113 74/121/114
f 161/181/161 147/167/104 127/78/103
f 142/161/108 162/182/162 93/86/106
f 148/168/101 162/182/162 112/77/102
