<?xml version="1.0" encoding="utf-8"?>
<svg width="32" height="16" viewBox="0 0 64 32" id="svg2" version="1.1" inkscape:version="1.3 (0e150ed6c4, 2023-07-21)" sodipodi:docname="Bones.svg" inkscape:export-filename="C:\private\traktor\res\icons-new\g4486.png" inkscape:export-xdpi="90" inkscape:export-ydpi="90" xmlns:inkscape="http://www.inkscape.org/namespaces/inkscape" xmlns:sodipodi="http://sodipodi.sourceforge.net/DTD/sodipodi-0.dtd" xmlns="http://www.w3.org/2000/svg" xmlns:svg="http://www.w3.org/2000/svg" xmlns:rdf="http://www.w3.org/1999/02/22-rdf-syntax-ns#" xmlns:cc="http://creativecommons.org/ns#" xmlns:dc="http://purl.org/dc/elements/1.1/">
	<style>
	.theme_fill {
		fill: green;
	}
	.theme_stroke {
		stroke: green;
	}
	</style>
	<sodipodi:namedview id="base" pagecolor="#4d6571" bordercolor="#ffffff" borderopacity="1" inkscape:pageopacity="0" inkscape:pageshadow="2" inkscape:zoom="11.313708" inkscape:cx="19.180273" inkscape:cy="-1.1932428" inkscape:document-units="px" inkscape:current-layer="Dark" showgrid="true" inkscape:snap-global="true" inkscape:snap-grids="true" inkscape:snap-to-guides="false" inkscape:window-width="1440" inkscape:window-height="777" inkscape:window-x="0" inkscape:window-y="0" inkscape:window-maximized="1" units="px" inkscape:showpageshadow="false" showborder="true" objecttolerance="10000" guidetolerance="10000" showguides="true" inkscape:pagecheckerboard="0" inkscape:deskcolor="#2f3e46">
		<inkscape:grid type="xygrid" id="grid4490" empspacing="16" snapvisiblegridlinesonly="false" originx="0" originy="0" spacingy="1" spacingx="1" units="px" visible="true"/>
	</sodipodi:namedview>
	<defs id="defs4"/>
	<metadata id="metadata7">
		<rdf:RDF>
			<cc:Work rdf:about="">
				<dc:format>image/svg+xml</dc:format>
				<dc:type rdf:resource="http://purl.org/dc/dcmitype/StillImage"/>
			</cc:Work>
		</rdf:RDF>
	</metadata>
	<g style="display:inline;opacity:1" inkscape:label="Dark" id="Dark" inkscape:groupmode="layer">
		<path sodipodi:nodetypes="cccccccc" inkscape:connector-curvature="0" id="path8204" d="m 16.06482,5.7694752 c -6,0 -7.0789067,2.89694 -7.9999997,4.9999998 -0.761291,3.1543 -0.112984,5.2514 1,7 -1.339356,0.49849 -2.515595,1.03777 -2,2 0.532746,1.93744 1.232547,2.7055 2,3 1.7031387,-0.11043 3.4434087,-0.26542 3.9999997,1 v 3 h 3" style="display:inline;opacity:1;fill:none;fill-opacity:0.634146;stroke-width:1.5;stroke-linecap:butt;stroke-linejoin:miter;stroke-miterlimit:4;stroke-dasharray:none;stroke-opacity:1" class="theme_stroke"/>
		<path style="display:inline;opacity:1;fill:none;fill-opacity:0.634146;stroke-width:1.5;stroke-linecap:butt;stroke-linejoin:miter;stroke-miterlimit:4;stroke-dasharray:none;stroke-opacity:1" d="m 16.072777,5.7694752 c 5.999999,0 7.078903,2.89694 7.999999,4.9999998 0.761289,3.1543 0.112981,5.2514 -1,7 1.339355,0.49849 2.515595,1.03777 2,2 -0.532745,1.93744 -1.232549,2.7055 -2,3 -1.703141,-0.11043 -3.443408,-0.26542 -4,1 v 3 h -2.999998" id="path8206" inkscape:connector-curvature="0" sodipodi:nodetypes="cccccccc" class="theme_stroke"/>
		<circle r="1.875" cy="14.894591" cx="13.314816" id="circle8208" style="display:inline;opacity:1;fill-opacity:1;stroke:none;stroke-width:1.5;stroke-linecap:butt;stroke-linejoin:miter;stroke-miterlimit:4;stroke-dasharray:none;stroke-opacity:1" class="theme_fill"/>
		<circle style="display:inline;opacity:1;fill-opacity:1;stroke:none;stroke-width:1.5;stroke-linecap:butt;stroke-linejoin:miter;stroke-miterlimit:4;stroke-dasharray:none;stroke-opacity:1" id="circle8210" cx="18.939823" cy="14.894591" r="1.875" class="theme_fill"/>
		<path sodipodi:nodetypes="cccc" inkscape:connector-curvature="0" id="path8212" d="m 15.596071,16.644475 -1.21875,2.8125 1.21875,0.1875 v -3" style="display:inline;opacity:1;fill-opacity:1;stroke:none;stroke-width:1.5;stroke-linecap:butt;stroke-linejoin:miter;stroke-miterlimit:4;stroke-dasharray:none;stroke-opacity:1" class="theme_fill"/>
		<path style="display:inline;opacity:1;fill-opacity:1;stroke:none;stroke-width:1.5;stroke-linecap:butt;stroke-linejoin:miter;stroke-miterlimit:4;stroke-dasharray:none;stroke-opacity:1" d="m 16.53357,16.644475 1.21875,2.8125 -1.21875,0.1875 v -3" id="path8214" inkscape:connector-curvature="0" sodipodi:nodetypes="cccc" class="theme_fill"/>
		<g transform="rotate(-45,-415.28729,207.98065)" id="g8216" style="display:inline;stroke-opacity:1" class="theme_stroke">
			<path style="opacity:1;fill:none;fill-opacity:1;stroke-width:1.5;stroke-linecap:butt;stroke-linejoin:miter;stroke-miterlimit:4;stroke-dasharray:none;stroke-opacity:1" d="m 48,390 c 0.08541,-1.52646 -0.421954,-2.63797 -2,-3 -2,0 -3.224635,1.11779 -3.3125,3 0,1 1.054176,2.61818 3.1875,3 v 7" id="path8218" inkscape:connector-curvature="0" sodipodi:nodetypes="ccccc" class="theme_stroke"/>
			<path sodipodi:nodetypes="ccccc" inkscape:connector-curvature="0" id="path8220" d="m 48.134258,390 c -0.08541,-1.52646 0.421954,-2.63797 2,-3 2,0 3.224635,1.11779 3.3125,3 0,1 -1.054176,2.61818 -3.1875,3 v 7" style="opacity:1;fill:none;fill-opacity:1;stroke-width:1.5;stroke-linecap:butt;stroke-linejoin:miter;stroke-miterlimit:4;stroke-dasharray:none;stroke-opacity:1" class="theme_stroke"/>
			<path sodipodi:nodetypes="ccccc" inkscape:connector-curvature="0" id="path8222" d="m 48,410 c 0.08541,1.52646 -0.421954,2.63797 -2,3 -2,0 -3.224635,-1.11779 -3.3125,-3 0,-1 1.054176,-2.61818 3.1875,-3 v -7" style="opacity:1;fill:none;fill-opacity:1;stroke-width:1.5;stroke-linecap:butt;stroke-linejoin:miter;stroke-miterlimit:4;stroke-dasharray:none;stroke-opacity:1" class="theme_stroke"/>
			<path style="opacity:1;fill:none;fill-opacity:1;stroke-width:1.5;stroke-linecap:butt;stroke-linejoin:miter;stroke-miterlimit:4;stroke-dasharray:none;stroke-opacity:1" d="m 48.134258,410 c -0.08541,1.52646 0.421954,2.63797 2,3 2,0 3.224635,-1.11779 3.3125,-3 0,-1 -1.054176,-2.61818 -3.1875,-3 v -7" id="path8224" inkscape:connector-curvature="0" sodipodi:nodetypes="ccccc" class="theme_stroke"/>
		</g>
	</g>
</svg>
