<?xml version="1.0" encoding="UTF-8" standalone="no"?>
<!-- Created with Inkscape (http://www.inkscape.org/) -->

<svg
   width="450"
   height="70"
   viewBox="0 0 900 140"
   version="1.1"
   id="svg1"
   inkscape:version="1.2.2 (732a01da63, 2022-12-09)"
   sodipodi:docname="logo.svg"
   inkscape:export-filename="..\..\..\..\..\..\..\..\Icon.png"
   inkscape:export-xdpi="96"
   inkscape:export-ydpi="96"
   xmlns:inkscape="http://www.inkscape.org/namespaces/inkscape"
   xmlns:sodipodi="http://sodipodi.sourceforge.net/DTD/sodipodi-0.dtd"
   xmlns="http://www.w3.org/2000/svg"
   xmlns:svg="http://www.w3.org/2000/svg">
  <sodipodi:namedview
     id="namedview1"
     pagecolor="#cfcfcf"
     bordercolor="#ffffff"
     borderopacity="1"
     inkscape:showpageshadow="0"
     inkscape:pageopacity="0"
     inkscape:pagecheckerboard="1"
     inkscape:deskcolor="#505050"
     inkscape:document-units="px"
     showgrid="true"
     inkscape:zoom="1.7893294"
     inkscape:cx="18.442663"
     inkscape:cy="7.8241603"
     inkscape:window-width="2560"
     inkscape:window-height="1377"
     inkscape:window-x="1272"
     inkscape:window-y="2152"
     inkscape:window-maximized="1"
     inkscape:current-layer="layer1">
    <inkscape:grid
       id="grid1"
       units="px"
       originx="0"
       originy="0"
       spacingx="2.1166666"
       spacingy="2.1166665"
       empcolor="#0099e5"
       empopacity="0.30196078"
       color="#0099e5"
       opacity="0.14901961"
       empspacing="1"
       enabled="true"
       visible="true" />
  </sodipodi:namedview>
  <defs
     id="defs1" />
  <g
     inkscape:groupmode="layer"
     id="layer5"
     inkscape:label="Layer 5"
     style="display:inline;fill:#1a1a1a">
    <circle
       style="fill:#333333;stroke:none;stroke-width:2.83482;stroke-dasharray:none;stroke-opacity:1"
       id="path14"
       cx="95.73333"
       cy="67.73333"
       r="63.499992" />
  </g>
  <g
     inkscape:label="Layer 1"
     inkscape:groupmode="layer"
     id="layer1"
     style="display:inline">
    <circle
       style="fill:none;stroke:#545454;stroke-width:6.25528;stroke-dasharray:none;stroke-opacity:1"
       id="path11"
       cy="67.73333"
       cx="95.73333"
       r="55.033333" />
    <circle
       style="fill:none;stroke:#ffffff;stroke-width:5.47254;stroke-dasharray:none;stroke-opacity:1"
       id="circle13"
       cy="67.73333"
       cx="95.73333"
       r="60.763729" />
    <g
       aria-label="Traktor"
       transform="scale(1.0724325,0.93245962)"
       id="text355"
       style="font-weight:bold;font-size:128px;font-family:Calibri;-inkscape-font-specification:'Calibri Bold';letter-spacing:0px;opacity:0.807018;fill:#ffffff;stroke-width:1.94817;stroke-linecap:round;stop-color:#000000">
      <path
         d="M 207.57104,124.84901 V 48.724007 h -27.1875 v -15.5 h 72.8125 v 15.5 h -27.125 v 76.125003 z"
         style="font-family:Arial;-inkscape-font-specification:'Arial Bold'"
         id="path1140" />
      <path
         d="m 274.75854,124.84901 h -17.5625 V 58.474007 h 16.3125 v 9.4375 q 4.1875,-6.6875 7.5,-8.8125 3.375,-2.125 7.625,-2.125 6,0 11.5625,3.3125 l -5.4375,15.3125 q -4.4375,-2.875 -8.25,-2.875 -3.6875,0 -6.25,2.0625 -2.5625,2 -4.0625,7.3125 -1.4375,5.3125 -1.4375,22.250003 z"
         style="font-family:Arial;-inkscape-font-specification:'Arial Bold'"
         id="path1142" />
      <path
         d="m 320.88354,78.724007 -15.9375,-2.875 q 2.6875,-9.625 9.25,-14.25 6.5625,-4.625 19.5,-4.625 11.75,0 17.5,2.8125 5.75,2.75 8.0625,7.0625 2.375,4.25 2.375,15.6875 l -0.1875,20.500003 q 0,8.75 0.8125,12.9375 0.875,4.125 3.1875,8.875 h -17.375 q -0.6875,-1.75 -1.6875,-5.1875 -0.4375,-1.5625 -0.625,-2.0625 -4.5,4.375 -9.625,6.5625 -5.125,2.1875 -10.9375,2.1875 -10.25,0 -16.1875,-5.5625 -5.875,-5.5625 -5.875,-14.0625 0,-5.625 2.6875,-10.000003 2.6875,-4.4375 7.5,-6.75 4.875,-2.375 14,-4.125 12.3125,-2.3125 17.0625,-4.3125 v -1.75 q 0,-5.0625 -2.5,-7.1875 -2.5,-2.1875 -9.4375,-2.1875 -4.6875,0 -7.3125,1.875 -2.625,1.8125 -4.25,6.4375 z m 23.5,14.25 q -3.375,1.125 -10.6875,2.6875 -7.3125,1.5625 -9.5625,3.0625 -3.4375,2.437503 -3.4375,6.187503 0,3.6875 2.75,6.375 2.75,2.6875 7,2.6875 4.75,0 9.0625,-3.125 3.1875,-2.375 4.1875,-5.8125 0.6875,-2.25 0.6875,-8.562503 z"
         style="font-family:Arial;-inkscape-font-specification:'Arial Bold'"
         id="path1144" />
      <path
         d="M 378.32104,124.84901 V 33.224007 h 17.5625 v 48.625 l 20.5625,-23.375 h 21.625 l -22.6875,24.25 24.3125,42.125003 h -18.9375 l -16.6875,-29.812503 -8.1875,8.562503 v 21.25 z"
         style="font-family:Arial;-inkscape-font-specification:'Arial Bold'"
         id="path1146" />
      <path
         d="m 480.57104,58.474007 v 14 h -12 v 26.75 q 0,8.125003 0.3125,9.500003 0.375,1.3125 1.5625,2.1875 1.25,0.875 3,0.875 2.4375,0 7.0625,-1.6875 l 1.5,13.625 q -6.125,2.625 -13.875,2.625 -4.75,0 -8.5625,-1.5625 -3.8125,-1.625 -5.625,-4.125 -1.75,-2.5625 -2.4375,-6.875 -0.5625,-3.0625 -0.5625,-12.375 V 72.474007 h -8.0625 v -14 h 8.0625 v -13.1875 l 17.625,-10.25 v 23.4375 z"
         style="font-family:Arial;-inkscape-font-specification:'Arial Bold'"
         id="path1148" />
      <path
         d="m 488.69604,90.724007 q 0,-8.75 4.3125,-16.9375 4.3125,-8.1875 12.1875,-12.5 7.9375,-4.3125 17.6875,-4.3125 15.0625,0 24.6875,9.8125 9.625,9.75 9.625,24.6875 0,15.062503 -9.75,25.000003 -9.6875,9.875 -24.4375,9.875 -9.125,0 -17.4375,-4.125 -8.25,-4.125 -12.5625,-12.0625 -4.3125,-8 -4.3125,-19.437503 z m 18,0.9375 q 0,9.875003 4.6875,15.125003 4.6875,5.25 11.5625,5.25 6.875,0 11.5,-5.25 4.6875,-5.25 4.6875,-15.250003 0,-9.75 -4.6875,-15 -4.625,-5.25 -11.5,-5.25 -6.875,0 -11.5625,5.25 -4.6875,5.25 -4.6875,15.125 z"
         style="font-family:Arial;-inkscape-font-specification:'Arial Bold'"
         id="path1150" />
      <path
         d="m 587.75854,124.84901 h -17.5625 V 58.474007 h 16.3125 v 9.4375 q 4.1875,-6.6875 7.5,-8.8125 3.375,-2.125 7.625,-2.125 6,0 11.5625,3.3125 l -5.4375,15.3125 q -4.4375,-2.875 -8.25,-2.875 -3.6875,0 -6.25,2.0625 -2.5625,2 -4.0625,7.3125 -1.4375,5.3125 -1.4375,22.250003 z"
         style="font-family:Arial;-inkscape-font-specification:'Arial Bold'"
         id="path1152" />
    </g>
  </g>
  <g
     inkscape:groupmode="layer"
     id="layer2"
     inkscape:label="Layer 2"
     style="display:inline">
    <circle
       style="display:inline;fill:none;stroke:#545454;stroke-width:7.89682;stroke-dasharray:none;stroke-opacity:1"
       id="circle11"
       cy="67.73333"
       cx="95.73333"
       r="40.21666" />
    <circle
       style="display:inline;fill:none;stroke:#7b7b7b;stroke-width:4.18042;stroke-dasharray:none;stroke-opacity:1"
       id="circle12"
       cy="67.73333"
       cx="95.73333"
       r="40.21666" />
  </g>
  <g
     inkscape:groupmode="layer"
     id="layer3"
     inkscape:label="Layer 3"
     style="display:inline">
    <path
       id="path3"
       style="display:inline;fill:#f9f9f9;stroke:none;stroke-width:4.91596;stroke-dasharray:none;stroke-opacity:1"
       d="M 57.633338,38.099997 V 61.38333 h 25.4 l -6e-6,48.68332 h 25.399998 l 1e-5,-48.683319 h 25.39999 V 38.099997 Z"
       sodipodi:nodetypes="ccccccccc" />
    <path
       style="fill:#006680;fill-opacity:1;stroke:none;stroke-width:0.264583px;stroke-linecap:butt;stroke-linejoin:miter;stroke-opacity:1"
       d="m 85.15,57.149995 8.46667,-8.466666 V 42.33333 H 61.866666 v 14.816665 z"
       id="path9"
       sodipodi:nodetypes="cccccc" />
    <path
       style="fill:#ff5555;fill-opacity:1;stroke:none;stroke-width:0.264583px;stroke-linecap:butt;stroke-linejoin:miter;stroke-opacity:1"
       d="M 106.31666,57.149995 97.85,48.683329 V 42.33333 h 31.75 v 14.816665 z"
       id="path10"
       sodipodi:nodetypes="cccccc" />
    <path
       style="fill:#00aa44;fill-opacity:1;stroke:none;stroke-width:0.264583px;stroke-linecap:butt;stroke-linejoin:miter;stroke-opacity:1"
       d="M 87.26667,59.26666 95.73333,50.799995 104.2,59.266661 V 105.83332 H 87.26667 Z"
       id="path7"
       sodipodi:nodetypes="cccccc" />
  </g>
  <g
     inkscape:groupmode="layer"
     id="layer6"
     inkscape:label="Layer 4"
     style="display:inline" />
</svg>
