<?xml version="1.0" encoding="UTF-8" standalone="no"?>
<svg
   inkscape:export-ydpi="90"
   inkscape:export-xdpi="90"
   inkscape:export-filename="C:\private\traktor\res\icons-new\g4486.png"
   sodipodi:docname="scene_SceneAsset.svg"
   inkscape:version="1.4.2 (f4327f4, 2025-05-13)"
   version="1.1"
   id="svg2"
   viewBox="0 0 64 64"
   height="64"
   width="64"
   xml:space="preserve"
   xmlns:inkscape="http://www.inkscape.org/namespaces/inkscape"
   xmlns:sodipodi="http://sodipodi.sourceforge.net/DTD/sodipodi-0.dtd"
   xmlns="http://www.w3.org/2000/svg"
   xmlns:svg="http://www.w3.org/2000/svg"
   xmlns:rdf="http://www.w3.org/1999/02/22-rdf-syntax-ns#"
   xmlns:cc="http://creativecommons.org/ns#"
   xmlns:dc="http://purl.org/dc/elements/1.1/"><style
     id="style1">
	.theme_fill {
		fill: green;
	}
	.theme_stroke {
		stroke: green;
	}
	</style><sodipodi:namedview
     inkscape:document-rotation="0"
     showguides="true"
     guidetolerance="10000"
     objecttolerance="10000"
     showborder="true"
     inkscape:showpageshadow="false"
     units="px"
     inkscape:window-maximized="0"
     inkscape:window-y="1832"
     inkscape:window-x="3812"
     inkscape:window-height="951"
     inkscape:window-width="1242"
     inkscape:snap-to-guides="false"
     inkscape:snap-grids="true"
     inkscape:snap-global="true"
     showgrid="true"
     inkscape:current-layer="g5948"
     inkscape:document-units="px"
     inkscape:cy="58.250003"
     inkscape:cx="28.500001"
     inkscape:zoom="1.9999999"
     inkscape:pageshadow="2"
     inkscape:pageopacity="0"
     borderopacity="1.0"
     bordercolor="#666666"
     pagecolor="#4d6571"
     id="base"
     inkscape:pagecheckerboard="1"
     inkscape:deskcolor="#505050"><inkscape:grid
       snapvisiblegridlinesonly="false"
       empspacing="1"
       id="grid4490"
       type="xygrid"
       originx="0"
       originy="0"
       spacingy="1"
       spacingx="1"
       units="px"
       visible="true" /></sodipodi:namedview><defs
     id="defs4"><linearGradient
       gradientUnits="userSpaceOnUse"
       gradientTransform="scale(0.86410846,1.1572621)"
       id="g"
       y1="65.16069"
       x2="153.33781"
       x1="153.33781"
       y2="163.82805"><stop
         stop-color="#58B0E3"
         offset="0"
         id="stop4709" /><stop
         stop-color="#F44C26"
         offset="1"
         id="stop4711" /></linearGradient><linearGradient
       id="al"
       x1="129.342"
       gradientUnits="userSpaceOnUse"
       x2="195.59801"
       gradientTransform="matrix(1,0,0,-1,8.3999,368.3)"
       y1="259.30499"
       y2="259.30499"><stop
         stop-color="#FAC700"
         offset="0"
         id="stop6273" /><stop
         stop-color="#F7C400"
         offset=".415"
         id="stop6275" /><stop
         stop-color="#F7C400"
         offset="1"
         id="stop6277" /></linearGradient><linearGradient
       id="am"
       x1="129.293"
       gradientUnits="userSpaceOnUse"
       x2="195.554"
       gradientTransform="matrix(1,0,0,-1,8.3999,368.3)"
       y1="259.311"
       y2="259.311"><stop
         stop-color="#F6C200"
         offset="0"
         id="stop6282" /><stop
         stop-color="#EFBC00"
         offset=".415"
         id="stop6284" /><stop
         stop-color="#EFBC00"
         offset="1"
         id="stop6286" /></linearGradient><linearGradient
       id="an"
       x1="129.245"
       gradientUnits="userSpaceOnUse"
       x2="195.50999"
       gradientTransform="matrix(1,0,0,-1,8.3999,368.3)"
       y1="259.31699"
       y2="259.31699"><stop
         stop-color="#F1BD00"
         offset="0"
         id="stop6291" /><stop
         stop-color="#E8B500"
         offset=".415"
         id="stop6293" /><stop
         stop-color="#E8B500"
         offset="1"
         id="stop6295" /></linearGradient><linearGradient
       id="ao"
       x1="129.196"
       gradientUnits="userSpaceOnUse"
       x2="195.465"
       gradientTransform="matrix(1,0,0,-1,8.3999,368.3)"
       y1="259.32199"
       y2="259.32199"><stop
         stop-color="#EDB800"
         offset="0"
         id="stop6300" /><stop
         stop-color="#E0AD00"
         offset=".415"
         id="stop6302" /><stop
         stop-color="#E0AD00"
         offset="1"
         id="stop6304" /></linearGradient><linearGradient
       id="ap"
       x1="129.14799"
       gradientUnits="userSpaceOnUse"
       x2="195.422"
       gradientTransform="matrix(1,0,0,-1,8.3999,368.3)"
       y1="259.327"
       y2="259.327"><stop
         stop-color="#E9B300"
         offset="0"
         id="stop6309" /><stop
         stop-color="#D8A500"
         offset=".415"
         id="stop6311" /><stop
         stop-color="#D8A500"
         offset="1"
         id="stop6313" /></linearGradient><linearGradient
       id="aq"
       x1="129.099"
       gradientUnits="userSpaceOnUse"
       x2="195.379"
       gradientTransform="matrix(1,0,0,-1,8.3999,368.3)"
       y1="259.332"
       y2="259.332"><stop
         stop-color="#E4AE00"
         offset="0"
         id="stop6318" /><stop
         stop-color="#D19E00"
         offset=".415"
         id="stop6320" /><stop
         stop-color="#D19E00"
         offset="1"
         id="stop6322" /></linearGradient><linearGradient
       id="ar"
       x1="129.05099"
       gradientUnits="userSpaceOnUse"
       x2="195.338"
       gradientTransform="matrix(1,0,0,-1,8.3999,368.3)"
       y1="259.336"
       y2="259.336"><stop
         stop-color="#E0A900"
         offset="0"
         id="stop6327" /><stop
         stop-color="#C99600"
         offset=".415"
         id="stop6329" /><stop
         stop-color="#C99600"
         offset="1"
         id="stop6331" /></linearGradient><linearGradient
       id="w"
       x1="129.00301"
       gradientUnits="userSpaceOnUse"
       x2="195.29601"
       gradientTransform="matrix(1,0,0,-1,8.3999,368.3)"
       y1="259.34"
       y2="259.34"><stop
         stop-color="#DCA400"
         offset="0"
         id="stop6336" /><stop
         stop-color="#C18E00"
         offset=".415"
         id="stop6338" /><stop
         stop-color="#C18E00"
         offset="1"
         id="stop6340" /></linearGradient><linearGradient
       id="x"
       x1="128.95399"
       gradientUnits="userSpaceOnUse"
       x2="195.255"
       gradientTransform="matrix(1,0,0,-1,8.3999,368.3)"
       y1="259.34299"
       y2="259.34299"><stop
         stop-color="#D79F00"
         offset="0"
         id="stop6345" /><stop
         stop-color="#BA8700"
         offset=".415"
         id="stop6347" /><stop
         stop-color="#BA8700"
         offset="1"
         id="stop6349" /></linearGradient><linearGradient
       id="y"
       x1="128.90601"
       gradientUnits="userSpaceOnUse"
       x2="195.216"
       gradientTransform="matrix(1,0,0,-1,8.3999,368.3)"
       y1="259.34799"
       y2="259.34799"><stop
         stop-color="#D39B00"
         offset="0"
         id="stop6354" /><stop
         stop-color="#B27F00"
         offset=".415"
         id="stop6356" /><stop
         stop-color="#B27F00"
         offset="1"
         id="stop6358" /></linearGradient><linearGradient
       id="z"
       x1="128.85699"
       gradientUnits="userSpaceOnUse"
       x2="195.17599"
       gradientTransform="matrix(1,0,0,-1,8.3999,368.3)"
       y1="259.35001"
       y2="259.35001"><stop
         stop-color="#CF9600"
         offset="0"
         id="stop6363" /><stop
         stop-color="#a70"
         offset=".415"
         id="stop6365" /><stop
         stop-color="#a70"
         offset="1"
         id="stop6367" /></linearGradient><linearGradient
       id="aa"
       x1="128.80901"
       gradientUnits="userSpaceOnUse"
       x2="195.13699"
       gradientTransform="matrix(1,0,0,-1,8.3999,368.3)"
       y1="259.354"
       y2="259.354"><stop
         stop-color="#CA9100"
         offset="0"
         id="stop6372" /><stop
         stop-color="#A37000"
         offset=".415"
         id="stop6374" /><stop
         stop-color="#A37000"
         offset="1"
         id="stop6376" /></linearGradient><linearGradient
       id="ab"
       x1="128.75999"
       gradientUnits="userSpaceOnUse"
       x2="195.099"
       gradientTransform="matrix(1,0,0,-1,8.3999,368.3)"
       y1="259.35599"
       y2="259.35599"><stop
         stop-color="#C68C00"
         offset="0"
         id="stop6381" /><stop
         stop-color="#9B6800"
         offset=".415"
         id="stop6383" /><stop
         stop-color="#9B6800"
         offset="1"
         id="stop6385" /></linearGradient><linearGradient
       id="ac"
       x1="128.71201"
       gradientUnits="userSpaceOnUse"
       x2="195.062"
       gradientTransform="matrix(1,0,0,-1,8.3999,368.3)"
       y1="259.358"
       y2="259.358"><stop
         stop-color="#C28700"
         offset="0"
         id="stop6390" /><stop
         stop-color="#936000"
         offset=".415"
         id="stop6392" /><stop
         stop-color="#936000"
         offset="1"
         id="stop6394" /></linearGradient><linearGradient
       id="ad"
       x1="128.66299"
       gradientUnits="userSpaceOnUse"
       x2="195.02499"
       gradientTransform="matrix(1,0,0,-1,8.3999,368.3)"
       y1="259.35999"
       y2="259.35999"><stop
         stop-color="#BD8200"
         offset="0"
         id="stop6399" /><stop
         stop-color="#8C5900"
         offset=".415"
         id="stop6401" /><stop
         stop-color="#8C5900"
         offset="1"
         id="stop6403" /></linearGradient><linearGradient
       id="ae"
       x1="128.61501"
       gradientUnits="userSpaceOnUse"
       x2="194.989"
       gradientTransform="matrix(1,0,0,-1,8.3999,368.3)"
       y1="259.362"
       y2="259.362"><stop
         stop-color="#B97D00"
         offset="0"
         id="stop6408" /><stop
         stop-color="#845100"
         offset=".415"
         id="stop6410" /><stop
         stop-color="#845100"
         offset="1"
         id="stop6412" /></linearGradient><linearGradient
       id="af"
       x1="128.567"
       gradientUnits="userSpaceOnUse"
       x2="194.95399"
       gradientTransform="matrix(1,0,0,-1,8.3999,368.3)"
       y1="259.36401"
       y2="259.36401"><stop
         stop-color="#B57800"
         offset="0"
         id="stop6417" /><stop
         stop-color="#7C4900"
         offset=".415"
         id="stop6419" /><stop
         stop-color="#7C4900"
         offset="1"
         id="stop6421" /></linearGradient><linearGradient
       id="ah"
       x1="128.51801"
       gradientUnits="userSpaceOnUse"
       x2="194.918"
       gradientTransform="matrix(1,0,0,-1,8.3999,368.3)"
       y1="259.366"
       y2="259.366"><stop
         stop-color="#B07300"
         offset="0"
         id="stop6426" /><stop
         stop-color="#754200"
         offset=".415"
         id="stop6428" /><stop
         stop-color="#754200"
         offset="1"
         id="stop6430" /></linearGradient><linearGradient
       id="ai"
       x1="128.47"
       gradientUnits="userSpaceOnUse"
       x2="194.886"
       gradientTransform="matrix(1,0,0,-1,8.3999,368.3)"
       y1="259.367"
       y2="259.367"><stop
         stop-color="#AC6E00"
         offset="0"
         id="stop6435" /><stop
         stop-color="#6D3A00"
         offset=".415"
         id="stop6437" /><stop
         stop-color="#6D3A00"
         offset="1"
         id="stop6439" /></linearGradient><linearGradient
       id="aj"
       x1="128.42101"
       gradientUnits="userSpaceOnUse"
       x2="194.85001"
       gradientTransform="matrix(1,0,0,-1,8.3999,368.3)"
       y1="259.36899"
       y2="259.36899"><stop
         stop-color="#A86A00"
         offset="0"
         id="stop6444" /><stop
         stop-color="#663200"
         offset=".415"
         id="stop6446" /><stop
         stop-color="#663200"
         offset="1"
         id="stop6448" /></linearGradient></defs><metadata
     id="metadata7"><rdf:RDF><cc:Work
         rdf:about=""><dc:format>image/svg+xml</dc:format><dc:type
           rdf:resource="http://purl.org/dc/dcmitype/StillImage" /></cc:Work></rdf:RDF></metadata><g
     inkscape:groupmode="layer"
     id="g5948"
     inkscape:label="Dark"
     style="display:inline;opacity:1"><path
       style="stroke-width:0.201214"
       d="M 44.194837,60.284907 C 41.564342,60.194583 37.408568,59.788859 34.230974,59.312143 23.685962,57.73014 14.189227,54.817097 7.4964747,51.111565 5.7906118,50.167087 5.7565692,50.140984 5.6048595,49.661046 5.5329941,49.43369 5.4586273,48.977263 5.4396051,48.646761 5.3279727,46.707621 6.3171059,44.773795 8.9761536,41.73256 l 0.273803,-0.313165 1.9716114,0.477799 c 1.08439,0.262785 1.981857,0.466641 1.99437,0.453002 0.01254,-0.01362 0.103248,-0.386632 0.201621,-0.828888 0.267654,-1.203292 0.461119,-2.637087 0.512487,-3.798067 0.04325,-0.97771 0.0568,-1.052653 0.239805,-1.32852 0.106684,-0.160797 0.412918,-0.474538 0.680521,-0.697207 0.737988,-0.614058 1.048804,-1.143091 0.925069,-1.574531 -0.133479,-0.465419 -0.425911,-0.892951 -1.611346,-2.355775 -0.713272,-0.880178 -0.858751,-1.180945 -1.116115,-2.30742 -0.811075,-3.550061 -1.073715,-7.538592 -0.699861,-10.628122 0.689989,-5.701999 3.356736,-10.3262313 7.47715,-12.9656425 1.306686,-0.8370247 2.840341,-1.5159884 3.281279,-1.4526526 0.793137,0.1139184 34.637787,6.3532331 34.802692,6.4159361 1.051449,0.399759 1.414342,1.85749 0.676891,2.71904 -0.132444,0.15473 -0.59283,0.524107 -1.023081,0.820839 -2.004629,1.382528 -3.688183,2.745731 -4.945268,4.00426 -1.535033,1.53679 -2.39518,2.703247 -3.173726,4.303917 -1.019054,2.095156 -1.437246,3.800557 -1.438063,5.864468 -6.33e-4,2.046775 0.469781,4.051695 1.43282,6.104411 0.379179,0.808224 0.474138,1.229438 0.384143,1.703982 -0.133017,0.701373 -0.400303,1.152279 -1.382768,2.332705 -0.620131,0.745085 -0.810759,1.122479 -0.744738,1.474404 0.103858,0.553628 0.540932,1.002488 1.988259,2.041907 0.32688,0.234757 0.745421,0.576291 0.93009,0.758966 0.586433,0.580097 0.573404,0.520447 0.571872,2.618571 -0.0029,3.913701 -0.617293,7.585742 -1.901228,11.362299 -0.762942,2.244103 -1.124498,2.864588 -1.8563,3.185706 -0.32562,0.142889 -0.487417,0.162126 -1.450297,0.17248 -0.596085,0.0064 -1.398435,6.33e-4 -1.783009,-0.01235 z m 1.48779,-3.972788 c 0.454021,-0.382035 1.02015,-2.372675 1.511961,-5.316398 0.288577,-1.727292 0.348462,-2.493274 0.352578,-4.509959 l 0.0037,-1.922853 -0.224367,-0.323061 c -0.281148,-0.404819 -0.724132,-0.804103 -1.836745,-1.655566 -2.164982,-1.656806 -2.465862,-2.116621 -1.960992,-2.99689 0.206844,-0.360656 0.467989,-0.665564 1.637353,-1.911789 0.692351,-0.737861 1.038462,-1.231275 1.151918,-1.642173 0.06801,-0.246327 0.04382,-0.371669 -0.242654,-1.256059 -0.625094,-1.929888 -1.041786,-3.777234 -1.218724,-5.403049 -0.110695,-1.017117 -0.05433,-3.394484 0.100699,-4.249689 0.453787,-2.502804 1.552158,-4.895292 3.17795,-6.922267 0.909586,-1.134036 3.113444,-3.255236 4.661278,-4.486447 0.152958,-0.121669 0.262373,-0.23467 0.243142,-0.251115 -0.01924,-0.01647 -6.714551,-1.247206 -14.878503,-2.735035 L 23.317727,8.0246281 22.724743,8.3143317 c -2.874043,1.4041149 -5.107425,4.0664253 -6.212668,7.4058103 -0.684296,2.06752 -0.915451,3.81215 -0.856971,6.467772 0.05104,2.318046 0.236822,3.852854 0.748992,6.188085 0.295771,1.348525 0.452679,1.755376 1.537101,3.985542 1.041691,2.142293 1.326468,2.873207 1.32605,3.403539 -3.99e-4,0.46117 -0.162051,0.696142 -0.827818,1.202943 -0.845668,0.643757 -0.868407,0.688944 -0.933452,1.854686 -0.06519,1.168363 -0.244111,2.214126 -0.579141,3.385066 -0.135538,0.473702 -0.246436,0.901064 -0.246436,0.949696 0,0.04863 0.102263,0.1226 0.227249,0.164375 0.124987,0.04179 1.218389,0.421789 2.429785,0.844483 5.956159,2.078286 12.331561,3.597555 19.095002,4.550379 1.616596,0.227741 4.248479,0.530078 5.290245,0.607712 0.355731,0.02653 0.646777,0.06509 0.646777,0.08573 0,0.02064 -0.124107,0.228521 -0.275792,0.461942 -0.688284,1.059169 -0.954235,1.969307 -0.883712,3.02429 0.05041,0.7544 0.304578,1.815677 0.551006,2.300866 0.359563,0.707948 1.047783,1.287139 1.529604,1.287278 0.102808,3.2e-5 0.279154,-0.07755 0.391881,-0.17241 z M 35.69933,47.473034 c 0,-0.131598 -0.988563,-1.126944 -1.437296,-1.447156 -0.233226,-0.16642 -0.679496,-0.439083 -0.991724,-0.605908 l -0.567679,-0.303318 0.404622,-0.909676 c 0.222543,-0.500322 0.442598,-0.980622 0.489001,-1.067337 l 0.08438,-0.157655 0.537373,0.291438 c 0.963297,0.522429 1.924587,1.206503 2.498516,1.778001 0.505687,0.50354 1.062722,1.202431 0.999803,1.254407 -0.0133,0.01102 -0.415355,0.28068 -0.893407,0.599277 -0.879001,0.585803 -1.123588,0.709429 -1.123588,0.567927 z m -5.962554,-3.573618 c -1.330673,-0.538266 -3.54404,-1.801906 -3.494084,-1.994819 0.02432,-0.09398 1.301596,-1.847061 1.347587,-1.849607 0.02027,-0.0013 0.207073,0.125868 0.41514,0.282206 0.208067,0.156339 0.59532,0.410999 0.860568,0.565913 0.491345,0.286955 2.281351,1.107649 2.415893,1.107649 0.04072,0 0.09178,0.02868 0.113457,0.06378 0.05604,0.09063 -0.80321,2.104058 -0.89727,2.102569 -0.04281,-6.01e-4 -0.385392,-0.125633 -0.761291,-0.277691 z m -5.839878,-4.45828 c -0.599943,-0.92129 -1.249955,-2.291983 -1.510733,-3.185701 -0.168585,-0.577773 -0.216318,-0.834226 -0.158916,-0.853786 0.523822,-0.178502 2.117014,-0.577375 2.151715,-0.538703 0.02501,0.02792 0.163729,0.409372 0.308188,0.847701 0.299886,0.90989 0.645403,1.63116 1.140603,2.381021 l 0.344034,0.520947 -0.917381,0.682333 c -0.504559,0.375284 -0.937012,0.683624 -0.961005,0.685207 -0.02401,0.0019 -0.20242,-0.240983 -0.396505,-0.539019 z M 22.816687,32.74949 c -0.451621,-0.04622 -0.836233,-0.09915 -0.854698,-0.11761 -0.01849,-0.01849 0.01102,-0.425088 0.06558,-0.903615 0.07832,-0.687214 0.172859,-1.088176 0.449912,-1.908092 0.280015,-0.828685 0.72037,-1.82056 0.88608,-1.995844 0.03312,-0.03502 1.906117,1.036201 1.957731,1.119718 0.0214,0.03464 -0.05534,0.227747 -0.170573,0.429179 -0.384492,0.672251 -0.740425,1.930014 -0.820928,2.900916 l -0.04781,0.576856 -0.322075,-0.0088 c -0.177139,-0.005 -0.691577,-0.04654 -1.143198,-0.09278 z m 14.281078,-6.306829 c -0.557624,-0.906237 -1.051069,-1.6626 -1.096535,-1.680812 -0.04546,-0.01823 -0.652527,0.256497 -1.349018,0.610473 -0.696492,0.353977 -1.27631,0.631845 -1.288494,0.617483 -0.06903,-0.08138 -1.020635,-1.938328 -1.020635,-1.991641 0,-0.0352 0.553494,-0.340272 1.229994,-0.677867 0.919415,-0.458821 1.21996,-0.639957 1.190248,-0.717383 -0.02184,-0.05693 -0.387639,-0.670484 -0.812848,-1.363379 -0.425202,-0.692894 -0.757491,-1.285055 -0.738417,-1.315919 0.03793,-0.06136 1.822789,-1.196839 1.881318,-1.196839 0.01982,0 0.40499,0.605699 0.855902,1.345997 0.450918,0.740299 0.857921,1.387665 0.904457,1.438588 0.0691,0.07562 0.381086,-0.05573 1.702019,-0.716698 0.889577,-0.44511 1.646954,-0.809289 1.683061,-0.809289 0.08389,0 1.079305,1.956072 1.023708,2.01167 -0.02286,0.02286 -0.725444,0.396365 -1.561271,0.82999 -0.835835,0.433617 -1.513304,0.816761 -1.505496,0.851417 0.01089,0.04826 0.846757,1.457079 1.878671,3.166356 0.02197,0.03635 -1.8722,1.256521 -1.938233,1.24853 -0.01349,-0.0019 -0.4808,-0.74444 -1.038431,-1.650677 z M 25.87531,26.6168 c -0.839697,-0.932054 -0.844586,-0.939355 -0.72524,-1.084435 0.338493,-0.411499 1.71514,-1.249829 2.683053,-1.63389 0.470023,-0.186499 1.847105,-0.529724 1.886822,-0.470269 0.0067,0.01006 0.123024,0.512614 0.258447,1.116774 l 0.24622,1.098473 -0.391647,0.08093 c -0.920916,0.190299 -1.9947,0.676108 -2.754698,1.246296 -0.261341,0.196067 -0.497334,0.353818 -0.524418,0.350557 -0.0271,-0.0032 -0.332427,-0.320258 -0.678539,-0.70444 z m -4.551378,-5.163068 c 0.02064,-0.134599 0.08859,-0.881509 0.151032,-1.659801 l 0.113513,-1.415077 -0.29373,-0.332972 C 20.707056,17.37969 20.389383,16.48753 20.387477,15.497909 l -0.0013,-0.536885 -0.736575,-0.768681 c -0.586613,-0.61217 -0.711176,-0.776183 -0.611816,-0.805534 0.06862,-0.02026 0.607928,-0.148283 1.198474,-0.284479 l 1.073708,-0.247631 0.410536,-0.380085 c 0.594175,-0.550101 1.66022,-1.019706 2.314817,-1.019706 0.147701,0 0.501595,-0.25858 1.49311,-1.090963 0.714734,-0.6000324 1.317552,-1.0729294 1.339595,-1.0508867 0.02203,0.022036 0.0032,0.7142417 -0.04211,1.5382217 l -0.0822,1.498144 0.336194,0.444244 c 0.559049,0.738728 0.854034,1.62301 0.856611,2.567881 0.0013,0.431687 0.01779,0.472504 0.53503,1.315615 0.293592,0.478565 0.505984,0.894617 0.471967,0.924562 -0.03401,0.02995 -0.483821,0.10803 -0.999581,0.173513 l -0.937741,0.119053 -0.368737,0.337006 c -0.703527,0.64299 -1.442635,0.964386 -2.370624,1.030858 l -0.559377,0.04009 -1.210657,1.198118 c -1.13672,1.124949 -1.208364,1.183174 -1.173144,0.953394 z m 3.292786,-4.60545 c 0.630762,-0.287272 1.064134,-1.040437 0.993338,-1.726361 -0.08268,-0.801121 -0.563159,-1.288709 -1.286461,-1.305508 -1.635017,-0.03799 -2.268009,2.302196 -0.825626,3.052361 0.279514,0.145377 0.774461,0.136309 1.118749,-0.02051 z"
       id="path1"
       class="theme_fill" /></g></svg>
