<?xml version="1.0" encoding="utf-8"?>
<svg inkscape:export-ydpi="90" inkscape:export-xdpi="90" inkscape:export-filename="C:\private\traktor\res\icons-new\g4486.png" sodipodi:docname="script_Script.svg" inkscape:version="1.2.2 (732a01da63, 2022-12-09)" version="1.1" id="svg2" viewBox="0 0 64 64" height="64" width="64" xmlns:inkscape="http://www.inkscape.org/namespaces/inkscape" xmlns:sodipodi="http://sodipodi.sourceforge.net/DTD/sodipodi-0.dtd" xmlns="http://www.w3.org/2000/svg" xmlns:svg="http://www.w3.org/2000/svg" xmlns:rdf="http://www.w3.org/1999/02/22-rdf-syntax-ns#" xmlns:cc="http://creativecommons.org/ns#" xmlns:dc="http://purl.org/dc/elements/1.1/">
	<style>
	.theme_fill {
		fill: green;
	}
	.theme_stroke {
		stroke: green;
	}
	</style>
	<sodipodi:namedview inkscape:document-rotation="0" showguides="true" guidetolerance="10000" objecttolerance="10000" showborder="true" inkscape:showpageshadow="false" units="px" inkscape:window-maximized="0" inkscape:window-y="2356" inkscape:window-x="2536" inkscape:window-height="951" inkscape:window-width="1242" inkscape:snap-to-guides="false" inkscape:snap-grids="true" inkscape:snap-global="true" showgrid="true" inkscape:current-layer="g2313" inkscape:document-units="px" inkscape:cy="38.183768" inkscape:cx="9.7227187" inkscape:zoom="2.828427" inkscape:pageshadow="2" inkscape:pageopacity="0" borderopacity="1.0" bordercolor="#666666" pagecolor="#4d6571" id="base" inkscape:pagecheckerboard="1" inkscape:deskcolor="#505050">
		<inkscape:grid snapvisiblegridlinesonly="false" empspacing="1" id="grid4490" type="xygrid" originx="0" originy="0" spacingy="1" spacingx="1" units="px" visible="true"/>
	</sodipodi:namedview>
	<defs id="defs4">
		<linearGradient gradientUnits="userSpaceOnUse" gradientTransform="scale(0.86410846,1.1572621)" id="g" y1="65.16069" x2="153.33781" x1="153.33781" y2="163.82805">
			<stop stop-color="#58B0E3" offset="0" id="stop4709"/>
			<stop stop-color="#F44C26" offset="1" id="stop4711"/>
		</linearGradient>
		<linearGradient id="al" x1="129.342" gradientUnits="userSpaceOnUse" x2="195.59801" gradientTransform="matrix(1,0,0,-1,8.3999,368.3)" y1="259.30499" y2="259.30499">
			<stop stop-color="#FAC700" offset="0" id="stop6273"/>
			<stop stop-color="#F7C400" offset=".415" id="stop6275"/>
			<stop stop-color="#F7C400" offset="1" id="stop6277"/>
		</linearGradient>
		<linearGradient id="am" x1="129.293" gradientUnits="userSpaceOnUse" x2="195.554" gradientTransform="matrix(1,0,0,-1,8.3999,368.3)" y1="259.311" y2="259.311">
			<stop stop-color="#F6C200" offset="0" id="stop6282"/>
			<stop stop-color="#EFBC00" offset=".415" id="stop6284"/>
			<stop stop-color="#EFBC00" offset="1" id="stop6286"/>
		</linearGradient>
		<linearGradient id="an" x1="129.245" gradientUnits="userSpaceOnUse" x2="195.50999" gradientTransform="matrix(1,0,0,-1,8.3999,368.3)" y1="259.31699" y2="259.31699">
			<stop stop-color="#F1BD00" offset="0" id="stop6291"/>
			<stop stop-color="#E8B500" offset=".415" id="stop6293"/>
			<stop stop-color="#E8B500" offset="1" id="stop6295"/>
		</linearGradient>
		<linearGradient id="ao" x1="129.196" gradientUnits="userSpaceOnUse" x2="195.465" gradientTransform="matrix(1,0,0,-1,8.3999,368.3)" y1="259.32199" y2="259.32199">
			<stop stop-color="#EDB800" offset="0" id="stop6300"/>
			<stop stop-color="#E0AD00" offset=".415" id="stop6302"/>
			<stop stop-color="#E0AD00" offset="1" id="stop6304"/>
		</linearGradient>
		<linearGradient id="ap" x1="129.14799" gradientUnits="userSpaceOnUse" x2="195.422" gradientTransform="matrix(1,0,0,-1,8.3999,368.3)" y1="259.327" y2="259.327">
			<stop stop-color="#E9B300" offset="0" id="stop6309"/>
			<stop stop-color="#D8A500" offset=".415" id="stop6311"/>
			<stop stop-color="#D8A500" offset="1" id="stop6313"/>
		</linearGradient>
		<linearGradient id="aq" x1="129.099" gradientUnits="userSpaceOnUse" x2="195.379" gradientTransform="matrix(1,0,0,-1,8.3999,368.3)" y1="259.332" y2="259.332">
			<stop stop-color="#E4AE00" offset="0" id="stop6318"/>
			<stop stop-color="#D19E00" offset=".415" id="stop6320"/>
			<stop stop-color="#D19E00" offset="1" id="stop6322"/>
		</linearGradient>
		<linearGradient id="ar" x1="129.05099" gradientUnits="userSpaceOnUse" x2="195.338" gradientTransform="matrix(1,0,0,-1,8.3999,368.3)" y1="259.336" y2="259.336">
			<stop stop-color="#E0A900" offset="0" id="stop6327"/>
			<stop stop-color="#C99600" offset=".415" id="stop6329"/>
			<stop stop-color="#C99600" offset="1" id="stop6331"/>
		</linearGradient>
		<linearGradient id="w" x1="129.00301" gradientUnits="userSpaceOnUse" x2="195.29601" gradientTransform="matrix(1,0,0,-1,8.3999,368.3)" y1="259.34" y2="259.34">
			<stop stop-color="#DCA400" offset="0" id="stop6336"/>
			<stop stop-color="#C18E00" offset=".415" id="stop6338"/>
			<stop stop-color="#C18E00" offset="1" id="stop6340"/>
		</linearGradient>
		<linearGradient id="x" x1="128.95399" gradientUnits="userSpaceOnUse" x2="195.255" gradientTransform="matrix(1,0,0,-1,8.3999,368.3)" y1="259.34299" y2="259.34299">
			<stop stop-color="#D79F00" offset="0" id="stop6345"/>
			<stop stop-color="#BA8700" offset=".415" id="stop6347"/>
			<stop stop-color="#BA8700" offset="1" id="stop6349"/>
		</linearGradient>
		<linearGradient id="y" x1="128.90601" gradientUnits="userSpaceOnUse" x2="195.216" gradientTransform="matrix(1,0,0,-1,8.3999,368.3)" y1="259.34799" y2="259.34799">
			<stop stop-color="#D39B00" offset="0" id="stop6354"/>
			<stop stop-color="#B27F00" offset=".415" id="stop6356"/>
			<stop stop-color="#B27F00" offset="1" id="stop6358"/>
		</linearGradient>
		<linearGradient id="z" x1="128.85699" gradientUnits="userSpaceOnUse" x2="195.17599" gradientTransform="matrix(1,0,0,-1,8.3999,368.3)" y1="259.35001" y2="259.35001">
			<stop stop-color="#CF9600" offset="0" id="stop6363"/>
			<stop stop-color="#a70" offset=".415" id="stop6365"/>
			<stop stop-color="#a70" offset="1" id="stop6367"/>
		</linearGradient>
		<linearGradient id="aa" x1="128.80901" gradientUnits="userSpaceOnUse" x2="195.13699" gradientTransform="matrix(1,0,0,-1,8.3999,368.3)" y1="259.354" y2="259.354">
			<stop stop-color="#CA9100" offset="0" id="stop6372"/>
			<stop stop-color="#A37000" offset=".415" id="stop6374"/>
			<stop stop-color="#A37000" offset="1" id="stop6376"/>
		</linearGradient>
		<linearGradient id="ab" x1="128.75999" gradientUnits="userSpaceOnUse" x2="195.099" gradientTransform="matrix(1,0,0,-1,8.3999,368.3)" y1="259.35599" y2="259.35599">
			<stop stop-color="#C68C00" offset="0" id="stop6381"/>
			<stop stop-color="#9B6800" offset=".415" id="stop6383"/>
			<stop stop-color="#9B6800" offset="1" id="stop6385"/>
		</linearGradient>
		<linearGradient id="ac" x1="128.71201" gradientUnits="userSpaceOnUse" x2="195.062" gradientTransform="matrix(1,0,0,-1,8.3999,368.3)" y1="259.358" y2="259.358">
			<stop stop-color="#C28700" offset="0" id="stop6390"/>
			<stop stop-color="#936000" offset=".415" id="stop6392"/>
			<stop stop-color="#936000" offset="1" id="stop6394"/>
		</linearGradient>
		<linearGradient id="ad" x1="128.66299" gradientUnits="userSpaceOnUse" x2="195.02499" gradientTransform="matrix(1,0,0,-1,8.3999,368.3)" y1="259.35999" y2="259.35999">
			<stop stop-color="#BD8200" offset="0" id="stop6399"/>
			<stop stop-color="#8C5900" offset=".415" id="stop6401"/>
			<stop stop-color="#8C5900" offset="1" id="stop6403"/>
		</linearGradient>
		<linearGradient id="ae" x1="128.61501" gradientUnits="userSpaceOnUse" x2="194.989" gradientTransform="matrix(1,0,0,-1,8.3999,368.3)" y1="259.362" y2="259.362">
			<stop stop-color="#B97D00" offset="0" id="stop6408"/>
			<stop stop-color="#845100" offset=".415" id="stop6410"/>
			<stop stop-color="#845100" offset="1" id="stop6412"/>
		</linearGradient>
		<linearGradient id="af" x1="128.567" gradientUnits="userSpaceOnUse" x2="194.95399" gradientTransform="matrix(1,0,0,-1,8.3999,368.3)" y1="259.36401" y2="259.36401">
			<stop stop-color="#B57800" offset="0" id="stop6417"/>
			<stop stop-color="#7C4900" offset=".415" id="stop6419"/>
			<stop stop-color="#7C4900" offset="1" id="stop6421"/>
		</linearGradient>
		<linearGradient id="ah" x1="128.51801" gradientUnits="userSpaceOnUse" x2="194.918" gradientTransform="matrix(1,0,0,-1,8.3999,368.3)" y1="259.366" y2="259.366">
			<stop stop-color="#B07300" offset="0" id="stop6426"/>
			<stop stop-color="#754200" offset=".415" id="stop6428"/>
			<stop stop-color="#754200" offset="1" id="stop6430"/>
		</linearGradient>
		<linearGradient id="ai" x1="128.47" gradientUnits="userSpaceOnUse" x2="194.886" gradientTransform="matrix(1,0,0,-1,8.3999,368.3)" y1="259.367" y2="259.367">
			<stop stop-color="#AC6E00" offset="0" id="stop6435"/>
			<stop stop-color="#6D3A00" offset=".415" id="stop6437"/>
			<stop stop-color="#6D3A00" offset="1" id="stop6439"/>
		</linearGradient>
		<linearGradient id="aj" x1="128.42101" gradientUnits="userSpaceOnUse" x2="194.85001" gradientTransform="matrix(1,0,0,-1,8.3999,368.3)" y1="259.36899" y2="259.36899">
			<stop stop-color="#A86A00" offset="0" id="stop6444"/>
			<stop stop-color="#663200" offset=".415" id="stop6446"/>
			<stop stop-color="#663200" offset="1" id="stop6448"/>
		</linearGradient>
	</defs>
	<metadata id="metadata7">
		<rdf:RDF>
			<cc:Work rdf:about="">
				<dc:format>image/svg+xml</dc:format>
				<dc:type rdf:resource="http://purl.org/dc/dcmitype/StillImage"/>
			</cc:Work>
		</rdf:RDF>
	</metadata>
	<g inkscape:groupmode="layer" id="g5948" inkscape:label="Dark" style="display:inline;opacity:1">
		<g inkscape:label="Rendered Gears" transform="rotate(3.1555026,-828.53912,-974.24062)" id="g2313" style="fill-opacity:1;stroke:none" class="theme_fill">
			<path style="fill-opacity:1;stroke:none;stroke-width:0.400823;opacity:0.8" d="m 109.009,-34.428043 2.87505,-0.84199 0.19246,-0.03251 3.47649,0.918094 0.22063,2.536877 -3.2658,1.504467 -0.19519,0.0012 -2.97724,-0.333021 -1.11441,3.528106 2.62836,1.437609 0.15906,0.113062 1.80907,3.107463 -1.63784,1.949855 -3.37311,-1.245457 -0.13883,-0.137153 -1.86976,-2.340722 -3.28275,1.70675 0.84199,2.87505 0.0325,0.192467 -0.9181,3.476489 -2.536871,0.22063 -1.504471,-3.2658 -0.0012,-0.195189 0.333021,-2.97724 -3.528106,-1.114416 -1.437607,2.628362 -0.113064,0.159059 -3.107462,1.809068 -1.949856,-1.637836 1.245457,-3.373113 0.137153,-0.138824 2.340723,-1.869766 -1.70675,-3.282751 -2.875051,0.84199 -0.192466,0.03251 -3.476488,-0.918095 -0.22063,-2.536877 3.2658,-1.504466 0.195188,-0.0012 2.977241,0.333021 1.114415,-3.528106 -2.628362,-1.437607 -0.15906,-0.113064 -1.809068,-3.107462 1.637838,-1.949856 3.373111,1.245458 0.138827,0.137152 1.869764,2.340723 3.28275,-1.70675 -0.84199,-2.87505 -0.03251,-0.192467 0.918094,-3.476488 2.536878,-0.22063 1.504472,3.2658 0.001,0.195187 -0.33302,2.977242 3.5281,1.114415 1.43761,-2.628363 0.11306,-0.159059 3.10747,-1.809068 1.94985,1.637837 -1.24546,3.373112 -0.13715,0.138826 -2.34073,1.869764 z" id="path2311" class="theme_fill"/>
			<path style="display:inline;fill-opacity:1;stroke:none;stroke-width:0.538943" d="m 89.944703,-4.2139182 3.945634,0.8110866 0.249104,0.082641 3.551225,3.28074067 L 96.354531,3.1130265 91.52738,2.8427057 91.294761,2.7211704 87.967987,0.44994411 84.421521,3.9388011 l 2.216469,3.3635414 0.117719,0.2345131 0.191261,4.8309624 -3.173936,1.284348 -3.222191,-3.604481 -0.0785,-0.2503787 -0.746402,-3.9584138 -4.97472,-0.040711 -0.811086,3.9456354 -0.08264,0.2491029 -3.280741,3.5512212 -3.152476,-1.336135 0.270324,-4.8271458 0.121535,-0.2326179 2.271226,-3.3267752 -3.488858,-3.54646306 -3.36354,2.21647016 -0.234512,0.1177122 -4.830962,0.1912595 -1.284351,-3.17393357 3.60448,-3.22219053 0.250378,-0.0785 3.958415,-0.7463998 0.04071,-4.974723 -3.945636,-0.811089 -0.249105,-0.08264 -3.551223,-3.280741 1.336135,-3.152476 4.827149,0.270322 0.23262,0.121531 3.326776,2.271226 3.546462,-3.488857 -2.216471,-3.363542 -0.117713,-0.234511 -0.191259,-4.830961 3.173935,-1.284351 3.222189,3.604478 0.0785,0.25038 0.746399,3.958414 4.974722,0.04071 0.811087,-3.945634 0.08264,-0.249104 3.28074,-3.551223 3.152477,1.336135 -0.270321,4.827149 -0.121531,0.23262 -2.271227,3.326774 3.488855,3.546461 3.363544,-2.21647 0.234511,-0.117712 4.830965,-0.191257 1.284352,3.173935 -3.604481,3.222187 -0.250385,0.0785 -3.958413,0.746404 z" id="path2311-1" class="theme_fill"/>
			<circle style="opacity:0.8;fill:#999999;fill-opacity:1;stroke:none;stroke-width:0.8;stroke-linecap:round;stop-color:#000000" id="path3820" cx="77.59922" cy="-2.5369263" r="7.5" transform="rotate(-3.1555026)"/>
		</g>
	</g>
</svg>
