<?xml version="1.0" encoding="UTF-8" standalone="no"?>
<svg
   inkscape:export-ydpi="90"
   inkscape:export-xdpi="90"
   inkscape:export-filename="C:\private\traktor\res\icons-new\g4486.png"
   sodipodi:docname="sound_SoundAsset.svg"
   inkscape:version="1.2.2 (732a01da63, 2022-12-09)"
   version="1.1"
   id="svg2"
   viewBox="0 0 64 64"
   height="64"
   width="64"
   xmlns:inkscape="http://www.inkscape.org/namespaces/inkscape"
   xmlns:sodipodi="http://sodipodi.sourceforge.net/DTD/sodipodi-0.dtd"
   xmlns="http://www.w3.org/2000/svg"
   xmlns:svg="http://www.w3.org/2000/svg"
   xmlns:rdf="http://www.w3.org/1999/02/22-rdf-syntax-ns#"
   xmlns:cc="http://creativecommons.org/ns#"
   xmlns:dc="http://purl.org/dc/elements/1.1/">
  <style
     id="style2">
	.theme_fill {
		fill: green;
	}
	.theme_stroke {
		stroke: green;
	}
	</style>
  <sodipodi:namedview
     inkscape:document-rotation="0"
     showguides="true"
     guidetolerance="10000"
     objecttolerance="10000"
     showborder="true"
     inkscape:showpageshadow="false"
     units="px"
     inkscape:window-maximized="0"
     inkscape:window-y="2560"
     inkscape:window-x="2582"
     inkscape:window-height="951"
     inkscape:window-width="1242"
     inkscape:snap-to-guides="false"
     inkscape:snap-grids="true"
     inkscape:snap-global="true"
     showgrid="true"
     inkscape:current-layer="g5948"
     inkscape:document-units="px"
     inkscape:cy="55.868135"
     inkscape:cx="37.846156"
     inkscape:zoom="3.3292681"
     inkscape:pageshadow="2"
     inkscape:pageopacity="0"
     borderopacity="1.0"
     bordercolor="#666666"
     pagecolor="#4d6571"
     id="base"
     inkscape:pagecheckerboard="1"
     inkscape:deskcolor="#505050">
    <inkscape:grid
       snapvisiblegridlinesonly="false"
       empspacing="1"
       id="grid4490"
       type="xygrid"
       originx="0"
       originy="0"
       spacingy="1"
       spacingx="1"
       units="px"
       visible="true" />
  </sodipodi:namedview>
  <defs
     id="defs4">
    <linearGradient
       gradientUnits="userSpaceOnUse"
       gradientTransform="scale(0.86410846,1.1572621)"
       id="g"
       y1="65.16069"
       x2="153.33781"
       x1="153.33781"
       y2="163.82805">
      <stop
         stop-color="#58B0E3"
         offset="0"
         id="stop4709" />
      <stop
         stop-color="#F44C26"
         offset="1"
         id="stop4711" />
    </linearGradient>
    <linearGradient
       id="al"
       x1="129.342"
       gradientUnits="userSpaceOnUse"
       x2="195.59801"
       gradientTransform="matrix(1,0,0,-1,8.3999,368.3)"
       y1="259.30499"
       y2="259.30499">
      <stop
         stop-color="#FAC700"
         offset="0"
         id="stop6273" />
      <stop
         stop-color="#F7C400"
         offset=".415"
         id="stop6275" />
      <stop
         stop-color="#F7C400"
         offset="1"
         id="stop6277" />
    </linearGradient>
    <linearGradient
       id="am"
       x1="129.293"
       gradientUnits="userSpaceOnUse"
       x2="195.554"
       gradientTransform="matrix(1,0,0,-1,8.3999,368.3)"
       y1="259.311"
       y2="259.311">
      <stop
         stop-color="#F6C200"
         offset="0"
         id="stop6282" />
      <stop
         stop-color="#EFBC00"
         offset=".415"
         id="stop6284" />
      <stop
         stop-color="#EFBC00"
         offset="1"
         id="stop6286" />
    </linearGradient>
    <linearGradient
       id="an"
       x1="129.245"
       gradientUnits="userSpaceOnUse"
       x2="195.50999"
       gradientTransform="matrix(1,0,0,-1,8.3999,368.3)"
       y1="259.31699"
       y2="259.31699">
      <stop
         stop-color="#F1BD00"
         offset="0"
         id="stop6291" />
      <stop
         stop-color="#E8B500"
         offset=".415"
         id="stop6293" />
      <stop
         stop-color="#E8B500"
         offset="1"
         id="stop6295" />
    </linearGradient>
    <linearGradient
       id="ao"
       x1="129.196"
       gradientUnits="userSpaceOnUse"
       x2="195.465"
       gradientTransform="matrix(1,0,0,-1,8.3999,368.3)"
       y1="259.32199"
       y2="259.32199">
      <stop
         stop-color="#EDB800"
         offset="0"
         id="stop6300" />
      <stop
         stop-color="#E0AD00"
         offset=".415"
         id="stop6302" />
      <stop
         stop-color="#E0AD00"
         offset="1"
         id="stop6304" />
    </linearGradient>
    <linearGradient
       id="ap"
       x1="129.14799"
       gradientUnits="userSpaceOnUse"
       x2="195.422"
       gradientTransform="matrix(1,0,0,-1,8.3999,368.3)"
       y1="259.327"
       y2="259.327">
      <stop
         stop-color="#E9B300"
         offset="0"
         id="stop6309" />
      <stop
         stop-color="#D8A500"
         offset=".415"
         id="stop6311" />
      <stop
         stop-color="#D8A500"
         offset="1"
         id="stop6313" />
    </linearGradient>
    <linearGradient
       id="aq"
       x1="129.099"
       gradientUnits="userSpaceOnUse"
       x2="195.379"
       gradientTransform="matrix(1,0,0,-1,8.3999,368.3)"
       y1="259.332"
       y2="259.332">
      <stop
         stop-color="#E4AE00"
         offset="0"
         id="stop6318" />
      <stop
         stop-color="#D19E00"
         offset=".415"
         id="stop6320" />
      <stop
         stop-color="#D19E00"
         offset="1"
         id="stop6322" />
    </linearGradient>
    <linearGradient
       id="ar"
       x1="129.05099"
       gradientUnits="userSpaceOnUse"
       x2="195.338"
       gradientTransform="matrix(1,0,0,-1,8.3999,368.3)"
       y1="259.336"
       y2="259.336">
      <stop
         stop-color="#E0A900"
         offset="0"
         id="stop6327" />
      <stop
         stop-color="#C99600"
         offset=".415"
         id="stop6329" />
      <stop
         stop-color="#C99600"
         offset="1"
         id="stop6331" />
    </linearGradient>
    <linearGradient
       id="w"
       x1="129.00301"
       gradientUnits="userSpaceOnUse"
       x2="195.29601"
       gradientTransform="matrix(1,0,0,-1,8.3999,368.3)"
       y1="259.34"
       y2="259.34">
      <stop
         stop-color="#DCA400"
         offset="0"
         id="stop6336" />
      <stop
         stop-color="#C18E00"
         offset=".415"
         id="stop6338" />
      <stop
         stop-color="#C18E00"
         offset="1"
         id="stop6340" />
    </linearGradient>
    <linearGradient
       id="x"
       x1="128.95399"
       gradientUnits="userSpaceOnUse"
       x2="195.255"
       gradientTransform="matrix(1,0,0,-1,8.3999,368.3)"
       y1="259.34299"
       y2="259.34299">
      <stop
         stop-color="#D79F00"
         offset="0"
         id="stop6345" />
      <stop
         stop-color="#BA8700"
         offset=".415"
         id="stop6347" />
      <stop
         stop-color="#BA8700"
         offset="1"
         id="stop6349" />
    </linearGradient>
    <linearGradient
       id="y"
       x1="128.90601"
       gradientUnits="userSpaceOnUse"
       x2="195.216"
       gradientTransform="matrix(1,0,0,-1,8.3999,368.3)"
       y1="259.34799"
       y2="259.34799">
      <stop
         stop-color="#D39B00"
         offset="0"
         id="stop6354" />
      <stop
         stop-color="#B27F00"
         offset=".415"
         id="stop6356" />
      <stop
         stop-color="#B27F00"
         offset="1"
         id="stop6358" />
    </linearGradient>
    <linearGradient
       id="z"
       x1="128.85699"
       gradientUnits="userSpaceOnUse"
       x2="195.17599"
       gradientTransform="matrix(1,0,0,-1,8.3999,368.3)"
       y1="259.35001"
       y2="259.35001">
      <stop
         stop-color="#CF9600"
         offset="0"
         id="stop6363" />
      <stop
         stop-color="#a70"
         offset=".415"
         id="stop6365" />
      <stop
         stop-color="#a70"
         offset="1"
         id="stop6367" />
    </linearGradient>
    <linearGradient
       id="aa"
       x1="128.80901"
       gradientUnits="userSpaceOnUse"
       x2="195.13699"
       gradientTransform="matrix(1,0,0,-1,8.3999,368.3)"
       y1="259.354"
       y2="259.354">
      <stop
         stop-color="#CA9100"
         offset="0"
         id="stop6372" />
      <stop
         stop-color="#A37000"
         offset=".415"
         id="stop6374" />
      <stop
         stop-color="#A37000"
         offset="1"
         id="stop6376" />
    </linearGradient>
    <linearGradient
       id="ab"
       x1="128.75999"
       gradientUnits="userSpaceOnUse"
       x2="195.099"
       gradientTransform="matrix(1,0,0,-1,8.3999,368.3)"
       y1="259.35599"
       y2="259.35599">
      <stop
         stop-color="#C68C00"
         offset="0"
         id="stop6381" />
      <stop
         stop-color="#9B6800"
         offset=".415"
         id="stop6383" />
      <stop
         stop-color="#9B6800"
         offset="1"
         id="stop6385" />
    </linearGradient>
    <linearGradient
       id="ac"
       x1="128.71201"
       gradientUnits="userSpaceOnUse"
       x2="195.062"
       gradientTransform="matrix(1,0,0,-1,8.3999,368.3)"
       y1="259.358"
       y2="259.358">
      <stop
         stop-color="#C28700"
         offset="0"
         id="stop6390" />
      <stop
         stop-color="#936000"
         offset=".415"
         id="stop6392" />
      <stop
         stop-color="#936000"
         offset="1"
         id="stop6394" />
    </linearGradient>
    <linearGradient
       id="ad"
       x1="128.66299"
       gradientUnits="userSpaceOnUse"
       x2="195.02499"
       gradientTransform="matrix(1,0,0,-1,8.3999,368.3)"
       y1="259.35999"
       y2="259.35999">
      <stop
         stop-color="#BD8200"
         offset="0"
         id="stop6399" />
      <stop
         stop-color="#8C5900"
         offset=".415"
         id="stop6401" />
      <stop
         stop-color="#8C5900"
         offset="1"
         id="stop6403" />
    </linearGradient>
    <linearGradient
       id="ae"
       x1="128.61501"
       gradientUnits="userSpaceOnUse"
       x2="194.989"
       gradientTransform="matrix(1,0,0,-1,8.3999,368.3)"
       y1="259.362"
       y2="259.362">
      <stop
         stop-color="#B97D00"
         offset="0"
         id="stop6408" />
      <stop
         stop-color="#845100"
         offset=".415"
         id="stop6410" />
      <stop
         stop-color="#845100"
         offset="1"
         id="stop6412" />
    </linearGradient>
    <linearGradient
       id="af"
       x1="128.567"
       gradientUnits="userSpaceOnUse"
       x2="194.95399"
       gradientTransform="matrix(1,0,0,-1,8.3999,368.3)"
       y1="259.36401"
       y2="259.36401">
      <stop
         stop-color="#B57800"
         offset="0"
         id="stop6417" />
      <stop
         stop-color="#7C4900"
         offset=".415"
         id="stop6419" />
      <stop
         stop-color="#7C4900"
         offset="1"
         id="stop6421" />
    </linearGradient>
    <linearGradient
       id="ah"
       x1="128.51801"
       gradientUnits="userSpaceOnUse"
       x2="194.918"
       gradientTransform="matrix(1,0,0,-1,8.3999,368.3)"
       y1="259.366"
       y2="259.366">
      <stop
         stop-color="#B07300"
         offset="0"
         id="stop6426" />
      <stop
         stop-color="#754200"
         offset=".415"
         id="stop6428" />
      <stop
         stop-color="#754200"
         offset="1"
         id="stop6430" />
    </linearGradient>
    <linearGradient
       id="ai"
       x1="128.47"
       gradientUnits="userSpaceOnUse"
       x2="194.886"
       gradientTransform="matrix(1,0,0,-1,8.3999,368.3)"
       y1="259.367"
       y2="259.367">
      <stop
         stop-color="#AC6E00"
         offset="0"
         id="stop6435" />
      <stop
         stop-color="#6D3A00"
         offset=".415"
         id="stop6437" />
      <stop
         stop-color="#6D3A00"
         offset="1"
         id="stop6439" />
    </linearGradient>
    <linearGradient
       id="aj"
       x1="128.42101"
       gradientUnits="userSpaceOnUse"
       x2="194.85001"
       gradientTransform="matrix(1,0,0,-1,8.3999,368.3)"
       y1="259.36899"
       y2="259.36899">
      <stop
         stop-color="#A86A00"
         offset="0"
         id="stop6444" />
      <stop
         stop-color="#663200"
         offset=".415"
         id="stop6446" />
      <stop
         stop-color="#663200"
         offset="1"
         id="stop6448" />
    </linearGradient>
  </defs>
  <metadata
     id="metadata7">
    <rdf:RDF>
      <cc:Work
         rdf:about="">
        <dc:format>image/svg+xml</dc:format>
        <dc:type
           rdf:resource="http://purl.org/dc/dcmitype/StillImage" />
      </cc:Work>
    </rdf:RDF>
  </metadata>
  <g
     inkscape:groupmode="layer"
     id="g5948"
     inkscape:label="Dark"
     style="display:inline;opacity:1">
    <path
       style="color:#000000;stroke-linecap:round;-inkscape-stroke:none"
       d="m 36.267578,3.0566406 c -0.686898,0.1019465 -1.362301,0.366775 -1.978516,0.7148438 -1.232429,0.6961375 -2.295844,1.7436683 -2.9375,2.8535156 -2.730334,4.722558 -2.588303,10.119997 -1.519531,15.652344 -1.545147,0.560308 -3.040443,1.192442 -4.28125,2.123047 -4.787031,3.590273 -5.383693,10.02971 -2.18164,15.005859 3.110931,4.834541 8.557361,5.407963 11.867187,4.304687 0.08302,-0.02767 0.14816,-0.102488 0.230469,-0.132812 0.152777,0.760043 0.396382,1.564239 0.498047,2.300781 0.559067,4.050318 0.275056,7.675836 -1.603516,10.728516 -0.428754,0.696726 -1.293526,1.31209 -2.273437,1.636719 -0.979912,0.324629 -2.050341,0.348866 -2.820313,0.05469 -2.189033,-0.836352 -3.285365,-2.876328 -2.556641,-5.0625 0.826074,-2.478222 3.134187,-1.302703 4.395259,-1.408899 1.228647,-0.137466 2.1854,-0.774191 2.054134,-1.966781 -0.155824,-1.44485 -1.93955,-1.689967 -2.341971,-1.589164 0,0 -4.355372,0.970416 -5.529297,4.492188 -0.970947,2.912842 0.611538,5.855562 3.44336,6.9375 1.19937,0.458236 2.576598,0.381408 3.828125,-0.0332 1.251527,-0.414611 2.401986,-1.176666 3.078125,-2.275391 2.121424,-3.447314 3.149031,-7.390499 2.563801,-11.630362 -0.12956,-0.938631 -0.463613,-2.235341 -0.667241,-3.196078 1.639151,-0.950423 2.419668,-2.020524 3.388596,-3.689185 1.284511,-2.212148 1.800295,-4.86073 0.761719,-7.183594 C 40.77495,29.65674 38.648969,28.377835 36.359375,27.798834 35.118598,27.485062 34.196283,27.407592 32.955806,27.53033 32.548071,26.08565 32.309081,24.416972 32,23 32.769773,22.731922 33.091343,22.734432 33.871094,22.445318 36.623707,21.424714 40.679432,20.771937 42,18 43.219368,15.440489 44.185853,11.542413 44,9 43.814148,6.4575805 42.229326,4.8361955 39.505743,3.5835245 38.845187,3.2797119 36.954477,2.9546942 36.267578,3.0566406 Z m 0.36623,2.110906 c 0.45368,-0.070485 1.22883,-0.1189414 1.584022,0.044424 2.270938,1.0444837 2.637268,2.2001832 2.793889,4.3427168 0.156621,2.1425336 -0.544401,4.7195266 -1.689453,7.1230466 -1.052528,2.209307 -3.31855,3.377248 -5.972657,4.361328 -0.675287,0.250381 -1.005847,0.369879 -1.703162,0.607385 C 30.675029,16.426162 30.56608,13.209861 33,9 33.477535,8.1740262 34.268418,6.1599964 35.248315,5.606502 35.738263,5.3297547 36.180129,5.2380317 36.633808,5.1675466 Z M 30.128906,23.78125 c 0.310988,1.387202 0.607246,2.761507 1.003906,4.154297 -0.496119,0.140464 -1.044512,0.165891 -1.486328,0.402344 -1.163456,0.622663 -1.973788,1.803326 -2.408203,3.08789 -0.434414,1.284564 -0.505017,2.716528 0.0918,3.910156 0.589989,1.179979 1.703309,1.969655 2.646484,2.519532 0.943176,0.549876 1.765625,0.849609 1.765625,0.849609 0.389423,0.142826 1.837295,0.428572 1.979357,0.03887 0.142825,-0.389422 -1.074031,-1.306964 -1.463732,-1.449026 0,0 -0.706222,-0.25761 -1.527343,-0.736328 -0.821121,-0.478718 -1.707728,-1.188894 -2.060547,-1.894532 -0.345994,-0.691987 -0.34637,-1.762474 -0.0098,-2.757812 0.336604,-0.995338 0.998085,-1.872041 1.69336,-2.244141 0.329849,-0.17653 0.798623,-0.202367 1.197265,-0.3125 0.350175,1.177375 0.673276,2.360135 1.03711,3.527344 0.984461,3.158231 1.858102,6.218748 2.552734,9.191406 -0.130674,0.05293 -0.245521,0.176893 -0.376953,0.220703 -2.690168,0.896723 -6.329065,0.258847 -8.541823,-4.225642 -2.138142,-4.33327 -3.351362,-7.66949 -0.214572,-11.624122 0.761264,-0.959745 2.718244,-2.135664 4.121629,-2.658048 z m 3.457337,5.203125 c 0.968981,-0.06285 1.483574,-0.144163 2.403991,0.269531 1.825568,0.820526 2.65631,1.88335 3.156068,3.371322 0.733715,2.184554 1.591826,3.586138 0.480651,5.499772 -0.757698,1.304886 -1.413491,2.0238 -2.640817,2.835172 C 36.2836,38.057493 35.43723,35.374023 34.505667,32.385493 34.145936,31.231446 33.92589,30.133891 33.586243,28.984375 Z"
       id="path430"
       sodipodi:nodetypes="ssscssscssssscccssssscsssccsssssssssscsssccsssscccsscscsccsscccssscsc"
       class="theme_fill" />
  </g>
</svg>
