<?xml version="1.0" encoding="UTF-8" standalone="no"?>
<!-- Created with Inkscape (http://www.inkscape.org/) -->

<svg
   width="16"
   height="16"
   viewBox="0 0 32 32"
   id="svg2"
   version="1.1"
   inkscape:version="1.3 (0e150ed6c4, 2023-07-21)"
   sodipodi:docname="Configuration.svg"
   inkscape:export-filename="C:\private\traktor\res\icons-new\g4486.png"
   inkscape:export-xdpi="90"
   inkscape:export-ydpi="90"
   xmlns:inkscape="http://www.inkscape.org/namespaces/inkscape"
   xmlns:sodipodi="http://sodipodi.sourceforge.net/DTD/sodipodi-0.dtd"
   xmlns="http://www.w3.org/2000/svg"
   xmlns:svg="http://www.w3.org/2000/svg"
   xmlns:rdf="http://www.w3.org/1999/02/22-rdf-syntax-ns#"
   xmlns:cc="http://creativecommons.org/ns#"
   xmlns:dc="http://purl.org/dc/elements/1.1/">
  <sodipodi:namedview
     id="base"
     pagecolor="#4d6571"
     bordercolor="#ffffff"
     borderopacity="1"
     inkscape:pageopacity="0"
     inkscape:pageshadow="2"
     inkscape:zoom="2.828427"
     inkscape:cx="41.188972"
     inkscape:cy="0.35355341"
     inkscape:document-units="px"
     inkscape:current-layer="Dark"
     showgrid="true"
     inkscape:snap-global="true"
     inkscape:snap-grids="true"
     inkscape:snap-to-guides="false"
     inkscape:window-width="1440"
     inkscape:window-height="777"
     inkscape:window-x="0"
     inkscape:window-y="0"
     inkscape:window-maximized="1"
     units="px"
     inkscape:showpageshadow="false"
     showborder="true"
     objecttolerance="10000"
     guidetolerance="10000"
     showguides="true"
     inkscape:pagecheckerboard="0"
     inkscape:deskcolor="#2f3e46">
    <inkscape:grid
       type="xygrid"
       id="grid4490"
       empspacing="32"
       snapvisiblegridlinesonly="false"
       originx="0"
       originy="0"
       spacingy="1"
       spacingx="1"
       units="px"
       visible="true" />
  </sodipodi:namedview>
  <defs
     id="defs4" />
  <metadata
     id="metadata7">
    <rdf:RDF>
      <cc:Work
         rdf:about="">
        <dc:format>image/svg+xml</dc:format>
        <dc:type
           rdf:resource="http://purl.org/dc/dcmitype/StillImage" />
      </cc:Work>
    </rdf:RDF>
  </metadata>
  <g
     style="display:inline;opacity:1"
     inkscape:label="Dark"
     id="Dark"
     inkscape:groupmode="layer">
    <path
       inkscape:connector-curvature="0"
       id="path166335-4-4"
       d="m 9.259775,19.489021 c -0.0821,-0.189 -0.15104,-0.7482 -0.15315,-1.2426 l -0.004,-0.899 -0.77569,-0.1948 c -0.42663,-0.1072 -0.80196,-0.1948 -0.83406,-0.1948 -0.0321,0 -0.12642,0.2062 -0.2096,0.4582 -0.0832,0.252 -0.37318,0.699 -0.64445,0.9933 l -0.49323,0.5351 -0.43999,-0.2098 c -0.43711,-0.2084 -0.43946,-0.2139 -0.35842,-0.8371 0.0547,-0.4203 0.20305,-0.7795 0.44976,-1.0886 0.2025,-0.2538 0.36818,-0.5093 0.36818,-0.5678 0,-0.058 -0.25185,-0.3534 -0.55966,-0.6555 l -0.55965,-0.5493 -0.54473,0.3912 c -0.35016,0.2515 -0.7661,0.4206 -1.1645,0.4734 -0.58439,0.077 -0.6284,0.063 -0.77062,-0.2488 -0.083,-0.1821 -0.15084,-0.4063 -0.15084,-0.4982 0,-0.2576 0.91388,-1.0233 1.42116,-1.1907 0.24961,-0.082 0.45384,-0.1761 0.45384,-0.2082 0,-0.032 -0.0885,-0.4107 -0.19669,-0.8413 l -0.19668,-0.783 -0.70957,0.047 c -0.41671,0.028 -0.91592,-0.026 -1.20956,-0.1303 -0.46442,-0.1649 -0.5,-0.2114 -0.5,-0.6524 0,-0.4411 0.0356,-0.4875 0.5,-0.6524 0.29364,-0.1043 0.79285,-0.1581 1.20956,-0.1303 l 0.70957,0.047 0.19668,-0.7829997 c 0.10818,-0.4307 0.19669,-0.8093 0.19669,-0.8414 0,-0.032 -0.20423,-0.1257 -0.45384,-0.2081 -0.50728,-0.1674 -1.42116,-0.9332 -1.42116,-1.1908 0,-0.092 0.0679,-0.316 0.15084,-0.4981 0.14222,-0.3122 0.18623,-0.3264 0.77062,-0.2489 0.3984,0.053 0.81434,0.222 1.1645,0.4734 l 0.54473,0.3912 0.55965,-0.5492 c 0.30781,-0.3021 0.55966,-0.5998 0.55966,-0.6615 0,-0.062 -0.16547,-0.3212 -0.36772,-0.5765 -0.24225,-0.3059 -0.39571,-0.6753 -0.44976,-1.0828 -0.0814,-0.6133 -0.0784,-0.6202 0.35796,-0.8283 l 0.43999,-0.2098 0.49323,0.5351 c 0.27127,0.2943 0.56128,0.7413 0.64445,0.9933 0.0832,0.2521 0.1775,0.4583 0.2096,0.4583 0.0321,0 0.41567,-0.09 0.85237,-0.1995 l 0.794,-0.1994 -0.0592,-0.7068 c -0.0369,-0.4397 0.008,-0.8958 0.11856,-1.2068 0.16317,-0.4589 0.21899,-0.5031 0.67916,-0.5376 0.49722,-0.037 0.50268,-0.033 0.66003,0.5292 0.0873,0.3116 0.1333,0.8726 0.10229,1.2465 l -0.0564,0.6799 0.78517,0.1972 c 0.43184,0.1085 0.80815,0.1973 0.83624,0.1973 0.0281,0 0.14638,-0.2496 0.26286,-0.5546 0.11649,-0.305 0.43233,-0.7538 0.70188,-0.9973 l 0.49009,-0.4428 0.42185,0.2489 0.42185,0.2489 -0.13799,0.6042 c -0.0759,0.3322 -0.30202,0.8402 -0.50248,1.1288 l -0.36449,0.5247 0.54676,0.5571 c 0.30072,0.3064 0.5946,0.5571 0.65307,0.5571 0.0585,0 0.31394,-0.1657 0.56772,-0.3682 0.31158,-0.2486 0.66438,-0.3935 1.08642,-0.4463 0.60657,-0.076 0.63162,-0.066 0.84948,0.3258 l 0.22448,0.4039 -0.46758,0.4788 c -0.25718,0.2634 -0.70976,0.5714 -1.00573,0.6844 -0.29598,0.1131 -0.53815,0.2309 -0.53815,0.2618 0,0.031 0.0937,0.4079 0.20822,0.8377 l 0.20822,0.7813997 0.59406,-0.057 c 0.32673,-0.031 0.8799,0.012 1.22928,0.095 l 0.63522,0.1524 v 0.5376 0.5375 l -0.63522,0.1524 c -0.34938,0.084 -0.90255,0.1267 -1.22928,0.095 l -0.59406,-0.057 -0.20822,0.7814 c -0.11452,0.4298 -0.20822,0.8067 -0.20822,0.8377 0,0.031 0.24217,0.1487 0.53815,0.2617 0.29597,0.1131 0.74855,0.421 1.00573,0.6844 l 0.46758,0.4788 -0.22448,0.4039 c -0.21786,0.392 -0.24291,0.4016 -0.84948,0.3258 -0.42204,-0.053 -0.77484,-0.1976 -1.08642,-0.4462 -0.25378,-0.2025 -0.50926,-0.3682 -0.56772,-0.3682 -0.0585,0 -0.35235,0.2507 -0.65307,0.5571 l -0.54676,0.5571 0.36449,0.5247 c 0.20046,0.2885 0.42658,0.7965 0.50248,1.1288 l 0.13799,0.6041 -0.42185,0.2489 -0.42185,0.2489 -0.49009,-0.4428 c -0.26955,-0.2435 -0.58539,-0.6923 -0.70188,-0.9973 -0.11648,-0.305 -0.23477,-0.5545 -0.26286,-0.5545 -0.0281,0 -0.4044,0.089 -0.83624,0.1972 l -0.78517,0.1972 0.0564,0.6799 c 0.031,0.3739 -0.0142,0.9321 -0.10052,1.2403 -0.15149,0.5411 -0.17368,0.5604 -0.64375,0.5604 -0.41157,0 -0.50993,-0.053 -0.63617,-0.3438 z m 2.35618,-4.6534 c 1.34778,-0.6635 2.10737,-1.9028 2.11021,-3.443 10e-4,-0.7412 -0.0621,-1.0071 -0.40866,-1.7109997 -0.69259,-1.4068 -1.91168,-2.1625 -3.47736,-2.1555 -2.18222,0.01 -3.84542,1.6814 -3.84977,3.8691997 -0.006,2.9331 2.9652,4.75 5.62558,3.4403 z"
       style="display:inline;opacity:1;fill:#c7c7c7;fill-opacity:1;stroke:none;stroke-width:0.25;stroke-linecap:butt;stroke-linejoin:round;stroke-miterlimit:4;stroke-dasharray:none;stroke-opacity:1" />
    <path
       inkscape:connector-curvature="0"
       id="path166335-5-7-6"
       d="m 21.492015,28.688321 c -0.0821,-0.189 -0.15105,-0.7482 -0.15316,-1.2426 l -0.004,-0.899 -0.77569,-0.1948 c -0.42663,-0.1072 -0.80195,-0.1948 -0.83406,-0.1948 -0.0321,0 -0.12641,0.2062 -0.20959,0.4582 -0.0832,0.252 -0.37319,0.699 -0.64446,0.9933 l -0.49323,0.5351 -0.43999,-0.2098 c -0.43711,-0.2084 -0.43946,-0.2139 -0.35841,-0.8371 0.0547,-0.4203 0.20304,-0.7795 0.44975,-1.0886 0.2025,-0.2538 0.36818,-0.5093 0.36818,-0.5678 0,-0.058 -0.25184,-0.3534 -0.55965,-0.6555 l -0.55966,-0.5493 -0.54473,0.3912 c -0.35015,0.2515 -0.7661,0.4206 -1.1645,0.4734 -0.58438,0.077 -0.6284,0.063 -0.77062,-0.2488 -0.083,-0.1821 -0.15084,-0.4063 -0.15084,-0.4982 0,-0.2576 0.91388,-1.0233 1.42116,-1.1907 0.24961,-0.082 0.45384,-0.1761 0.45384,-0.2082 0,-0.032 -0.0885,-0.4107 -0.19668,-0.8413 l -0.19669,-0.783 -0.70956,0.047 c -0.41672,0.028 -0.91593,-0.026 -1.20957,-0.1303 -0.46442,-0.1649 -0.5,-0.2114 -0.5,-0.6524 0,-0.4411 0.0356,-0.4875 0.5,-0.6524 0.29364,-0.1043 0.79285,-0.1581 1.20957,-0.1303 l 0.70956,0.047 0.19669,-0.783 c 0.10817,-0.4307 0.19668,-0.8093 0.19668,-0.8414 0,-0.032 -0.20423,-0.1257 -0.45384,-0.2081 -0.50728,-0.1674 -1.42116,-0.9332 -1.42116,-1.1908 0,-0.092 0.0679,-0.316 0.15084,-0.4981 0.14222,-0.3122 0.18624,-0.3264 0.77062,-0.2489 0.3984,0.053 0.81435,0.222 1.1645,0.4734 l 0.54473,0.3912 0.55966,-0.5492 c 0.30781,-0.3021 0.55965,-0.5998 0.55965,-0.6615 0,-0.062 -0.16547,-0.3212 -0.36772,-0.5765 -0.24225,-0.3059 -0.3957,-0.6753 -0.44975,-1.0828 -0.0814,-0.6133 -0.0784,-0.6202 0.35795,-0.8283 l 0.43999,-0.2098 0.49323,0.5351 c 0.27127,0.2943 0.56128,0.7413 0.64446,0.9933 0.0832,0.2521 0.17749,0.4583 0.20959,0.4583 0.0321,0 0.41567,-0.09 0.85237,-0.1995 l 0.79401,-0.1994 -0.0592,-0.7068 c -0.0369,-0.4397 0.008,-0.8958 0.11855,-1.2068 0.16317,-0.4589 0.219,-0.5031 0.67916,-0.5376 0.49722,-0.037 0.50269,-0.033 0.66004,0.5292 0.0873,0.3116 0.13329,0.8726 0.10228,1.2465 l -0.0564,0.6799 0.78517,0.1972 c 0.43184,0.1085 0.80815,0.1973 0.83624,0.1973 0.0281,0 0.14638,-0.2496 0.26287,-0.5546 0.11648,-0.305 0.43232,-0.7538 0.70187,-0.9973 l 0.4901,-0.4428 0.42185,0.2489 0.42185,0.2489 -0.138,0.6042 c -0.0759,0.3322 -0.30201,0.8402 -0.50248,1.1288 l -0.36449,0.5247 0.54677,0.5571 c 0.30072,0.3064 0.5946,0.5571 0.65306,0.5571 0.0585,0 0.31394,-0.1657 0.56773,-0.3682 0.31157,-0.2486 0.66438,-0.3935 1.08642,-0.4463 0.60657,-0.076 0.63161,-0.066 0.84947,0.3258 l 0.22448,0.4039 -0.46758,0.4788 c -0.25717,0.2634 -0.70975,0.5714 -1.00573,0.6844 -0.29598,0.1131 -0.53814,0.2309 -0.53814,0.2618 0,0.031 0.0937,0.4079 0.20822,0.8377 l 0.20822,0.7814 0.59405,-0.057 c 0.32673,-0.031 0.8799,0.012 1.22928,0.095 l 0.63523,0.1524 v 0.5376 0.5375 l -0.63523,0.1524 c -0.34938,0.084 -0.90255,0.1267 -1.22928,0.095 l -0.59405,-0.057 -0.20822,0.7814 c -0.11452,0.4298 -0.20822,0.8067 -0.20822,0.8377 0,0.031 0.24216,0.1487 0.53814,0.2617 0.29598,0.1131 0.74856,0.421 1.00573,0.6844 l 0.46758,0.4788 -0.22448,0.4039 c -0.21786,0.392 -0.2429,0.4016 -0.84947,0.3258 -0.42204,-0.053 -0.77485,-0.1976 -1.08642,-0.4462 -0.25379,-0.2025 -0.50926,-0.3682 -0.56773,-0.3682 -0.0585,0 -0.35235,0.2507 -0.65306,0.5571 l -0.54677,0.5571 0.36449,0.5247 c 0.20047,0.2885 0.42658,0.7965 0.50248,1.1288 l 0.138,0.6041 -0.42185,0.2489 -0.42185,0.2489 -0.4901,-0.4428 c -0.26955,-0.2435 -0.58539,-0.6923 -0.70187,-0.9973 -0.11649,-0.305 -0.23477,-0.5545 -0.26287,-0.5545 -0.0281,0 -0.4044,0.089 -0.83624,0.1972 l -0.78517,0.1972 0.0564,0.6799 c 0.031,0.3739 -0.0142,0.9321 -0.10052,1.2403 -0.15149,0.5411 -0.17368,0.5604 -0.64374,0.5604 -0.41158,0 -0.50994,-0.053 -0.63617,-0.3438 z m 2.35618,-4.6534 c 1.34777,-0.6635 2.10736,-1.9028 2.1102,-3.443 0.001,-0.7412 -0.0621,-1.0071 -0.40866,-1.711 -0.69259,-1.4068 -1.91168,-2.1625 -3.47736,-2.1555 -2.18222,0.01 -3.84542,1.6814 -3.84977,3.8692 -0.006,2.9331 2.9652,4.75 5.62559,3.4403 z"
       style="display:inline;opacity:1;fill:#c7c7c7;fill-opacity:1;stroke:none;stroke-width:0.25;stroke-linecap:butt;stroke-linejoin:round;stroke-miterlimit:4;stroke-dasharray:none;stroke-opacity:1" />
    <circle
       r="2"
       cy="20.581726"
       cx="22.122169"
       id="path166352-4-0"
       style="display:inline;opacity:1;fill:#c7c7c7;fill-opacity:1;stroke:none;stroke-width:2;stroke-linecap:butt;stroke-linejoin:round;stroke-miterlimit:4;stroke-dasharray:none;stroke-opacity:1" />
    <circle
       r="2"
       cy="11.404969"
       cx="9.8570023"
       id="path166352-0-6-0"
       style="display:inline;opacity:1;fill:#c7c7c7;fill-opacity:1;stroke:none;stroke-width:2;stroke-linecap:butt;stroke-linejoin:round;stroke-miterlimit:4;stroke-dasharray:none;stroke-opacity:1" />
  </g>
</svg>
