<?xml version="1.0" encoding="utf-8"?>
<svg width="20" height="20" viewBox="0 0 32 32" id="svg2" version="1.1" inkscape:version="1.3 (0e150ed6c4, 2023-07-21)" sodipodi:docname="LayerVisible.svg" inkscape:export-filename="C:\private\traktor\res\icons-new\g4486.png" inkscape:export-xdpi="90" inkscape:export-ydpi="90" xmlns:inkscape="http://www.inkscape.org/namespaces/inkscape" xmlns:sodipodi="http://sodipodi.sourceforge.net/DTD/sodipodi-0.dtd" xmlns="http://www.w3.org/2000/svg" xmlns:svg="http://www.w3.org/2000/svg" xmlns:rdf="http://www.w3.org/1999/02/22-rdf-syntax-ns#" xmlns:cc="http://creativecommons.org/ns#" xmlns:dc="http://purl.org/dc/elements/1.1/">
	<style>
	.theme_fill {
		fill: green;
	}
	.theme_stroke {
		stroke: green;
	}
	</style>
	<sodipodi:namedview id="base" pagecolor="#4d6571" bordercolor="#ffffff" borderopacity="1" inkscape:pageopacity="0" inkscape:pageshadow="2" inkscape:zoom="3.9999998" inkscape:cx="66.000003" inkscape:cy="38.250002" inkscape:document-units="px" inkscape:current-layer="Dark" showgrid="true" inkscape:snap-global="true" inkscape:snap-grids="true" inkscape:snap-to-guides="false" inkscape:window-width="2109" inkscape:window-height="1312" inkscape:window-x="435" inkscape:window-y="35" inkscape:window-maximized="0" units="px" inkscape:showpageshadow="false" showborder="true" objecttolerance="10000" guidetolerance="10000" showguides="true" inkscape:document-rotation="0" inkscape:pagecheckerboard="0" inkscape:deskcolor="#364750">
		<inkscape:grid type="xygrid" id="grid4490" empspacing="16" snapvisiblegridlinesonly="false" originx="0" originy="0" spacingy="1" spacingx="1" units="px" visible="true"/>
	</sodipodi:namedview>
	<defs id="defs4"/>
	<metadata id="metadata7">
		<rdf:RDF>
			<cc:Work rdf:about="">
				<dc:format>image/svg+xml</dc:format>
				<dc:type rdf:resource="http://purl.org/dc/dcmitype/StillImage"/>
			</cc:Work>
		</rdf:RDF>
	</metadata>
	<g inkscape:groupmode="layer" id="Light" inkscape:label="Light" style="display:inline">
		<g id="g4659" transform="matrix(1.2490148,0,0,1.2490148,65.111972,382.23496)" style="display:inline;opacity:1">
			<path id="path3015" display="none" d="m 168.3096,27.15381 c 0,0.383301 -0.13184,0.705078 -0.39355,0.966309 -0.25782,0.260742 -0.58008,0.392089 -0.96094,0.392089 -0.38672,0 -0.70703,-0.126464 -0.96094,-0.381347 -0.25488,-0.254883 -0.38184,-0.578125 -0.38184,-0.964844 0,-0.383301 0.13086,-0.706055 0.38965,-0.966309 0.25684,-0.263672 0.57813,-0.393554 0.96289,-0.393554 0.37696,0 0.69434,0.125 0.94922,0.375 0.2617,0.25683 0.3955,0.58202 0.3955,0.97265 m -0.1621,0.0083 c 0,-0.345215 -0.11426,-0.631348 -0.34668,-0.863282 -0.22754,-0.229004 -0.50879,-0.341797 -0.83984,-0.341797 -0.34277,0 -0.62598,0.11377 -0.85059,0.345704 -0.22656,0.233398 -0.33789,0.517089 -0.33789,0.859375 0,0.345703 0.11524,0.635742 0.34863,0.866699 0.2295,0.229004 0.50782,0.345215 0.83985,0.345215 0.32812,0 0.6084,-0.116211 0.83789,-0.347168 0.2344,-0.23289 0.3487,-0.52098 0.3487,-0.86473 m -0.5352,0.85107 h -0.28906 l -0.18848,-0.416993 c -0.0937,-0.210449 -0.19434,-0.314453 -0.30664,-0.314453 h -0.15723 v 0.731446 h -0.23828 v -1.740234 h 0.48242 c 0.21192,0 0.37403,0.04883 0.48438,0.145019 0.0937,0.08496 0.14062,0.193848 0.14062,0.330078 0,0.118652 -0.04,0.21875 -0.11425,0.303711 -0.0742,0.08545 -0.18262,0.14209 -0.32032,0.17041 v 0.0068 c 0.0947,0.02197 0.18946,0.128906 0.28418,0.320801 l 0.2227,0.46336 z m -0.3281,-1.2373 c 0,-0.101075 -0.0283,-0.170899 -0.084,-0.216797 -0.0605,-0.05127 -0.16699,-0.07617 -0.31738,-0.07617 h -0.21191 v 0.594238 h 0.25976 c 0.2324,0 0.3535,-0.10108 0.3535,-0.30127" inkscape:connector-curvature="0" style="display:none;fill:#9d9fa2"/>
			<g id="g5880" transform="translate(-180.70008,-213.48048)">
				<path transform="translate(-66.750342,-287.69374)" sodipodi:nodetypes="ccc" inkscape:connector-curvature="0" id="path4879" d="m 196.875,206.375 c 6.25744,-2.65642 12.13867,-3.98001 18.5625,-0.8125 2.04409,1.18459 2.90349,0.39471 4,0" style="display:inline;fill:none;fill-rule:evenodd;stroke:#000000;stroke-width:2;stroke-linecap:butt;stroke-linejoin:miter;stroke-miterlimit:4;stroke-dasharray:none;stroke-opacity:1"/>
				<circle transform="translate(-66.750342,-287.69374)" r="4" cy="208.0625" cx="208.1875" id="path4881" style="display:inline;fill:none;fill-rule:evenodd;stroke:#000000;stroke-width:2;stroke-linecap:butt;stroke-linejoin:miter;stroke-miterlimit:4;stroke-dasharray:none;stroke-opacity:1"/>
				<circle r="1.5811388" cy="-79.631241" cx="141.43716" id="path5872" style="fill:#000000;fill-opacity:1;stroke:none;stroke-width:2;stroke-linecap:butt;stroke-linejoin:miter;stroke-miterlimit:4;stroke-dasharray:none;stroke-opacity:1"/>
				<path sodipodi:nodetypes="cc" inkscape:connector-curvature="0" id="path5875" d="m 133.24966,-76.25624 c 5.09011,1.621518 10.40997,1.711317 16,0" style="fill:none;fill-rule:evenodd;stroke:#000000;stroke-width:1px;stroke-linecap:butt;stroke-linejoin:miter;stroke-opacity:1"/>
			</g>
		</g>
	</g>
	<g style="display:inline;opacity:1" inkscape:label="Dark" id="Dark" inkscape:groupmode="layer">
		<g style="display:inline;opacity:1" transform="matrix(1.2490146,0,0,1.2490146,79.55392,395.65905)" id="g6155">
			<path style="display:none;fill:#9d9fa2" inkscape:connector-curvature="0" d="m 168.3096,27.15381 c 0,0.383301 -0.13184,0.705078 -0.39355,0.966309 -0.25782,0.260742 -0.58008,0.392089 -0.96094,0.392089 -0.38672,0 -0.70703,-0.126464 -0.96094,-0.381347 -0.25488,-0.254883 -0.38184,-0.578125 -0.38184,-0.964844 0,-0.383301 0.13086,-0.706055 0.38965,-0.966309 0.25684,-0.263672 0.57813,-0.393554 0.96289,-0.393554 0.37696,0 0.69434,0.125 0.94922,0.375 0.2617,0.25683 0.3955,0.58202 0.3955,0.97265 m -0.1621,0.0083 c 0,-0.345215 -0.11426,-0.631348 -0.34668,-0.863282 -0.22754,-0.229004 -0.50879,-0.341797 -0.83984,-0.341797 -0.34277,0 -0.62598,0.11377 -0.85059,0.345704 -0.22656,0.233398 -0.33789,0.517089 -0.33789,0.859375 0,0.345703 0.11524,0.635742 0.34863,0.866699 0.2295,0.229004 0.50782,0.345215 0.83985,0.345215 0.32812,0 0.6084,-0.116211 0.83789,-0.347168 0.2344,-0.23289 0.3487,-0.52098 0.3487,-0.86473 m -0.5352,0.85107 h -0.28906 l -0.18848,-0.416993 c -0.0937,-0.210449 -0.19434,-0.314453 -0.30664,-0.314453 h -0.15723 v 0.731446 h -0.23828 v -1.740234 h 0.48242 c 0.21192,0 0.37403,0.04883 0.48438,0.145019 0.0937,0.08496 0.14062,0.193848 0.14062,0.330078 0,0.118652 -0.04,0.21875 -0.11425,0.303711 -0.0742,0.08545 -0.18262,0.14209 -0.32032,0.17041 v 0.0068 c 0.0947,0.02197 0.18946,0.128906 0.28418,0.320801 l 0.2227,0.46336 z m -0.3281,-1.2373 c 0,-0.101075 -0.0283,-0.170899 -0.084,-0.216797 -0.0605,-0.05127 -0.16699,-0.07617 -0.31738,-0.07617 h -0.21191 v 0.594238 h 0.25976 c 0.2324,0 0.3535,-0.10108 0.3535,-0.30127" display="none" id="path6157"/>
			<g transform="translate(-192.26348,-224.23288)" id="g8170">
				<path style="display:inline;fill:none;fill-rule:evenodd;stroke:#ffffff;stroke-width:2;stroke-linecap:butt;stroke-linejoin:miter;stroke-miterlimit:4;stroke-dasharray:none;stroke-opacity:1" d="m 196.875,206.375 c 6.25744,-2.65642 12.13867,-3.98001 18.5625,-0.8125 2.04409,1.18459 2.90349,0.39471 4,0" id="path8172" inkscape:connector-curvature="0" sodipodi:nodetypes="ccc" transform="translate(-66.750342,-287.69374)"/>
				<circle style="display:inline;fill:none;fill-rule:evenodd;stroke:#ffffff;stroke-width:2;stroke-linecap:butt;stroke-linejoin:miter;stroke-miterlimit:4;stroke-dasharray:none;stroke-opacity:1" id="circle8174" cx="208.1875" cy="208.0625" r="4" transform="translate(-66.750342,-287.69374)"/>
				<circle style="fill:#ffffff;fill-opacity:1;stroke:none;stroke-width:2;stroke-linecap:butt;stroke-linejoin:miter;stroke-miterlimit:4;stroke-dasharray:none;stroke-opacity:1" id="circle8176" cx="141.43716" cy="-79.631241" r="1.5811388"/>
				<path style="fill:none;fill-rule:evenodd;stroke:#ffffff;stroke-width:1px;stroke-linecap:butt;stroke-linejoin:miter;stroke-opacity:1" d="m 133.24966,-76.25624 c 5.09011,1.621518 10.40997,1.711317 16,0" id="path8178" inkscape:connector-curvature="0" sodipodi:nodetypes="cc"/>
			</g>
		</g>
	</g>
</svg>
