<?xml version="1.0" encoding="UTF-8" standalone="no"?>
<!-- Created with Inkscape (http://www.inkscape.org/) -->

<svg
   width="32"
   height="32"
   viewBox="0 0 32 32"
   id="svg2"
   version="1.1"
   inkscape:version="1.3 (0e150ed6c4, 2023-07-21)"
   sodipodi:docname="SequenceGrain.svg"
   inkscape:export-filename="C:\private\traktor\res\icons-new\g4486.png"
   inkscape:export-xdpi="90"
   inkscape:export-ydpi="90"
   xmlns:inkscape="http://www.inkscape.org/namespaces/inkscape"
   xmlns:sodipodi="http://sodipodi.sourceforge.net/DTD/sodipodi-0.dtd"
   xmlns="http://www.w3.org/2000/svg"
   xmlns:svg="http://www.w3.org/2000/svg"
   xmlns:rdf="http://www.w3.org/1999/02/22-rdf-syntax-ns#"
   xmlns:cc="http://creativecommons.org/ns#"
   xmlns:dc="http://purl.org/dc/elements/1.1/">
  <sodipodi:namedview
     id="base"
     pagecolor="#4d6571"
     bordercolor="#ffffff"
     borderopacity="1"
     inkscape:pageopacity="0"
     inkscape:pageshadow="2"
     inkscape:zoom="2.828427"
     inkscape:cx="61.518293"
     inkscape:cy="89.802566"
     inkscape:document-units="px"
     inkscape:current-layer="Common"
     showgrid="true"
     inkscape:snap-global="true"
     inkscape:snap-grids="true"
     inkscape:snap-to-guides="false"
     inkscape:window-width="1440"
     inkscape:window-height="777"
     inkscape:window-x="0"
     inkscape:window-y="0"
     inkscape:window-maximized="1"
     units="px"
     inkscape:showpageshadow="false"
     showborder="true"
     objecttolerance="10000"
     guidetolerance="10000"
     showguides="true"
     inkscape:pagecheckerboard="0"
     inkscape:deskcolor="#314048">
    <inkscape:grid
       type="xygrid"
       id="grid4490"
       empspacing="16"
       snapvisiblegridlinesonly="false"
       originx="0"
       originy="0"
       spacingy="1"
       spacingx="1"
       units="px"
       visible="true" />
  </sodipodi:namedview>
  <defs
     id="defs4" />
  <metadata
     id="metadata7">
    <rdf:RDF>
      <cc:Work
         rdf:about="">
        <dc:format>image/svg+xml</dc:format>
        <dc:type
           rdf:resource="http://purl.org/dc/dcmitype/StillImage" />
      </cc:Work>
    </rdf:RDF>
  </metadata>
  <g
     inkscape:groupmode="layer"
     id="Common"
     inkscape:label="Common"
     style="display:inline;opacity:1">
    <path
       style="font-size:16.25px;line-height:1.25;font-family:'Segoe UI';-inkscape-font-specification:'Segoe UI';letter-spacing:0px;word-spacing:0px;stroke-width:1px"
       d="M 8.2994995,21.716858 H 6.99823 v -9.830933 q -0.1507569,0.150757 -0.444336,0.349121 -0.2856445,0.19043 -0.6506347,0.38086 -0.3570557,0.190429 -0.7617188,0.357055 -0.3967285,0.166626 -0.7775879,0.261841 v -1.317138 q 0.4284668,-0.119019 0.9045411,-0.317383 0.4840087,-0.206299 0.9442138,-0.452271 0.4681397,-0.253906 0.8807373,-0.523681 0.4125977,-0.27771 0.7141114,-0.539551 h 0.4919433 z m 9.1406255,-8.394775 q 0,-0.523682 -0.166626,-0.912476 -0.158692,-0.388794 -0.444336,-0.6427 -0.27771,-0.261841 -0.65857,-0.388794 -0.380859,-0.126953 -0.825195,-0.126953 -0.380859,0 -0.74585,0.103149 -0.36499,0.103149 -0.714111,0.285645 -0.341187,0.182495 -0.666504,0.436401 -0.317383,0.253906 -0.595093,0.563354 v -1.396484 q 0.547486,-0.531616 1.221924,-0.809326 0.682373,-0.285645 1.658325,-0.285645 0.698243,0 1.293335,0.206299 0.595093,0.198364 1.031494,0.587158 0.436402,0.388794 0.682374,0.960083 0.253906,0.571289 0.253906,1.309205 0,0.674438 -0.158692,1.221923 -0.150756,0.547486 -0.468139,1.031495 -0.309449,0.484008 -0.785523,0.928344 -0.476074,0.444336 -1.118774,0.904541 -0.801392,0.571289 -1.325073,0.975952 -0.515747,0.404663 -0.825196,0.761719 -0.301513,0.349121 -0.428467,0.706177 -0.119018,0.349121 -0.119018,0.809326 h 5.665283 v 1.166382 h -7.022095 v -0.563355 q 0,-0.72998 0.158692,-1.2854 0.158691,-0.55542 0.523681,-1.055298 0.364991,-0.499878 0.952149,-0.999756 0.595093,-0.499878 1.452026,-1.126709 0.618897,-0.444336 1.031494,-0.848999 0.420533,-0.404663 0.674439,-0.809326 0.253906,-0.404663 0.357056,-0.817261 0.111084,-0.420532 0.111084,-0.888671 z m 10.195922,5.173339 q 0,0.769654 -0.293579,1.404419 -0.285644,0.626831 -0.81726,1.079102 -0.523682,0.444336 -1.261597,0.690307 -0.737915,0.245972 -1.626587,0.245972 -1.626587,0 -2.58667,-0.618896 v -1.396485 q 1.150513,0.904541 2.634277,0.904541 0.595093,0 1.071167,-0.150757 0.484009,-0.150756 0.825196,-0.436401 0.349121,-0.285644 0.531616,-0.690307 0.19043,-0.404664 0.19043,-0.912476 0,-2.229614 -3.173829,-2.229614 h -0.944213 v -1.102906 h 0.896606 q 2.808838,0 2.808838,-2.094726 0,-1.936035 -2.142334,-1.936035 -1.206055,0 -2.261353,0.809326 v -1.261597 q 1.087037,-0.650635 2.58667,-0.650635 0.714112,0 1.293335,0.198365 0.579224,0.198364 0.991822,0.55542 0.412597,0.357055 0.634765,0.856933 0.230103,0.499878 0.230103,1.102905 0,2.245484 -2.269287,2.888184 v 0.03174 q 0.579223,0.06348 1.071167,0.285645 0.491943,0.214233 0.848999,0.563354 0.357055,0.349121 0.55542,0.825196 0.206298,0.468139 0.206298,1.039428 z"
       id="text15"
       aria-label="123" />
  </g>
</svg>
