<?xml version="1.0" encoding="utf-8"?>
<svg inkscape:export-ydpi="90" inkscape:export-xdpi="90" inkscape:export-filename="C:\private\traktor\res\icons-new\g4486.png" sodipodi:docname="Blender.svg" inkscape:version="1.3 (0e150ed6c4, 2023-07-21)" version="1.1" id="svg2" viewBox="0 0 32 32" height="16" width="16" xmlns:inkscape="http://www.inkscape.org/namespaces/inkscape" xmlns:sodipodi="http://sodipodi.sourceforge.net/DTD/sodipodi-0.dtd" xmlns="http://www.w3.org/2000/svg" xmlns:svg="http://www.w3.org/2000/svg" xmlns:rdf="http://www.w3.org/1999/02/22-rdf-syntax-ns#" xmlns:cc="http://creativecommons.org/ns#" xmlns:dc="http://purl.org/dc/elements/1.1/">
	<style>
	.theme_fill {
		fill: green;
	}
	.theme_stroke {
		stroke: green;
	}
	</style>
	<sodipodi:namedview inkscape:document-rotation="0" showguides="true" guidetolerance="10000" objecttolerance="10000" showborder="true" inkscape:showpageshadow="false" units="px" inkscape:window-maximized="0" inkscape:window-y="199" inkscape:window-x="437" inkscape:window-height="1198" inkscape:window-width="2278" inkscape:snap-to-guides="false" inkscape:snap-grids="true" inkscape:snap-global="true" showgrid="true" inkscape:current-layer="g5948" inkscape:document-units="px" inkscape:cy="23.157748" inkscape:cx="96.343304" inkscape:zoom="2.828427" inkscape:pageshadow="2" inkscape:pageopacity="0" borderopacity="1.0" bordercolor="#666666" pagecolor="#4d6571" id="base" inkscape:pagecheckerboard="1" inkscape:deskcolor="#505050">
		<inkscape:grid snapvisiblegridlinesonly="false" empspacing="16" id="grid4490" type="xygrid" originx="0" originy="0" spacingy="1" spacingx="1" units="px" visible="true"/>
	</sodipodi:namedview>
	<defs id="defs4">
		<linearGradient gradientUnits="userSpaceOnUse" gradientTransform="scale(0.86410846,1.1572621)" id="g" y1="65.16069" x2="153.33781" x1="153.33781" y2="163.82805">
			<stop stop-color="#58B0E3" offset="0" id="stop4709"/>
			<stop stop-color="#F44C26" offset="1" id="stop4711"/>
		</linearGradient>
		<linearGradient id="al" x1="129.342" gradientUnits="userSpaceOnUse" x2="195.59801" gradientTransform="matrix(1,0,0,-1,8.3999,368.3)" y1="259.30499" y2="259.30499">
			<stop stop-color="#FAC700" offset="0" id="stop6273"/>
			<stop stop-color="#F7C400" offset=".415" id="stop6275"/>
			<stop stop-color="#F7C400" offset="1" id="stop6277"/>
		</linearGradient>
		<linearGradient id="am" x1="129.293" gradientUnits="userSpaceOnUse" x2="195.554" gradientTransform="matrix(1,0,0,-1,8.3999,368.3)" y1="259.311" y2="259.311">
			<stop stop-color="#F6C200" offset="0" id="stop6282"/>
			<stop stop-color="#EFBC00" offset=".415" id="stop6284"/>
			<stop stop-color="#EFBC00" offset="1" id="stop6286"/>
		</linearGradient>
		<linearGradient id="an" x1="129.245" gradientUnits="userSpaceOnUse" x2="195.50999" gradientTransform="matrix(1,0,0,-1,8.3999,368.3)" y1="259.31699" y2="259.31699">
			<stop stop-color="#F1BD00" offset="0" id="stop6291"/>
			<stop stop-color="#E8B500" offset=".415" id="stop6293"/>
			<stop stop-color="#E8B500" offset="1" id="stop6295"/>
		</linearGradient>
		<linearGradient id="ao" x1="129.196" gradientUnits="userSpaceOnUse" x2="195.465" gradientTransform="matrix(1,0,0,-1,8.3999,368.3)" y1="259.32199" y2="259.32199">
			<stop stop-color="#EDB800" offset="0" id="stop6300"/>
			<stop stop-color="#E0AD00" offset=".415" id="stop6302"/>
			<stop stop-color="#E0AD00" offset="1" id="stop6304"/>
		</linearGradient>
		<linearGradient id="ap" x1="129.14799" gradientUnits="userSpaceOnUse" x2="195.422" gradientTransform="matrix(1,0,0,-1,8.3999,368.3)" y1="259.327" y2="259.327">
			<stop stop-color="#E9B300" offset="0" id="stop6309"/>
			<stop stop-color="#D8A500" offset=".415" id="stop6311"/>
			<stop stop-color="#D8A500" offset="1" id="stop6313"/>
		</linearGradient>
		<linearGradient id="aq" x1="129.099" gradientUnits="userSpaceOnUse" x2="195.379" gradientTransform="matrix(1,0,0,-1,8.3999,368.3)" y1="259.332" y2="259.332">
			<stop stop-color="#E4AE00" offset="0" id="stop6318"/>
			<stop stop-color="#D19E00" offset=".415" id="stop6320"/>
			<stop stop-color="#D19E00" offset="1" id="stop6322"/>
		</linearGradient>
		<linearGradient id="ar" x1="129.05099" gradientUnits="userSpaceOnUse" x2="195.338" gradientTransform="matrix(1,0,0,-1,8.3999,368.3)" y1="259.336" y2="259.336">
			<stop stop-color="#E0A900" offset="0" id="stop6327"/>
			<stop stop-color="#C99600" offset=".415" id="stop6329"/>
			<stop stop-color="#C99600" offset="1" id="stop6331"/>
		</linearGradient>
		<linearGradient id="w" x1="129.00301" gradientUnits="userSpaceOnUse" x2="195.29601" gradientTransform="matrix(1,0,0,-1,8.3999,368.3)" y1="259.34" y2="259.34">
			<stop stop-color="#DCA400" offset="0" id="stop6336"/>
			<stop stop-color="#C18E00" offset=".415" id="stop6338"/>
			<stop stop-color="#C18E00" offset="1" id="stop6340"/>
		</linearGradient>
		<linearGradient id="x" x1="128.95399" gradientUnits="userSpaceOnUse" x2="195.255" gradientTransform="matrix(1,0,0,-1,8.3999,368.3)" y1="259.34299" y2="259.34299">
			<stop stop-color="#D79F00" offset="0" id="stop6345"/>
			<stop stop-color="#BA8700" offset=".415" id="stop6347"/>
			<stop stop-color="#BA8700" offset="1" id="stop6349"/>
		</linearGradient>
		<linearGradient id="y" x1="128.90601" gradientUnits="userSpaceOnUse" x2="195.216" gradientTransform="matrix(1,0,0,-1,8.3999,368.3)" y1="259.34799" y2="259.34799">
			<stop stop-color="#D39B00" offset="0" id="stop6354"/>
			<stop stop-color="#B27F00" offset=".415" id="stop6356"/>
			<stop stop-color="#B27F00" offset="1" id="stop6358"/>
		</linearGradient>
		<linearGradient id="z" x1="128.85699" gradientUnits="userSpaceOnUse" x2="195.17599" gradientTransform="matrix(1,0,0,-1,8.3999,368.3)" y1="259.35001" y2="259.35001">
			<stop stop-color="#CF9600" offset="0" id="stop6363"/>
			<stop stop-color="#a70" offset=".415" id="stop6365"/>
			<stop stop-color="#a70" offset="1" id="stop6367"/>
		</linearGradient>
		<linearGradient id="aa" x1="128.80901" gradientUnits="userSpaceOnUse" x2="195.13699" gradientTransform="matrix(1,0,0,-1,8.3999,368.3)" y1="259.354" y2="259.354">
			<stop stop-color="#CA9100" offset="0" id="stop6372"/>
			<stop stop-color="#A37000" offset=".415" id="stop6374"/>
			<stop stop-color="#A37000" offset="1" id="stop6376"/>
		</linearGradient>
		<linearGradient id="ab" x1="128.75999" gradientUnits="userSpaceOnUse" x2="195.099" gradientTransform="matrix(1,0,0,-1,8.3999,368.3)" y1="259.35599" y2="259.35599">
			<stop stop-color="#C68C00" offset="0" id="stop6381"/>
			<stop stop-color="#9B6800" offset=".415" id="stop6383"/>
			<stop stop-color="#9B6800" offset="1" id="stop6385"/>
		</linearGradient>
		<linearGradient id="ac" x1="128.71201" gradientUnits="userSpaceOnUse" x2="195.062" gradientTransform="matrix(1,0,0,-1,8.3999,368.3)" y1="259.358" y2="259.358">
			<stop stop-color="#C28700" offset="0" id="stop6390"/>
			<stop stop-color="#936000" offset=".415" id="stop6392"/>
			<stop stop-color="#936000" offset="1" id="stop6394"/>
		</linearGradient>
		<linearGradient id="ad" x1="128.66299" gradientUnits="userSpaceOnUse" x2="195.02499" gradientTransform="matrix(1,0,0,-1,8.3999,368.3)" y1="259.35999" y2="259.35999">
			<stop stop-color="#BD8200" offset="0" id="stop6399"/>
			<stop stop-color="#8C5900" offset=".415" id="stop6401"/>
			<stop stop-color="#8C5900" offset="1" id="stop6403"/>
		</linearGradient>
		<linearGradient id="ae" x1="128.61501" gradientUnits="userSpaceOnUse" x2="194.989" gradientTransform="matrix(1,0,0,-1,8.3999,368.3)" y1="259.362" y2="259.362">
			<stop stop-color="#B97D00" offset="0" id="stop6408"/>
			<stop stop-color="#845100" offset=".415" id="stop6410"/>
			<stop stop-color="#845100" offset="1" id="stop6412"/>
		</linearGradient>
		<linearGradient id="af" x1="128.567" gradientUnits="userSpaceOnUse" x2="194.95399" gradientTransform="matrix(1,0,0,-1,8.3999,368.3)" y1="259.36401" y2="259.36401">
			<stop stop-color="#B57800" offset="0" id="stop6417"/>
			<stop stop-color="#7C4900" offset=".415" id="stop6419"/>
			<stop stop-color="#7C4900" offset="1" id="stop6421"/>
		</linearGradient>
		<linearGradient id="ah" x1="128.51801" gradientUnits="userSpaceOnUse" x2="194.918" gradientTransform="matrix(1,0,0,-1,8.3999,368.3)" y1="259.366" y2="259.366">
			<stop stop-color="#B07300" offset="0" id="stop6426"/>
			<stop stop-color="#754200" offset=".415" id="stop6428"/>
			<stop stop-color="#754200" offset="1" id="stop6430"/>
		</linearGradient>
		<linearGradient id="ai" x1="128.47" gradientUnits="userSpaceOnUse" x2="194.886" gradientTransform="matrix(1,0,0,-1,8.3999,368.3)" y1="259.367" y2="259.367">
			<stop stop-color="#AC6E00" offset="0" id="stop6435"/>
			<stop stop-color="#6D3A00" offset=".415" id="stop6437"/>
			<stop stop-color="#6D3A00" offset="1" id="stop6439"/>
		</linearGradient>
		<linearGradient id="aj" x1="128.42101" gradientUnits="userSpaceOnUse" x2="194.85001" gradientTransform="matrix(1,0,0,-1,8.3999,368.3)" y1="259.36899" y2="259.36899">
			<stop stop-color="#A86A00" offset="0" id="stop6444"/>
			<stop stop-color="#663200" offset=".415" id="stop6446"/>
			<stop stop-color="#663200" offset="1" id="stop6448"/>
		</linearGradient>
	</defs>
	<metadata id="metadata7">
		<rdf:RDF>
			<cc:Work rdf:about="">
				<dc:format>image/svg+xml</dc:format>
				<dc:type rdf:resource="http://purl.org/dc/dcmitype/StillImage"/>
			</cc:Work>
		</rdf:RDF>
	</metadata>
	<g inkscape:groupmode="layer" id="g5948" inkscape:label="Dark" style="display:inline;opacity:1">
		<g transform="matrix(0.16018543,0,0,0.16018543,1.4630168,68.622533)" id="g4988" style="clip-rule:evenodd;fill-rule:evenodd;stroke-linejoin:round;stroke-miterlimit:2">
			<g transform="matrix(0.281237,0,0,0.281237,-41.7927,-43.702)" id="g4971">
				<g transform="matrix(21.6344,0,0,21.6344,-4855.9337,6235.2084)" id="g4961">
					<path d="m 243.13,-333.715 c 0.106,-1.891 1.032,-3.557 2.429,-4.738 1.37,-1.16 3.214,-1.869 5.226,-1.869 2.01,0 3.854,0.709 5.225,1.869 1.396,1.181 2.322,2.847 2.429,4.736 0.106,1.943 -0.675,3.748 -2.045,5.086 -1.397,1.361 -3.384,2.215 -5.609,2.215 -2.225,0 -4.216,-0.854 -5.612,-2.215 -1.371,-1.338 -2.15,-3.143 -2.043,-5.084 z" style="fill:#ffffff;fill-rule:nonzero" id="path4959"/>
				</g>
				<g transform="matrix(11.1008,0,0,11.1008,-2214.2437,2723.6384)" id="g4965">
					<path d="m 243.13,-333.715 c 0.106,-1.891 1.032,-3.557 2.429,-4.738 1.37,-1.16 3.214,-1.869 5.226,-1.869 2.01,0 3.854,0.709 5.225,1.869 1.396,1.181 2.322,2.847 2.429,4.736 0.106,1.943 -0.675,3.748 -2.045,5.086 -1.397,1.361 -3.384,2.215 -5.609,2.215 -2.225,0 -4.216,-0.854 -5.612,-2.215 -1.371,-1.338 -2.15,-3.143 -2.043,-5.084 z" style="fill:#265787;fill-rule:nonzero" id="path4963"/>
				</g>
				<g transform="matrix(11.1008,0,0,11.1008,-2215.13,4153.11)" id="g4969">
					<path d="m 231.01984,-458.66595 c 0.013,0.74 0.249,2.178 0.603,3.301 0.744,2.377 2.006,4.576 3.762,6.514 1.802,1.992 4.021,3.592 6.584,4.728 2.694,1.193 5.613,1.801 8.645,1.796 3.027,-0.004 5.946,-0.624 8.64,-1.826 2.563,-1.147 4.78,-2.754 6.579,-4.747 1.755,-1.946 3.015,-4.149 3.761,-6.526 0.375,-1.201 0.612,-2.42 0.707,-3.643 0.093,-1.205 0.054,-2.412 -0.117,-3.618 -0.334,-2.35 -1.147,-4.555 -2.399,-6.565 -1.145,-1.847 -2.621,-3.464 -4.376,-4.825 l 0.004,-0.003 -17.711,-13.599 c -0.016,-0.012 -0.029,-0.025 -0.046,-0.036 -1.162,-0.892 -3.116,-0.889 -4.394,0.005 -1.292,0.904 -1.44,2.399 -0.29,3.342 l -0.005,0.005 7.387,6.007 -22.515,0.024 h -0.03 c -1.861,0.002 -3.65,1.223 -4.004,2.766 -0.364,1.572 0.9,2.876 2.835,2.883 l -0.003,0.007 11.412,-0.022 -20.364,15.631 c -0.026,0.019 -0.054,0.039 -0.078,0.058 -1.921,1.471 -2.542,3.917 -1.332,5.465 1.228,1.574 3.839,1.577 5.78,0.009 l 11.114,-9.096 c 0,0 -0.162,1.228 -0.149,1.965 z m 28.559,4.112 c -2.29,2.333 -5.496,3.656 -8.965,3.663 -3.474,0.006 -6.68,-1.305 -8.97,-3.634 -1.119,-1.135 -1.941,-2.441 -2.448,-3.832 -0.497,-1.367 -0.69,-2.818 -0.562,-4.282 0.121,-1.431 0.547,-2.796 1.227,-4.031 0.668,-1.214 1.588,-2.311 2.724,-3.239 2.226,-1.814 5.06,-2.796 8.024,-2.8 2.967,-0.004 5.799,0.969 8.027,2.777 1.134,0.924 2.053,2.017 2.721,3.229 0.683,1.234 1.106,2.594 1.232,4.029 0.126,1.462 -0.067,2.911 -0.564,4.279 -0.508,1.395 -1.327,2.701 -2.446,3.841 z" style="display:inline;fill:#ea7600;fill-rule:nonzero" id="path4967"/>
				</g>
			</g>
		</g>
	</g>
</svg>
