<?xml version="1.0" encoding="utf-8"?>
<svg inkscape:export-ydpi="90" inkscape:export-xdpi="90" inkscape:export-filename="C:\private\traktor\res\icons-new\g4486.png" sodipodi:docname="EntityAttributeDynamic.svg" inkscape:version="1.3 (0e150ed6c4, 2023-07-21)" version="1.1" id="svg2" viewBox="0 0 32 32" height="16" width="16" xmlns:inkscape="http://www.inkscape.org/namespaces/inkscape" xmlns:sodipodi="http://sodipodi.sourceforge.net/DTD/sodipodi-0.dtd" xmlns="http://www.w3.org/2000/svg" xmlns:svg="http://www.w3.org/2000/svg" xmlns:rdf="http://www.w3.org/1999/02/22-rdf-syntax-ns#" xmlns:cc="http://creativecommons.org/ns#" xmlns:dc="http://purl.org/dc/elements/1.1/">
	<style>
	.theme_fill {
		fill: green;
	}
	.theme_stroke {
		stroke: green;
	}
	</style>
	<sodipodi:namedview inkscape:document-rotation="0" showguides="true" guidetolerance="10000" objecttolerance="10000" showborder="true" inkscape:showpageshadow="false" units="px" inkscape:window-maximized="0" inkscape:window-y="293" inkscape:window-x="1220" inkscape:window-height="1003" inkscape:window-width="1275" inkscape:snap-to-guides="false" inkscape:snap-grids="true" inkscape:snap-global="true" showgrid="true" inkscape:current-layer="Dark" inkscape:document-units="px" inkscape:cy="25.750001" inkscape:cx="2.3750001" inkscape:zoom="3.9999998" inkscape:pageshadow="2" inkscape:pageopacity="0" borderopacity="1" bordercolor="#ffffff" pagecolor="#4d6571" id="base" inkscape:pagecheckerboard="0" inkscape:deskcolor="#384a52">
		<inkscape:grid snapvisiblegridlinesonly="false" empspacing="16" id="grid4490" type="xygrid" originx="0" originy="0" spacingy="1" spacingx="1" units="px" visible="true"/>
	</sodipodi:namedview>
	<defs id="defs4"/>
	<metadata id="metadata7">
		<rdf:RDF>
			<cc:Work rdf:about="">
				<dc:format>image/svg+xml</dc:format>
				<dc:type rdf:resource="http://purl.org/dc/dcmitype/StillImage"/>
			</cc:Work>
		</rdf:RDF>
	</metadata>
	<g inkscape:groupmode="layer" id="Dark" inkscape:label="Dark" style="display:inline;opacity:1">
		<g style="fill:#000000" id="g1726" transform="translate(4,4)">
			<g id="g1707">
				<rect fill="none" height="24" width="24" x="0" id="rect1705" y="0"/>
			</g>
			<g id="g1713" style="fill-opacity:1" class="theme_fill">
				<g id="g1711" style="fill-opacity:1" class="theme_fill">
					<path d="M 15,2 C 12.29,2 9.95,3.54 8.78,5.78 7.5,6.45 6.44,7.5 5.78,8.78 3.54,9.95 2,12.29 2,15 c 0,3.87 3.13,7 7,7 2.71,0 5.05,-1.54 6.22,-3.78 1.28,-0.67 2.34,-1.72 3,-3 C 20.46,14.05 22,11.71 22,9 22,5.13 18.87,2 15,2 Z M 9,20 c -2.76,0 -5,-2.24 -5,-5 0,-1.12 0.37,-2.16 1,-3 0,3.87 3.13,7 7,7 -0.84,0.63 -1.88,1 -3,1 z m 3,-3 C 9.24,17 7,14.76 7,12 7,10.88 7.37,9.84 8,9 c 0,3.86 3.13,6.99 7,7 -0.84,0.63 -1.88,1 -3,1 z m 4.7,-3.3 C 16.17,13.89 15.6,14 15,14 12.24,14 10,11.76 10,9 10,8.4 10.11,7.83 10.3,7.3 10.83,7.11 11.4,7 12,7 c 2.76,0 5,2.24 5,5 0,0.6 -0.11,1.17 -0.3,1.7 z M 19,12 c 0,-3.86 -3.13,-6.99 -7,-7 0.84,-0.63 1.87,-1 3,-1 2.76,0 5,2.24 5,5 0,1.12 -0.37,2.16 -1,3 z" id="path1709" style="fill-opacity:1" class="theme_fill"/>
				</g>
			</g>
		</g>
	</g>
</svg>
