<?xml version="1.0" encoding="utf-8"?>
<svg inkscape:export-ydpi="90" inkscape:export-xdpi="90" inkscape:export-filename="C:\private\traktor\res\icons-new\g4486.png" sodipodi:docname="EntityAttributePrefab.svg" inkscape:version="1.3 (0e150ed6c4, 2023-07-21)" version="1.1" id="svg2" viewBox="0 0 32 32" height="16" width="16" xmlns:inkscape="http://www.inkscape.org/namespaces/inkscape" xmlns:sodipodi="http://sodipodi.sourceforge.net/DTD/sodipodi-0.dtd" xmlns="http://www.w3.org/2000/svg" xmlns:svg="http://www.w3.org/2000/svg" xmlns:rdf="http://www.w3.org/1999/02/22-rdf-syntax-ns#" xmlns:cc="http://creativecommons.org/ns#" xmlns:dc="http://purl.org/dc/elements/1.1/">
	<style>
	.theme_fill {
		fill: green;
	}
	.theme_stroke {
		stroke: green;
	}
	</style>
	<sodipodi:namedview inkscape:document-rotation="0" showguides="true" guidetolerance="10000" objecttolerance="10000" showborder="true" inkscape:showpageshadow="false" units="px" inkscape:window-maximized="0" inkscape:window-y="293" inkscape:window-x="1220" inkscape:window-height="1003" inkscape:window-width="1275" inkscape:snap-to-guides="false" inkscape:snap-grids="true" inkscape:snap-global="true" showgrid="true" inkscape:current-layer="Dark" inkscape:document-units="px" inkscape:cy="151.32086" inkscape:cx="134.3503" inkscape:zoom="0.70710675" inkscape:pageshadow="2" inkscape:pageopacity="0" borderopacity="1" bordercolor="#ffffff" pagecolor="#4d6571" id="base" inkscape:pagecheckerboard="0" inkscape:deskcolor="#384a52">
		<inkscape:grid snapvisiblegridlinesonly="false" empspacing="16" id="grid4490" type="xygrid" originx="0" originy="0" spacingy="1" spacingx="1" units="px" visible="true"/>
	</sodipodi:namedview>
	<defs id="defs4"/>
	<metadata id="metadata7">
		<rdf:RDF>
			<cc:Work rdf:about="">
				<dc:format>image/svg+xml</dc:format>
				<dc:type rdf:resource="http://purl.org/dc/dcmitype/StillImage"/>
			</cc:Work>
		</rdf:RDF>
	</metadata>
	<g inkscape:groupmode="layer" id="Dark" inkscape:label="Dark" style="display:inline;opacity:1">
		<g style="fill:#000000" id="g1777" transform="translate(4,4)">
			<path d="M 22,8 C 22,7.45 21.55,7 21,7 H 20 V 5 C 20,3.9 19.1,3 18,3 H 4 C 2.9,3 2,3.9 2,5 v 14 c 0,1.1 0.9,2 2,2 h 14 c 1.1,0 2,-0.9 2,-2 v -2 h 1 c 0.55,0 1,-0.45 1,-1 0,-0.55 -0.45,-1 -1,-1 h -1 v -2 h 1 c 0.55,0 1,-0.45 1,-1 0,-0.55 -0.45,-1 -1,-1 H 20 V 9 h 1 c 0.55,0 1,-0.45 1,-1 z M 17,19 H 5 C 4.45,19 4,18.55 4,18 V 6 C 4,5.45 4.45,5 5,5 h 12 c 0.55,0 1,0.45 1,1 v 12 c 0,0.55 -0.45,1 -1,1 z M 6.5,13 h 4 c 0.28,0 0.5,0.22 0.5,0.5 v 3 c 0,0.28 -0.22,0.5 -0.5,0.5 h -4 C 6.22,17 6,16.78 6,16.5 v -3 C 6,13.22 6.22,13 6.5,13 Z m 6,-6 h 3 C 15.78,7 16,7.22 16,7.5 v 2 C 16,9.78 15.78,10 15.5,10 h -3 C 12.22,10 12,9.78 12,9.5 v -2 C 12,7.22 12.22,7 12.5,7 Z m -6,0 h 4 C 10.78,7 11,7.22 11,7.5 v 4 c 0,0.28 -0.22,0.5 -0.5,0.5 h -4 C 6.22,12 6,11.78 6,11.5 v -4 C 6,7.22 6.22,7 6.5,7 Z m 6,4 h 3 c 0.28,0 0.5,0.22 0.5,0.5 v 5 c 0,0.28 -0.22,0.5 -0.5,0.5 h -3 C 12.22,17 12,16.78 12,16.5 v -5 C 12,11.22 12.22,11 12.5,11 Z" id="path1768" style="fill-opacity:1" class="theme_fill"/>
		</g>
	</g>
</svg>
