<?xml version="1.0" encoding="utf-8"?>
<svg inkscape:export-ydpi="90" inkscape:export-xdpi="90" inkscape:export-filename="C:\private\traktor\res\icons-new\g4486.png" sodipodi:docname="EntityAttributeExternal.svg" inkscape:version="1.3 (0e150ed6c4, 2023-07-21)" version="1.1" id="svg2" viewBox="0 0 32 32" height="16" width="16" xmlns:inkscape="http://www.inkscape.org/namespaces/inkscape" xmlns:sodipodi="http://sodipodi.sourceforge.net/DTD/sodipodi-0.dtd" xmlns="http://www.w3.org/2000/svg" xmlns:svg="http://www.w3.org/2000/svg" xmlns:rdf="http://www.w3.org/1999/02/22-rdf-syntax-ns#" xmlns:cc="http://creativecommons.org/ns#" xmlns:dc="http://purl.org/dc/elements/1.1/">
	<style>
	.theme_fill {
		fill: green;
	}
	.theme_stroke {
		stroke: green;
	}
	</style>
	<sodipodi:namedview inkscape:document-rotation="0" showguides="true" guidetolerance="10000" objecttolerance="10000" showborder="true" inkscape:showpageshadow="false" units="px" inkscape:window-maximized="0" inkscape:window-y="293" inkscape:window-x="1220" inkscape:window-height="1003" inkscape:window-width="1275" inkscape:snap-to-guides="false" inkscape:snap-grids="true" inkscape:snap-global="true" showgrid="true" inkscape:current-layer="Dark" inkscape:document-units="px" inkscape:cy="44.750002" inkscape:cx="45.250002" inkscape:zoom="1.9999999" inkscape:pageshadow="2" inkscape:pageopacity="0" borderopacity="1" bordercolor="#ffffff" pagecolor="#4d6571" id="base" inkscape:pagecheckerboard="0" inkscape:deskcolor="#384a52">
		<inkscape:grid snapvisiblegridlinesonly="false" empspacing="16" id="grid4490" type="xygrid" originx="0" originy="0" spacingy="1" spacingx="1" units="px" visible="true"/>
	</sodipodi:namedview>
	<defs id="defs4"/>
	<metadata id="metadata7">
		<rdf:RDF>
			<cc:Work rdf:about="">
				<dc:format>image/svg+xml</dc:format>
				<dc:type rdf:resource="http://purl.org/dc/dcmitype/StillImage"/>
			</cc:Work>
		</rdf:RDF>
	</metadata>
	<g inkscape:groupmode="layer" id="Dark" inkscape:label="Dark" style="display:inline;opacity:1">
		<g style="fill:#000000" id="g1655" transform="translate(4,4)">
			<g id="g1636">
				<rect fill="none" height="24" width="24" id="rect1634" x="0" y="0"/>
			</g>
			<g id="g1642" style="fill-opacity:1;stroke-width:1.00157;stroke-miterlimit:4;stroke-dasharray:none" class="theme_fill">
				<g id="g1640" style="fill-opacity:1;stroke-width:1.00157;stroke-miterlimit:4;stroke-dasharray:none" class="theme_fill">
					<path d="m 17,7 h -3 c -0.55,0 -1,0.45 -1,1 0,0.55 0.45,1 1,1 h 3 c 1.65,0 3,1.35 3,3 0,1.65 -1.35,3 -3,3 h -3 c -0.55,0 -1,0.45 -1,1 0,0.55 0.45,1 1,1 h 3 c 2.76,0 5,-2.24 5,-5 0,-2.76 -2.24,-5 -5,-5 z m -9,5 c 0,0.55 0.45,1 1,1 h 6 c 0.55,0 1,-0.45 1,-1 0,-0.55 -0.45,-1 -1,-1 H 9 c -0.55,0 -1,0.45 -1,1 z m 2,3 H 7 C 5.35,15 4,13.65 4,12 4,10.35 5.35,9 7,9 h 3 C 10.55,9 11,8.55 11,8 11,7.45 10.55,7 10,7 H 7 c -2.76,0 -5,2.24 -5,5 0,2.76 2.24,5 5,5 h 3 c 0.55,0 1,-0.45 1,-1 0,-0.55 -0.45,-1 -1,-1 z" id="path1638" style="fill-opacity:1;stroke-width:1.00157;stroke-miterlimit:4;stroke-dasharray:none" class="theme_fill"/>
				</g>
			</g>
		</g>
	</g>
</svg>
