<?xml version="1.0" encoding="UTF-8" standalone="no"?>
<svg
   width="64"
   height="16"
   viewBox="0 0 128 32"
   id="svg2"
   version="1.1"
   inkscape:version="1.2.2 (732a01da63, 2022-12-09)"
   sodipodi:docname="RGBA.svg"
   inkscape:export-filename="C:\private\traktor\res\icons-new\g4486.png"
   inkscape:export-xdpi="90"
   inkscape:export-ydpi="90"
   xmlns:inkscape="http://www.inkscape.org/namespaces/inkscape"
   xmlns:sodipodi="http://sodipodi.sourceforge.net/DTD/sodipodi-0.dtd"
   xmlns="http://www.w3.org/2000/svg"
   xmlns:svg="http://www.w3.org/2000/svg"
   xmlns:rdf="http://www.w3.org/1999/02/22-rdf-syntax-ns#"
   xmlns:cc="http://creativecommons.org/ns#"
   xmlns:dc="http://purl.org/dc/elements/1.1/">
  <style
     id="style2">
	.theme_fill {
		fill: green;
	}
	.theme_stroke {
		stroke: green;
	}
	</style>
  <sodipodi:namedview
     id="base"
     pagecolor="#4d6571"
     bordercolor="#ffffff"
     borderopacity="1"
     inkscape:pageopacity="0"
     inkscape:pageshadow="2"
     inkscape:zoom="3.9999998"
     inkscape:cx="7.2500003"
     inkscape:cy="15.875001"
     inkscape:document-units="px"
     inkscape:current-layer="text240"
     showgrid="true"
     inkscape:snap-global="true"
     inkscape:snap-grids="true"
     inkscape:snap-to-guides="false"
     inkscape:window-width="1907"
     inkscape:window-height="852"
     inkscape:window-x="3855"
     inkscape:window-y="2593"
     inkscape:window-maximized="0"
     units="px"
     inkscape:showpageshadow="false"
     showborder="true"
     objecttolerance="10000"
     guidetolerance="10000"
     showguides="true"
     inkscape:pagecheckerboard="0"
     inkscape:deskcolor="#2f3e46">
    <inkscape:grid
       type="xygrid"
       id="grid4490"
       empspacing="16"
       snapvisiblegridlinesonly="false"
       originx="0"
       originy="0"
       spacingy="1"
       spacingx="1"
       units="px"
       visible="true" />
  </sodipodi:namedview>
  <defs
     id="defs4" />
  <metadata
     id="metadata7">
    <rdf:RDF>
      <cc:Work
         rdf:about="">
        <dc:format>image/svg+xml</dc:format>
        <dc:type
           rdf:resource="http://purl.org/dc/dcmitype/StillImage" />
      </cc:Work>
    </rdf:RDF>
  </metadata>
  <g
     style="display:inline;opacity:1"
     inkscape:label="Dark"
     id="Dark"
     inkscape:groupmode="layer">
    <g
       aria-label="RGBA"
       id="text240"
       style="font-weight:bold;font-size:170.667px;font-family:Calibri;-inkscape-font-specification:'Calibri Bold';fill:#284911;stroke-width:3;stroke-linecap:round;stop-color:#000000"
       transform="translate(0,-32.176777)">
      <path
         d="m 25.088027,59.782276 q 0,0.199186 -0.0724,0.344048 -0.0724,0.126754 -0.34405,0.217294 -0.27161,0.09054 -0.79674,0.126753 -0.52513,0.03622 -1.43052,0.03622 -0.76052,0 -1.21322,-0.03622 -0.45269,-0.03621 -0.72431,-0.126753 -0.25351,-0.108647 -0.36215,-0.25351 -0.10865,-0.16297 -0.18108,-0.380263 l -2.10051,-5.233152 q -0.38026,-0.887283 -0.74242,-1.575379 -0.36215,-0.688095 -0.81485,-1.140791 -0.43458,-0.470802 -1.01403,-0.706204 -0.57945,-0.2354 -1.33998,-0.2354 h -1.48484 v 8.92714 q 0,0.181079 -0.12675,0.325942 -0.10865,0.144863 -0.38027,0.2354 -0.27162,0.09054 -0.72431,0.144863 -0.45269,0.05432 -1.1589,0.05432 -0.6880903,0 -1.1589003,-0.05432 -0.45269,-0.05432 -0.72431,-0.144863 -0.27161,-0.09054 -0.38026,-0.2354 -0.10865,-0.144863 -0.10865,-0.325942 V 38.469403 q 0,-0.796743 0.39837,-1.140791 0.41648,-0.362156 1.01404,-0.362156 h 6.0661103 q 0.9235,0 1.52105,0.03622 0.59756,0.03622 1.08647,0.09054 1.41241,0.199186 2.53509,0.688096 1.14079,0.488911 1.91943,1.285653 0.79674,0.778636 1.21322,1.865103 0.41648,1.06836 0.41648,2.46266 0,1.177007 -0.30783,2.154827 -0.28973,0.959714 -0.86918,1.72024 -0.57945,0.760528 -1.43051,1.32187 -0.85107,0.561342 -1.93754,0.905389 0.52513,0.253509 0.97782,0.615665 0.47081,0.362156 0.86918,0.887281 0.41648,0.507019 0.77863,1.177007 0.36216,0.651882 0.70621,1.48484 l 1.97375,4.617487 q 0.27161,0.688095 0.36215,1.014037 0.0905,0.307833 0.0905,0.48891 z m -6.13854,-15.898643 q 0,-1.158898 -0.52512,-1.955641 -0.52513,-0.796743 -1.72025,-1.122683 -0.36215,-0.09054 -0.83295,-0.144863 -0.4527,-0.05432 -1.26755,-0.05432 h -2.13672 v 6.64556 h 2.42644 q 1.01404,0 1.77457,-0.235402 0.76053,-0.253509 1.26754,-0.688096 0.50702,-0.452695 0.76053,-1.068359 0.25351,-0.615665 0.25351,-1.376193 z"
         id="path346"
         style="stroke-width:0.651879;fill:#ff0000" />
      <path
         d="m 57.789747,40.606123 q 0,0.525126 -0.0543,0.90539 -0.0362,0.380263 -0.12676,0.615665 -0.0724,0.217293 -0.19918,0.307832 -0.10865,0.09054 -0.27162,0.09054 -0.2354,0 -0.76053,-0.32594 -0.52512,-0.32594 -1.3943,-0.706204 -0.86917,-0.380264 -2.08239,-0.706204 -1.19512,-0.32594 -2.7886,-0.32594 -1.70214,0 -3.07833,0.597557 -1.37619,0.579449 -2.35401,1.665917 -0.97782,1.06836 -1.50295,2.589414 -0.52512,1.502948 -0.52512,3.331834 0,2.009966 0.52512,3.549127 0.54324,1.521055 1.50295,2.5532 0.95971,1.032144 2.29969,1.55727 1.35808,0.525125 2.98778,0.525125 0.79675,0 1.57538,-0.181076 0.77864,-0.181079 1.44863,-0.543235 v -5.432338 h -4.43641 q -0.32594,0 -0.50702,-0.398372 -0.18108,-0.416479 -0.18108,-1.394301 0,-0.507016 0.0362,-0.851065 0.0543,-0.344049 0.14486,-0.543235 0.0905,-0.217293 0.21729,-0.30783 0.12676,-0.108649 0.28973,-0.108649 h 7.9131 q 0.28973,0 0.50702,0.108649 0.2354,0.09054 0.39837,0.289723 0.18108,0.199186 0.27162,0.488912 0.0905,0.271616 0.0905,0.633772 v 9.325513 q 0,0.543235 -0.19919,0.959714 -0.18108,0.39837 -0.77863,0.633772 -0.57945,0.2354 -1.44863,0.48891 -0.86917,0.253509 -1.81078,0.434588 -0.92349,0.181077 -1.88321,0.271616 -0.9416,0.09054 -1.90131,0.09054 -2.80671,0 -5.03397,-0.796744 -2.20915,-0.814849 -3.74831,-2.335905 -1.53917,-1.539163 -2.35402,-3.730205 -0.81485,-2.209152 -0.81485,-4.997752 0,-2.879138 0.86918,-5.16072 0.86917,-2.29969 2.46266,-3.893176 1.59348,-1.611593 3.83885,-2.46266 2.26347,-0.851066 5.03396,-0.851066 1.52106,0 2.7705,0.217294 1.24943,0.199185 2.17293,0.507018 0.94161,0.289724 1.55727,0.633773 0.61567,0.344048 0.85107,0.597557 0.25351,0.253509 0.36215,0.724311 0.10865,0.452695 0.10865,1.358085 z"
         id="path348"
         style="stroke-width:0.651879;fill:#00ff00" />
      <path
         d="m 88.35176,53.372117 q 0,1.249437 -0.34405,2.263474 -0.34404,1.014038 -0.95971,1.792673 -0.59756,0.778635 -1.44862,1.339977 -0.83296,0.561339 -1.847,0.923495 -1.01403,0.362156 -2.17293,0.543235 -1.14079,0.16297 -2.5532,0.16297 h -6.22908 q -0.59756,0 -1.01404,-0.344049 -0.39837,-0.362156 -0.39837,-1.158898 V 38.469403 q 0,-0.796743 0.39837,-1.140791 0.41648,-0.362156 1.01404,-0.362156 h 5.88503 q 2.15483,0 3.63967,0.362156 1.50294,0.362156 2.51698,1.104576 1.03214,0.724312 1.57538,1.846995 0.54323,1.122683 0.54323,2.643738 0,0.851066 -0.21729,1.611593 -0.21729,0.74242 -0.63377,1.358085 -0.41649,0.615665 -1.03215,1.086468 -0.59756,0.470802 -1.37619,0.760526 0.99593,0.181079 1.82889,0.633774 0.85106,0.452693 1.46673,1.177005 0.63377,0.706205 0.99593,1.665919 0.36215,0.959711 0.36215,2.154826 z M 82.19511,43.50337 q 0,-0.706204 -0.21729,-1.267546 -0.2173,-0.561341 -0.65188,-0.923497 -0.43459,-0.380264 -1.10458,-0.57945 -0.65188,-0.199185 -1.75645,-0.199185 h -2.40834 v 6.084219 h 2.66185 q 1.03214,0 1.6478,-0.235402 0.61567,-0.25351 1.01404,-0.669988 0.41648,-0.434587 0.61567,-0.995929 0.19918,-0.579449 0.19918,-1.213222 z m 1.21322,10.031716 q 0,-0.814849 -0.27161,-1.448623 Q 82.8651,51.434584 82.33997,50.999995 81.81485,50.565409 81,50.330007 q -0.81485,-0.2354 -2.11861,-0.2354 h -2.82482 v 6.663668 h 3.44048 q 0.99593,0 1.66592,-0.199186 0.68809,-0.217293 1.177,-0.615665 0.50702,-0.416479 0.77864,-1.014037 0.28972,-0.615666 0.28972,-1.394301 z"
         id="path350"
         style="stroke-width:0.651879;fill:#0000ff" />
      <path
         d="m 122.73792,58.623378 q 0.21729,0.651879 0.27161,1.032144 0.0543,0.380263 -0.14486,0.579449 -0.19918,0.181077 -0.7062,0.217293 -0.50702,0.05432 -1.3943,0.05432 -0.9235,0 -1.44863,-0.03622 -0.50702,-0.0181 -0.77863,-0.09054 -0.27162,-0.09054 -0.38027,-0.235403 -0.10864,-0.144862 -0.18107,-0.380262 l -1.57538,-4.708027 h -8.80038 l -1.48484,4.581271 q -0.0724,0.253509 -0.19919,0.434588 -0.10865,0.16297 -0.38026,0.271617 -0.25351,0.09054 -0.74242,0.126753 -0.47081,0.03622 -1.24944,0.03622 -0.83296,0 -1.30376,-0.05432 -0.47081,-0.05432 -0.65189,-0.253509 -0.18107,-0.217293 -0.12675,-0.597556 0.0543,-0.380265 0.27162,-1.014038 l 7.22501,-20.787746 q 0.10865,-0.307832 0.25351,-0.48891 0.14486,-0.199186 0.45269,-0.289725 0.32594,-0.108647 0.88729,-0.126755 0.56134,-0.03621 1.48483,-0.03621 1.06836,0 1.70213,0.03621 0.63378,0.01811 0.97782,0.126755 0.36216,0.09054 0.50702,0.289725 0.16297,0.199185 0.27162,0.543233 z M 111.98189,41.439081 h -0.0181 l -3.31373,9.959286 h 6.64556 z"
         id="path352"
         style="stroke-width:0.651879;fill:#000000" />
    </g>
  </g>
</svg>
