<?xml version="1.0" encoding="utf-8"?>
<svg width="368" height="16" viewBox="0 0 736 32" id="svg2" version="1.1" inkscape:version="1.3.2 (091e20ef0f, 2023-11-25)" sodipodi:docname="Types.svg" inkscape:export-filename="C:\private\traktor\res\icons-new\g4486.png" inkscape:export-xdpi="90" inkscape:export-ydpi="90" xmlns:inkscape="http://www.inkscape.org/namespaces/inkscape" xmlns:sodipodi="http://sodipodi.sourceforge.net/DTD/sodipodi-0.dtd" xmlns="http://www.w3.org/2000/svg" xmlns:svg="http://www.w3.org/2000/svg" xmlns:rdf="http://www.w3.org/1999/02/22-rdf-syntax-ns#" xmlns:cc="http://creativecommons.org/ns#" xmlns:dc="http://purl.org/dc/elements/1.1/">
	<style>
	.theme_fill {
		fill: green;
	}
	.theme_stroke {
		stroke: green;
	}
	</style>
	<sodipodi:namedview id="base" pagecolor="#4d6571" bordercolor="#ffffff" borderopacity="1" inkscape:pageopacity="0" inkscape:pageshadow="2" inkscape:zoom="3.9999998" inkscape:cx="206.37501" inkscape:cy="-16.875001" inkscape:document-units="px" inkscape:current-layer="Dark" showgrid="true" inkscape:snap-global="true" inkscape:snap-grids="true" inkscape:snap-to-guides="false" inkscape:window-width="1440" inkscape:window-height="777" inkscape:window-x="0" inkscape:window-y="32" inkscape:window-maximized="1" units="px" inkscape:showpageshadow="false" showborder="true" objecttolerance="10000" guidetolerance="10000" showguides="true" inkscape:pagecheckerboard="0" inkscape:deskcolor="#314048">
		<inkscape:grid type="xygrid" id="grid4490" empspacing="1" snapvisiblegridlinesonly="false" originx="1" originy="1" spacingy="2" spacingx="2" units="px" visible="true"/>
	</sodipodi:namedview>
	<defs id="defs4"/>
	<metadata id="metadata7">
		<rdf:RDF>
			<cc:Work rdf:about="">
				<dc:format>image/svg+xml</dc:format>
				<dc:type rdf:resource="http://purl.org/dc/dcmitype/StillImage"/>
			</cc:Work>
		</rdf:RDF>
	</metadata>
	<g style="display:inline;opacity:1" inkscape:label="Dark" id="Dark" inkscape:groupmode="layer">
		<path inkscape:connector-curvature="0" id="path8956-2" d="M 37,15.982773 V 3 h 9.318566 5.103335 L 57,9 V 17.946422 29 H 47.965222 37 Z" style="display:inline;fill:#353535;fill-opacity:0.5;stroke:#d9d9d9;stroke-width:2;stroke-linejoin:round;stroke-miterlimit:4;stroke-dasharray:none;stroke-opacity:1" sodipodi:nodetypes="cccccccccc"/>
		<path inkscape:connector-curvature="0" id="path8956-2-8" d="M 69,15.982773 V 3 h 9.318566 5.103335 L 89,9 V 17.946422 29 H 79.965222 69 Z" style="display:inline;fill:#353535;fill-opacity:0.5;stroke:#d9d9d9;stroke-width:2;stroke-linejoin:round;stroke-miterlimit:4;stroke-dasharray:none;stroke-opacity:1" sodipodi:nodetypes="cccccccccc"/>
		<rect y="7.7016931" x="41.159008" height="6" width="5" id="rect8758" style="display:inline;opacity:1;fill:none;fill-opacity:1;stroke:#ffffff;stroke-width:1;stroke-miterlimit:4;stroke-dasharray:none;stroke-opacity:1"/>
		<rect y="17.579294" x="47.75" height="6" width="5" id="rect8760" style="display:inline;opacity:1;fill:none;fill-opacity:1;stroke:#ffffff;stroke-width:1;stroke-miterlimit:4;stroke-dasharray:none;stroke-opacity:1"/>
		<path inkscape:connector-curvature="0" id="path8762" d="m 43.762563,13.738305 0,7.59099 H 48" style="display:inline;opacity:1;fill:none;fill-opacity:1;stroke:#ffffff;stroke-width:1;stroke-miterlimit:4;stroke-dasharray:none;stroke-opacity:1" sodipodi:nodetypes="ccc"/>
		<path inkscape:connector-curvature="0" id="path8764" d="M 70.147727,11.09634 H 87.875" style="display:inline;opacity:1;fill:none;fill-opacity:1;stroke:#ffffff;stroke-width:1.28409;stroke-miterlimit:4;stroke-dasharray:none;stroke-opacity:1" sodipodi:nodetypes="cc"/>
		<path sodipodi:nodetypes="cc" inkscape:connector-curvature="0" id="path8766" d="M 70.147727,23.93725 H 87.875" style="display:inline;opacity:1;fill:none;fill-opacity:1;stroke:#ffffff;stroke-width:1.28409;stroke-miterlimit:4;stroke-dasharray:none;stroke-opacity:1"/>
		<path sodipodi:nodetypes="cc" inkscape:connector-curvature="0" id="path8768" d="M 70.136063,17.516795 H 87.875" style="display:inline;opacity:1;fill:none;fill-opacity:1;stroke:#ffffff;stroke-width:1.28409;stroke-miterlimit:4;stroke-dasharray:none;stroke-opacity:1"/>
		<path sodipodi:nodetypes="cc" inkscape:connector-curvature="0" id="path8770" d="M 79.136364,17.597051 V 23.93725" style="display:inline;opacity:1;fill:none;fill-opacity:1;stroke:#ffffff;stroke-width:1.28409;stroke-miterlimit:4;stroke-dasharray:none;stroke-opacity:1"/>
		<path sodipodi:nodetypes="cc" inkscape:connector-curvature="0" id="path8772" d="m 74,11.09634 v 6.420455" style="display:inline;opacity:1;fill:none;fill-opacity:1;stroke:#ffffff;stroke-width:1.28409;stroke-miterlimit:4;stroke-dasharray:none;stroke-opacity:1"/>
		<path sodipodi:nodetypes="cc" inkscape:connector-curvature="0" id="path8774" d="m 84.272727,11.176596 v 6.340199" style="display:inline;opacity:1;fill:none;fill-opacity:1;stroke:#ffffff;stroke-width:1.28409;stroke-miterlimit:4;stroke-dasharray:none;stroke-opacity:1"/>
		<path inkscape:connector-curvature="0" id="path8956-2-8-8" d="M 101,15.982773 V 3 h 9.31856 5.10334 L 121,9 V 17.946422 29 H 111.96522 101 Z" style="display:inline;fill:#353535;fill-opacity:0.5;stroke:#d9d9d9;stroke-width:2;stroke-linejoin:round;stroke-miterlimit:4;stroke-dasharray:none;stroke-opacity:1" sodipodi:nodetypes="cccccccccc"/>
		<path inkscape:connector-curvature="0" id="path8956-2-8-8-2" d="M 133,15.982773 V 3 h 9.31856 5.10334 L 153,9 V 17.946422 29 H 143.96522 133 Z" style="display:inline;fill:#353535;fill-opacity:0.5;stroke:#d9d9d9;stroke-width:2;stroke-linejoin:round;stroke-miterlimit:4;stroke-dasharray:none;stroke-opacity:1" sodipodi:nodetypes="cccccccccc"/>
		<path inkscape:connector-curvature="0" id="path8956-2-8-8-2-1" d="M 165,15.982773 V 3 h 9.31856 5.10334 L 185,8.9999999 V 17.946422 29 H 175.96522 165 Z" style="display:inline;fill:#353535;fill-opacity:0.5;stroke:#d9d9d9;stroke-width:2;stroke-linejoin:round;stroke-miterlimit:4;stroke-dasharray:none;stroke-opacity:1" sodipodi:nodetypes="cccccccccc"/>
		<circle r="5.578125" cy="16.454296" cx="110.875" id="circle8776" style="display:inline;opacity:1;fill:none;fill-opacity:1;stroke:#ffffff;stroke-width:1.59375;stroke-miterlimit:4;stroke-dasharray:none;stroke-opacity:1"/>
		<rect y="15.023129" x="141.69383" height="6.8692408" width="6.8692408" id="rect8778" style="display:inline;opacity:1;fill:none;fill-opacity:1;stroke:#ffffff;stroke-width:1.37385;stroke-miterlimit:4;stroke-dasharray:none;stroke-opacity:1"/>
		<path sodipodi:nodetypes="ccccc" inkscape:connector-curvature="0" id="path8780" d="m 148.74522,14.901699 -6.12518,-4.038207 h -5.08585 v 5.047758 l 4.07378,6.152852" style="display:inline;opacity:1;fill:none;fill-opacity:1;stroke:#ffffff;stroke-width:1.37385;stroke-miterlimit:4;stroke-dasharray:none;stroke-opacity:1"/>
		<path sodipodi:nodetypes="cc" inkscape:connector-curvature="0" id="path8782" d="m 137.53419,10.984924 4.15965,4.038206" style="display:inline;opacity:1;fill:none;fill-opacity:1;stroke:#ffffff;stroke-width:1.37385;stroke-miterlimit:4;stroke-dasharray:none;stroke-opacity:1"/>
		<path inkscape:connector-curvature="0" id="path8956-2-8-8-2-0" d="M 197,15.982773 V 3 h 9.31856 5.10334 L 217,8.9999997 V 17.946422 29 H 207.96522 197 Z" style="display:inline;fill:#353535;fill-opacity:0.5;stroke:#d9d9d9;stroke-width:2;stroke-linejoin:round;stroke-miterlimit:4;stroke-dasharray:none;stroke-opacity:1" sodipodi:nodetypes="cccccccccc"/>
		<rect y="15.02313" x="205.69385" height="6.8692408" width="6.8692408" id="rect8778-9" style="display:inline;fill:none;fill-opacity:1;stroke:#ffffff;stroke-width:1.37385;stroke-miterlimit:4;stroke-dasharray:none;stroke-opacity:1"/>
		<path sodipodi:nodetypes="ccccc" inkscape:connector-curvature="0" id="path8780-0" d="m 212.74522,14.901699 -6.12518,-4.038207 h -5.08585 v 5.047758 l 4.07378,6.152852" style="display:inline;fill:none;fill-opacity:1;stroke:#ffffff;stroke-width:1.37385;stroke-miterlimit:4;stroke-dasharray:none;stroke-opacity:1"/>
		<path sodipodi:nodetypes="cc" inkscape:connector-curvature="0" id="path8782-1" d="m 201.53419,10.984924 4.15965,4.038206" style="display:inline;fill:none;fill-opacity:1;stroke:#ffffff;stroke-width:1.37385;stroke-miterlimit:4;stroke-dasharray:none;stroke-opacity:1"/>
		<path inkscape:connector-curvature="0" id="path8784" d="m 178.5,4.641795 v 22.6875" style="display:inline;opacity:1;fill:none;fill-opacity:1;stroke:#ffffff;stroke-width:1;stroke-miterlimit:4;stroke-dasharray:none;stroke-opacity:1" sodipodi:nodetypes="cc"/>
		<path inkscape:connector-curvature="0" id="path8786" d="m 172,24.329295 6,-9 -3.125,-3.8125" style="display:inline;opacity:1;fill:none;fill-opacity:1;stroke:#ffffff;stroke-width:1;stroke-miterlimit:4;stroke-dasharray:none;stroke-opacity:1" sodipodi:nodetypes="ccc"/>
		<path inkscape:connector-curvature="0" id="path8956-2-8-8-29-8" d="M 261,15.982773 V 3 h 9.31856 5.10334 L 281,9 V 17.946422 29 H 271.96522 261 Z" style="display:inline;fill:#353535;fill-opacity:0.5;stroke:#d9d9d9;stroke-width:2;stroke-linejoin:round;stroke-miterlimit:4;stroke-dasharray:none;stroke-opacity:1" sodipodi:nodetypes="cccccccccc"/>
		<path inkscape:connector-curvature="0" id="path8956-2-8-8-29-8-7" d="M 293,15.982773 V 3 h 9.31856 5.10334 L 313,9 V 17.946422 29 H 303.96522 293 Z" style="display:inline;fill:#353535;fill-opacity:0.5;stroke:#d9d9d9;stroke-width:2;stroke-linejoin:round;stroke-miterlimit:4;stroke-dasharray:none;stroke-opacity:1" sodipodi:nodetypes="cccccccccc"/>
		<path inkscape:connector-curvature="0" id="path8956-2-8-8-29-8-7-3" d="M 325,15.982773 V 3 h 9.31856 5.10334 L 345,9 V 17.946422 29 H 335.96522 325 Z" style="display:inline;fill:#353535;fill-opacity:0.5;stroke:#d9d9d9;stroke-width:2;stroke-linejoin:round;stroke-miterlimit:4;stroke-dasharray:none;stroke-opacity:1" sodipodi:nodetypes="cccccccccc"/>
		<circle r="2.947536" cy="10.421795" cx="270.60507" id="circle8800" style="display:inline;opacity:1;fill:none;fill-opacity:1;stroke:#ffffff;stroke-width:1.17901;stroke-miterlimit:4;stroke-dasharray:none;stroke-opacity:1"/>
		<path inkscape:connector-curvature="0" id="path8802" d="m 267.65754,25.159475 3.53704,-4.716058 3.53704,4.716058" style="display:inline;opacity:1;fill:none;fill-opacity:1;stroke:#ffffff;stroke-width:1.17901;stroke-miterlimit:4;stroke-dasharray:none;stroke-opacity:1"/>
		<path sodipodi:nodetypes="cc" inkscape:connector-curvature="0" id="path8804" d="m 265.29951,16.906374 11.13218,-1.283225" style="display:inline;opacity:1;fill:none;fill-opacity:1;stroke:#ffffff;stroke-width:1.17901;stroke-miterlimit:4;stroke-dasharray:none;stroke-opacity:1"/>
		<path sodipodi:nodetypes="cc" inkscape:connector-curvature="0" id="path8806" d="m 270.77774,13.26512 0.41684,7.178297" style="display:inline;opacity:1;fill:none;fill-opacity:1;stroke:#ffffff;stroke-width:1.17901;stroke-miterlimit:4;stroke-dasharray:none;stroke-opacity:1"/>
		<path sodipodi:nodetypes="cccc" inkscape:connector-curvature="0" id="path8808" d="m 298.85227,10.530453 v 12.54071 l 8.88631,-6.193347 z" style="display:inline;opacity:1;fill:none;fill-opacity:1;stroke:#ffffff;stroke-width:1.26947;stroke-miterlimit:4;stroke-dasharray:none;stroke-opacity:1"/>
		<path inkscape:connector-curvature="0" id="path8810" d="m 328.75,11.159637 c 10.85431,0 10.85431,0 10.85431,0" style="display:inline;opacity:1;fill:none;fill-opacity:1;stroke:#ffffff;stroke-width:1.20603;stroke-miterlimit:4;stroke-dasharray:none;stroke-opacity:1"/>
		<path inkscape:connector-curvature="0" id="path8812" d="m 335.98621,7.5415331 3.6181,3.6181039 -3.6181,3.618103" style="display:inline;opacity:1;fill:none;fill-opacity:1;stroke:#ffffff;stroke-width:1.20603;stroke-miterlimit:4;stroke-dasharray:none;stroke-opacity:1"/>
		<path style="display:inline;opacity:1;fill:none;fill-opacity:1;stroke:#ffffff;stroke-width:1.20603;stroke-miterlimit:4;stroke-dasharray:none;stroke-opacity:1" d="m 340.45711,21.926176 c -10.85431,0 -10.85431,0 -10.85431,0" id="path8814" inkscape:connector-curvature="0"/>
		<path style="display:inline;opacity:1;fill:none;fill-opacity:1;stroke:#ffffff;stroke-width:1.20603;stroke-miterlimit:4;stroke-dasharray:none;stroke-opacity:1" d="m 333.2209,18.308073 -3.6181,3.618103 3.6181,3.618104" id="path8816" inkscape:connector-curvature="0"/>
		<path inkscape:connector-curvature="0" id="path8956-2-8-8-29-8-7-8" d="M 357,15.982773 V 3 h 9.31856 5.10334 L 377,9 V 17.946422 29 H 367.96522 357 Z" style="display:inline;fill:#353535;fill-opacity:0.5;stroke:#d9d9d9;stroke-width:2;stroke-linejoin:round;stroke-miterlimit:4;stroke-dasharray:none;stroke-opacity:1" sodipodi:nodetypes="cccccccccc"/>
		<path sodipodi:nodetypes="cc" inkscape:connector-curvature="0" id="path8818" d="m 361.34221,10.013064 c 4.69571,-2.9557074 7.42044,2.270663 11.01034,0" style="display:inline;opacity:1;fill:none;fill-opacity:1;stroke:#ffffff;stroke-width:1.20561;stroke-miterlimit:4;stroke-dasharray:none;stroke-opacity:1"/>
		<path inkscape:connector-curvature="0" id="path8820" d="m 370.9871,10.526023 c 0,12.056107 0,12.056107 0,12.056107" style="display:inline;opacity:1;fill:none;fill-opacity:1;stroke:#ffffff;stroke-width:1.20561;stroke-miterlimit:4;stroke-dasharray:none;stroke-opacity:1"/>
		<circle r="1.8084161" cy="22.671974" cx="369.17868" id="circle8822" style="display:inline;opacity:1;fill:none;fill-opacity:1;stroke:#ffffff;stroke-width:1.20561;stroke-miterlimit:4;stroke-dasharray:none;stroke-opacity:1"/>
		<path style="display:inline;opacity:1;fill:none;fill-opacity:1;stroke:#ffffff;stroke-width:1.20561;stroke-miterlimit:4;stroke-dasharray:none;stroke-opacity:1" d="m 364.85979,9.193999 c 0,12.056107 0,12.056107 0,12.056107" id="path8824" inkscape:connector-curvature="0"/>
		<circle style="display:inline;opacity:1;fill:none;fill-opacity:1;stroke:#ffffff;stroke-width:1.20561;stroke-miterlimit:4;stroke-dasharray:none;stroke-opacity:1" id="circle8826" cx="363.05136" cy="21.339954" r="1.8084161"/>
		<path inkscape:connector-curvature="0" id="path8956-2-8-8-29-8-7-5" d="M 389,15.982773 V 3 h 9.31856 5.10334 L 409,9 V 17.946422 29 H 399.96522 389 Z" style="display:inline;fill:#353535;fill-opacity:0.5;stroke:#d9d9d9;stroke-width:2;stroke-linejoin:round;stroke-miterlimit:4;stroke-dasharray:none;stroke-opacity:1" sodipodi:nodetypes="cccccccccc"/>
		<path inkscape:connector-curvature="0" id="path8956-2-8-8-29-8-7-8-0-8" d="M 453,15.982773 V 3 h 9.31856 5.10334 L 473,9 V 17.946422 29 H 463.96522 453 Z" style="display:inline;fill:#353535;fill-opacity:0.5;stroke:#d9d9d9;stroke-width:2;stroke-linejoin:round;stroke-miterlimit:4;stroke-dasharray:none;stroke-opacity:1" sodipodi:nodetypes="cccccccccc"/>
		<path inkscape:connector-curvature="0" id="path8846" d="m 456.71632,6.0311979 v 4.0022381 h 5.33632 V 6.0311979" style="display:inline;opacity:1;fill:none;fill-opacity:1;stroke:#fefefe;stroke-width:1.33408;stroke-miterlimit:4;stroke-dasharray:none;stroke-opacity:1"/>
		<path style="display:inline;opacity:1;fill:none;fill-opacity:1;stroke:#fefefe;stroke-width:1.33408;stroke-miterlimit:4;stroke-dasharray:none;stroke-opacity:1" d="m 460.90266,13.637146 v 4.002239 h 5.33632 v -4.002239" id="path8848" inkscape:connector-curvature="0"/>
		<path inkscape:connector-curvature="0" id="path8850" d="m 464.32254,21.478928 v 4.002239 h 5.33632 v -4.002239" style="display:inline;opacity:1;fill:none;fill-opacity:1;stroke:#fefefe;stroke-width:1.33408;stroke-miterlimit:4;stroke-dasharray:none;stroke-opacity:1"/>
		<path inkscape:connector-curvature="0" id="path8956-2-8-8-29-8-7-8-0-8-3" d="M 485,15.982773 V 3 h 9.31856 5.10334 L 505,9 V 17.946422 29 H 495.96522 485 Z" style="display:inline;fill:#353535;fill-opacity:0.5;stroke:#d9d9d9;stroke-width:2;stroke-linejoin:round;stroke-miterlimit:4;stroke-dasharray:none;stroke-opacity:1" sodipodi:nodetypes="cccccccccc"/>
		<path inkscape:connector-curvature="0" id="path8956-2-8-8-29-8-7-8-0-8-3-6" d="M 517,15.982773 V 3 h 9.31856 5.10334 L 537,9 V 17.946422 29 H 527.96522 517 Z" style="display:inline;fill:#353535;fill-opacity:0.5;stroke:#d9d9d9;stroke-width:2;stroke-linejoin:round;stroke-miterlimit:4;stroke-dasharray:none;stroke-opacity:1" sodipodi:nodetypes="cccccccccc"/>
		<path inkscape:connector-curvature="0" id="path8956-2-8-8-29-8-7-8-0-8-3-6-7" d="M 549,15.982773 V 3 h 9.31856 5.10334 L 569,9 V 17.946422 29 H 559.96522 549 Z" style="display:inline;fill:#353535;fill-opacity:0.5;stroke:#d9d9d9;stroke-width:2;stroke-linejoin:round;stroke-miterlimit:4;stroke-dasharray:none;stroke-opacity:1" sodipodi:nodetypes="cccccccccc"/>
		<path inkscape:connector-curvature="0" id="path8956-2-8-8-29-8-7-8-0-8-3-6-7-56" d="M 613,15.982773 V 3 h 9.31856 5.10334 L 633,9 V 17.946422 29 H 623.96522 613 Z" style="display:inline;fill:#353535;fill-opacity:0.5;stroke:#d9d9d9;stroke-width:2;stroke-linejoin:round;stroke-miterlimit:4;stroke-dasharray:none;stroke-opacity:1" sodipodi:nodetypes="cccccccccc"/>
		<path inkscape:connector-curvature="0" id="path8956-2-8-8-29-8-7-8-0-8-3-6-7-5" d="M 581,15.982773 V 3 h 9.31856 5.10334 L 601,9 V 17.946422 29 H 591.96522 581 Z" style="display:inline;fill:#353535;fill-opacity:0.5;stroke:#d9d9d9;stroke-width:2;stroke-linejoin:round;stroke-miterlimit:4;stroke-dasharray:none;stroke-opacity:1" sodipodi:nodetypes="cccccccccc"/>
		<circle r="3.1587758" cy="15.841225" cx="495" id="circle8852" style="display:inline;opacity:1;fill:none;fill-opacity:1;stroke:#ffffff;stroke-width:1.26351;stroke-miterlimit:4;stroke-dasharray:none;stroke-opacity:1"/>
		<path sodipodi:nodetypes="cc" inkscape:connector-curvature="0" id="path8854" d="m 495.20583,6.9999375 0.0558,4.2164445" style="display:inline;opacity:1;fill:none;fill-opacity:1;stroke:#ffffff;stroke-width:1.26351;stroke-miterlimit:4;stroke-dasharray:none;stroke-opacity:1"/>
		<path sodipodi:nodetypes="cc" inkscape:connector-curvature="0" id="path8856" d="m 489.25836,9.0802389 2.63869,2.6178971" style="display:inline;opacity:1;fill:none;fill-opacity:1;stroke:#ffffff;stroke-width:1.26351;stroke-miterlimit:4;stroke-dasharray:none;stroke-opacity:1"/>
		<path sodipodi:nodetypes="cc" inkscape:connector-curvature="0" id="path8858" d="m 487.45725,15.153628 3.12045,0.05583" style="display:inline;opacity:1;fill:none;fill-opacity:1;stroke:#ffffff;stroke-width:1.26351;stroke-miterlimit:4;stroke-dasharray:none;stroke-opacity:1"/>
		<path sodipodi:nodetypes="cc" inkscape:connector-curvature="0" id="path8860" d="m 491.58282,19.446716 -2.86206,2.97374" style="display:inline;opacity:1;fill:none;fill-opacity:1;stroke:#ffffff;stroke-width:1.26351;stroke-miterlimit:4;stroke-dasharray:none;stroke-opacity:1"/>
		<path sodipodi:nodetypes="cc" inkscape:connector-curvature="0" id="path8862" d="m 495.20583,20.319348 v 4.216445" style="display:inline;opacity:1;fill:none;fill-opacity:1;stroke:#ffffff;stroke-width:1.26351;stroke-miterlimit:4;stroke-dasharray:none;stroke-opacity:1"/>
		<path sodipodi:nodetypes="cc" inkscape:connector-curvature="0" id="path8864" d="m 498.15876,18.999998 2.56206,2.673736" style="display:inline;opacity:1;fill:none;fill-opacity:1;stroke:#ffffff;stroke-width:1.26351;stroke-miterlimit:4;stroke-dasharray:none;stroke-opacity:1"/>
		<path inkscape:connector-curvature="0" id="path8866" d="m 499.42227,15.209467 h 2.52702" style="display:inline;opacity:1;fill:none;fill-opacity:1;stroke:#ffffff;stroke-width:1.26351;stroke-miterlimit:4;stroke-dasharray:none;stroke-opacity:1"/>
		<path sodipodi:nodetypes="cc" inkscape:connector-curvature="0" id="path8868" d="M 498.49381,12.033174 501.1325,9.5061531" style="display:inline;opacity:1;fill:none;fill-opacity:1;stroke:#ffffff;stroke-width:1.26351;stroke-miterlimit:4;stroke-dasharray:none;stroke-opacity:1"/>
		<path sodipodi:nodetypes="cscccscsc" inkscape:connector-curvature="0" id="path8870" d="m 524.19975,17.754586 c 0,0 -1.15255,3.868659 -3.45761,1.056974 -1.19133,-1.453148 0.23487,-4.690749 0.23487,-4.690749 0,0 -1.91591,-3.127166 6.30956,-3.127166 8.22547,0 6.30957,3.127166 6.30957,3.127166 0,0 1.4262,3.237601 0.23487,4.690749 -2.30507,2.811685 -3.45761,-1.056974 -3.45761,-1.056974 0,0 -0.6827,-1.857189 -3.08683,-1.857186 -2.91067,2e-6 -3.08682,1.857186 -3.08682,1.857186 z" style="display:inline;opacity:1;fill:none;fill-opacity:1;stroke:#ffffff;stroke-width:1.3287;stroke-miterlimit:4;stroke-dasharray:none;stroke-opacity:1"/>
		<path inkscape:connector-curvature="0" id="path8872" d="m 563.10264,26.183741 c -1.0999,-13.198834 -4.39961,-14.298737 -4.39961,-14.298737" style="display:inline;opacity:1;fill:none;fill-opacity:1;stroke:#ffffff;stroke-width:1.0999;stroke-miterlimit:4;stroke-dasharray:none;stroke-opacity:1"/>
		<circle r="1.0999029" cy="9.307107" cx="560.38739" id="circle8874" style="display:inline;opacity:1;fill:#fafafa;fill-opacity:1;stroke:none;stroke-width:1.0999;stroke-miterlimit:4;stroke-dasharray:none;stroke-opacity:1"/>
		<circle style="display:inline;opacity:1;fill:#ffffff;fill-opacity:1;stroke:none;stroke-width:1.0999;stroke-miterlimit:4;stroke-dasharray:none;stroke-opacity:1" id="circle8876" cx="556.02216" cy="14.978481" r="1.0999029"/>
		<circle r="1.0999029" cy="11.335053" cx="553.34113" id="circle8878" style="display:inline;opacity:1;fill:#fafafa;fill-opacity:1;stroke:none;stroke-width:1.0999;stroke-miterlimit:4;stroke-dasharray:none;stroke-opacity:1"/>
		<circle style="display:inline;opacity:1;fill:#fafafa;fill-opacity:1;stroke:none;stroke-width:1.0999;stroke-miterlimit:4;stroke-dasharray:none;stroke-opacity:1" id="circle8880" cx="556.02216" cy="6.8666978" r="1.0999029"/>
		<path inkscape:transform-center-y="-0.11319301" inkscape:transform-center-x="-0.12457253" d="m 558,76 -1.15953,-1.03999 -1.43357,0.609081 0.63078,-1.424154 -1.02227,-1.175186 1.54937,0.159815 0.80177,-1.335385 0.32679,1.522924 1.51779,0.349872 -1.3474,0.781405 z" inkscape:randomized="0" inkscape:rounded="0" inkscape:flatsided="false" sodipodi:arg2="1.7354672" sodipodi:arg1="1.1071487" sodipodi:r2="0.97317481" sodipodi:r1="2.236068" sodipodi:cy="74" sodipodi:cx="557" sodipodi:sides="5" id="path8882" style="display:inline;opacity:1;fill:#ffffff;fill-opacity:1;stroke:none;stroke-width:1;stroke-miterlimit:4;stroke-dasharray:none;stroke-opacity:1" sodipodi:type="star" transform="matrix(1.0999028,0,0,1.0999028,-56.142631,-70.607708)"/>
		<circle r="0.68743926" cy="18.312561" cx="556.43457" id="circle8884" style="display:inline;opacity:1;fill:#fafafa;fill-opacity:1;stroke:none;stroke-width:1.0999;stroke-miterlimit:4;stroke-dasharray:none;stroke-opacity:1"/>
		<circle style="display:inline;opacity:1;fill:#fafafa;fill-opacity:1;stroke:none;stroke-width:1.0999;stroke-miterlimit:4;stroke-dasharray:none;stroke-opacity:1" id="circle8886" cx="553.2724" cy="16.044012" r="0.68743926"/>
		<circle r="0.68743926" cy="11.403797" cx="563.82458" id="circle8888" style="display:inline;opacity:1;fill:#fafafa;fill-opacity:1;stroke:none;stroke-width:1.0999;stroke-miterlimit:4;stroke-dasharray:none;stroke-opacity:1"/>
		<circle style="display:inline;opacity:1;fill:#fafafa;fill-opacity:1;stroke:none;stroke-width:1.0999;stroke-miterlimit:4;stroke-dasharray:none;stroke-opacity:1" id="circle8890" cx="562.20911" cy="7.038558" r="0.68743926"/>
		<g id="g1" style="stroke:#ffffff;stroke-opacity:1" transform="matrix(1.1871077,0,0,1.1871077,-111.48469,-2.3475347)">
			<rect y="9.6417952" x="586.375" height="4" width="4" id="rect8892" style="display:inline;opacity:1;fill:none;fill-opacity:1;stroke:#ffffff;stroke-width:1;stroke-miterlimit:4;stroke-dasharray:none;stroke-opacity:1"/>
			<rect style="display:inline;opacity:1;fill:none;fill-opacity:1;stroke:#ffffff;stroke-width:1;stroke-miterlimit:4;stroke-dasharray:none;stroke-opacity:1" id="rect8894" width="4" height="4" x="589.625" y="18.579294"/>
			<rect y="9.7042952" x="593" height="4" width="4" id="rect8896" style="display:inline;opacity:1;fill:none;fill-opacity:1;stroke:#ffffff;stroke-width:1;stroke-miterlimit:4;stroke-dasharray:none;stroke-opacity:1"/>
			<path sodipodi:nodetypes="cccc" inkscape:connector-curvature="0" id="path8898" d="m 588,13.329295 v 3 h 7 v -2.5" style="display:inline;opacity:1;fill:none;fill-opacity:1;stroke:#ffffff;stroke-width:1;stroke-miterlimit:4;stroke-dasharray:none;stroke-opacity:1"/>
			<path sodipodi:nodetypes="cc" inkscape:connector-curvature="0" id="path8900" d="m 591.65625,18.641795 v -2.34375" style="display:inline;opacity:1;fill:none;fill-opacity:1;stroke:#ffffff;stroke-width:1;stroke-miterlimit:4;stroke-dasharray:none;stroke-opacity:1"/>
		</g>
		<g id="g2" style="stroke:#ffffff;stroke-width:1.21646921;stroke-dasharray:none;stroke-opacity:1" transform="matrix(1.2774676,0,0,1.2774676,-174.36535,-5.0970876)">
			<rect ry="0.56906408" rx="0.56906408" y="15.108806" x="618.97424" height="6.639081" width="10.432841" id="rect8902" style="display:inline;opacity:1;fill:none;fill-opacity:1;stroke:#ffffff;stroke-width:1.21646921;stroke-miterlimit:4;stroke-dasharray:none;stroke-opacity:1"/>
			<path sodipodi:nodetypes="cccc" inkscape:connector-curvature="0" id="path8904" d="m 621.81954,15.108803 v -2.159055 c 0,-1.89688 4.7422,-1.89688 4.7422,0 v 2.159055" style="display:inline;opacity:1;fill:none;fill-opacity:1;stroke:#ffffff;stroke-width:1.21646921;stroke-miterlimit:4;stroke-dasharray:none;stroke-opacity:1"/>
		</g>
		<path inkscape:connector-curvature="0" id="path8956" d="M 5,15.982773 V 3 h 9.318566 5.103335 L 25,9 V 17.946422 29 H 15.965222 5 Z" style="display:inline;opacity:1;fill:#353535;fill-opacity:0.5;stroke:#d9d9d9;stroke-width:2;stroke-linejoin:round;stroke-miterlimit:4;stroke-dasharray:none;stroke-opacity:1" sodipodi:nodetypes="cccccccccc"/>
		<path inkscape:connector-curvature="0" id="path9014" d="m 171.22812,10.915575 c -1.67277,-1.3158011 -1.2371,-3.720007 0.81505,-4.4976105 1.4698,-0.556946 3.28503,0.8275553 3.28503,2.5055364 0,0.729197 -0.14844,1.053344 -0.7647,1.6695751 -0.6413,0.641311 -0.92674,0.764697 -1.76895,0.764697 -0.65793,0 -1.19813,-0.152489 -1.56643,-0.442198 z" style="display:inline;opacity:1;fill:#ffff4c;fill-opacity:1;stroke:none;stroke-width:3.59857;stroke-linejoin:round;stroke-miterlimit:4;stroke-dasharray:none;stroke-opacity:1"/>
		<path inkscape:connector-curvature="0" id="path8956-2-8-8-29" d="M 229,15.982773 V 3 h 9.31856 5.10334 L 249,9 V 17.946422 29 H 239.96522 229 Z" style="display:inline;fill:#353535;fill-opacity:0.5;stroke:#d9d9d9;stroke-width:2;stroke-linejoin:round;stroke-miterlimit:4;stroke-dasharray:none;stroke-opacity:1" sodipodi:nodetypes="cccccccccc"/>
		<circle r="5.578125" cy="16.454296" cx="238.875" id="circle8776-3" style="display:inline;fill:none;fill-opacity:1;stroke:#ffffff;stroke-width:1.59375;stroke-miterlimit:4;stroke-dasharray:none;stroke-opacity:1"/>
		<path inkscape:connector-curvature="0" id="path8956-2-8-8-29-8-7-8-0" d="M 421,15.982773 V 3 h 9.31856 5.10334 L 441,9.0000002 V 17.946422 29 H 431.96522 421 Z" style="display:inline;fill:#353535;fill-opacity:0.5;stroke:#d9d9d9;stroke-width:2;stroke-linejoin:round;stroke-miterlimit:4;stroke-dasharray:none;stroke-opacity:1" sodipodi:nodetypes="cccccccccc"/>
		<path sodipodi:nodetypes="cc" inkscape:connector-curvature="0" id="path8818-4" d="m 425.34221,10.013064 c 4.69571,-2.9557074 7.42044,2.270663 11.01034,0" style="display:inline;fill:none;fill-opacity:1;stroke:#ffffff;stroke-width:1.20561;stroke-miterlimit:4;stroke-dasharray:none;stroke-opacity:1"/>
		<path inkscape:connector-curvature="0" id="path8820-1" d="m 434.9871,10.526023 c 0,12.056107 0,12.056107 0,12.056107" style="display:inline;fill:none;fill-opacity:1;stroke:#ffffff;stroke-width:1.20561;stroke-miterlimit:4;stroke-dasharray:none;stroke-opacity:1"/>
		<circle r="1.8084161" cy="22.671974" cx="433.17868" id="circle8822-9" style="display:inline;fill:none;fill-opacity:1;stroke:#ffffff;stroke-width:1.20561;stroke-miterlimit:4;stroke-dasharray:none;stroke-opacity:1"/>
		<path style="display:inline;fill:none;fill-opacity:1;stroke:#ffffff;stroke-width:1.20561;stroke-miterlimit:4;stroke-dasharray:none;stroke-opacity:1" d="m 428.85979,9.1939992 c 0,12.0561068 0,12.0561068 0,12.0561068" id="path8824-9" inkscape:connector-curvature="0"/>
		<circle style="display:inline;fill:none;fill-opacity:1;stroke:#ffffff;stroke-width:1.20561;stroke-miterlimit:4;stroke-dasharray:none;stroke-opacity:1" id="circle8826-6" cx="427.05136" cy="21.339954" r="1.8084161"/>
		<path inkscape:connector-curvature="0" id="path8956-2-8-8-29-8-7-8-0-8-3-6-7-56-9" d="M 645,15.982773 V 3 h 9.31856 5.10334 L 665,9 V 17.946422 29 H 655.96522 645 Z" style="display:inline;fill:#353535;fill-opacity:0.5;stroke:#d9d9d9;stroke-width:2;stroke-linejoin:round;stroke-miterlimit:4;stroke-dasharray:none;stroke-opacity:1" sodipodi:nodetypes="cccccccccc"/>
		<path inkscape:connector-curvature="0" id="path8956-2-8-8-29-8-7-8-0-8-3-6-7-56-2" d="M 677,15.982773 V 3 h 9.31856 5.10334 L 697,9 V 17.946422 29 H 687.96522 677 Z" style="display:inline;fill:#353535;fill-opacity:0.5;stroke:#d9d9d9;stroke-width:2;stroke-linejoin:round;stroke-miterlimit:4;stroke-dasharray:none;stroke-opacity:1" sodipodi:nodetypes="cccccccccc"/>
		<path inkscape:connector-curvature="0" id="path8956-2-8-8-29-8-7-8-0-8-3-6-7-56-0" d="M 709,15.982773 V 3 h 9.31856 5.10334 L 729,9 V 17.946422 29 H 719.96522 709 Z" style="display:inline;fill:#353535;fill-opacity:0.5;stroke:#d9d9d9;stroke-width:2;stroke-linejoin:round;stroke-miterlimit:4;stroke-dasharray:none;stroke-opacity:1" sodipodi:nodetypes="cccccccccc"/>
		<path inkscape:connector-curvature="0" id="path166335-5-7" d="m 398.53756,23.661132 c -0.069,-0.158853 -0.12696,-0.628857 -0.12873,-1.044397 l -0.003,-0.755604 -0.65196,-0.163728 c -0.35858,-0.0901 -0.67404,-0.163728 -0.70102,-0.163728 -0.027,0 -0.10626,0.17331 -0.17617,0.385114 -0.0699,0.211805 -0.31366,0.587505 -0.54166,0.834862 l -0.41455,0.449748 -0.36982,-0.176335 c -0.36738,-0.175159 -0.36936,-0.179782 -0.30124,-0.703577 0.046,-0.353259 0.17066,-0.655165 0.37802,-0.914961 0.1702,-0.213317 0.30945,-0.428063 0.30945,-0.477232 0,-0.04875 -0.21168,-0.297031 -0.47039,-0.550944 l -0.47038,-0.461683 -0.45784,0.328801 c -0.29431,0.211384 -0.6439,0.353512 -0.97876,0.39789 -0.49117,0.06472 -0.52816,0.05295 -0.6477,-0.209115 -0.0697,-0.153054 -0.12678,-0.341492 -0.12678,-0.418734 0,-0.216511 0.76811,-0.860077 1.19447,-1.000775 0.2098,-0.06892 0.38145,-0.148011 0.38145,-0.174991 0,-0.0269 -0.0744,-0.345191 -0.16531,-0.707107 l -0.16531,-0.658106 -0.59639,0.0395 c -0.35024,0.02353 -0.76983,-0.02185 -1.01663,-0.109516 -0.39034,-0.138598 -0.42024,-0.177681 -0.42024,-0.548338 0,-0.370742 0.0299,-0.409741 0.42024,-0.548338 0.2468,-0.08766 0.66639,-0.132882 1.01663,-0.109516 l 0.59639,0.0395 0.16531,-0.658107 c 0.0909,-0.362 0.16531,-0.680211 0.16531,-0.707191 0,-0.02689 -0.17165,-0.10565 -0.38145,-0.174906 -0.42636,-0.140699 -1.19447,-0.784349 -1.19447,-1.00086 0,-0.07733 0.0571,-0.265596 0.12678,-0.41865 0.11954,-0.262402 0.15653,-0.274337 0.6477,-0.209198 0.33486,0.04455 0.68445,0.186589 0.97876,0.397889 l 0.45784,0.328801 0.47038,-0.461599 c 0.25871,-0.253913 0.47039,-0.504128 0.47039,-0.555986 0,-0.05211 -0.13908,-0.269967 -0.30906,-0.484545 -0.20361,-0.257106 -0.3326,-0.567585 -0.37802,-0.910086 -0.0684,-0.515474 -0.0659,-0.521274 0.30085,-0.69618 l 0.36982,-0.176336 0.41455,0.449748 c 0.228,0.247357 0.47175,0.623058 0.54166,0.834862 0.0699,0.211889 0.14919,0.385198 0.17617,0.385198 0.027,0 0.34937,-0.07564 0.71641,-0.167678 l 0.66735,-0.167595 -0.0498,-0.59406 c -0.031,-0.369565 0.007,-0.752914 0.0996,-1.014308 0.13715,-0.3857021 0.18407,-0.4228519 0.57083,-0.4518489 0.41791,-0.031098 0.42251,-0.027736 0.55476,0.4447889 0.0734,0.261898 0.11203,0.733415 0.086,1.047675 l -0.0474,0.571452 0.65993,0.165745 c 0.36296,0.09119 0.67925,0.165829 0.70286,0.165829 0.0236,0 0.12303,-0.209787 0.22093,-0.466137 0.0979,-0.256351 0.36337,-0.633564 0.58993,-0.838224 l 0.41191,-0.372171 0.35457,0.209199 0.35456,0.209199 -0.11599,0.507826 c -0.0638,0.279212 -0.25384,0.706182 -0.42233,0.948749 l -0.30634,0.441007 0.45954,0.468238 c 0.25276,0.257528 0.49976,0.468239 0.5489,0.468239 0.0491,0 0.26387,-0.139269 0.47717,-0.309469 0.26188,-0.208947 0.55841,-0.330734 0.91313,-0.375113 0.50982,-0.06388 0.53087,-0.05547 0.71398,0.273833 l 0.18867,0.339475 -0.393,0.402429 c -0.21615,0.221386 -0.59654,0.480258 -0.84531,0.575233 -0.24877,0.09506 -0.4523,0.19407 -0.4523,0.220042 0,0.02605 0.0788,0.342837 0.175,0.704081 l 0.17501,0.656761 0.4993,-0.04791 c 0.27461,-0.02605 0.73955,0.01009 1.0332,0.07985 l 0.5339,0.128091 v 0.45185 0.451765 l -0.5339,0.128091 c -0.29365,0.0706 -0.75859,0.10649 -1.0332,0.07985 l -0.4993,-0.04791 -0.17501,0.656761 c -0.0962,0.361244 -0.175,0.678026 -0.175,0.704081 0,0.02606 0.20353,0.124982 0.4523,0.219958 0.24877,0.09506 0.62916,0.353847 0.84531,0.575233 l 0.393,0.402428 -0.18867,0.339476 c -0.18311,0.329473 -0.20416,0.337542 -0.71398,0.273832 -0.35472,-0.04455 -0.65125,-0.166081 -0.91313,-0.375028 -0.2133,-0.1702 -0.42803,-0.309469 -0.47717,-0.309469 -0.0491,0 -0.29614,0.210711 -0.5489,0.468239 l -0.45954,0.468238 0.30634,0.441007 c 0.16849,0.242483 0.35854,0.669453 0.42233,0.948749 l 0.11599,0.507742 L 402.59041,23 l -0.35457,0.209199 -0.41191,-0.372171 c -0.22656,-0.20466 -0.49202,-0.581873 -0.58993,-0.838224 -0.0979,-0.25635 -0.19732,-0.466053 -0.22093,-0.466053 -0.0236,0 -0.3399,0.0748 -0.70286,0.165745 l -0.65993,0.165745 0.0474,0.571452 c 0.026,0.31426 -0.0119,0.783424 -0.0845,1.042464 -0.12733,0.454791 -0.14597,0.471012 -0.54106,0.471012 -0.34593,0 -0.4286,-0.04455 -0.5347,-0.288961 z m 1.98035,-3.911152 c 1.1328,-0.557667 1.77123,-1.599291 1.77362,-2.893818 10e-4,-0.622974 -0.0522,-0.846461 -0.34348,-1.438085 -0.58212,-1.182406 -1.60676,-1.817566 -2.9227,-1.811683 -1.83414,0.0084 -3.23205,1.413206 -3.23571,3.252037 -0.005,2.465251 2.49223,3.992343 4.72827,2.891549 z" style="display:inline;fill:#ffffff;fill-opacity:1;stroke:none;stroke-width:0.210123;stroke-linecap:butt;stroke-linejoin:round;stroke-miterlimit:4;stroke-dasharray:none;stroke-opacity:1"/>
		<circle r="1.6809868" cy="16.847593" cx="399.0672" id="path166352-4" style="display:inline;fill:#ffffff;fill-opacity:1;stroke:none;stroke-width:1.68099;stroke-linecap:butt;stroke-linejoin:round;stroke-miterlimit:4;stroke-dasharray:none;stroke-opacity:1"/>
	</g>
</svg>
