<?xml version="1.0" encoding="utf-8"?>
<svg width="16" height="16" viewBox="0 0 32 32" id="svg2" version="1.1" inkscape:version="1.3 (0e150ed6c4, 2023-07-21)" sodipodi:docname="TypeFilter.svg" inkscape:export-filename="C:\private\traktor\res\icons-new\g4486.png" inkscape:export-xdpi="90" inkscape:export-ydpi="90" xmlns:inkscape="http://www.inkscape.org/namespaces/inkscape" xmlns:sodipodi="http://sodipodi.sourceforge.net/DTD/sodipodi-0.dtd" xmlns="http://www.w3.org/2000/svg" xmlns:svg="http://www.w3.org/2000/svg" xmlns:rdf="http://www.w3.org/1999/02/22-rdf-syntax-ns#" xmlns:cc="http://creativecommons.org/ns#" xmlns:dc="http://purl.org/dc/elements/1.1/">
	<style>
	.theme_fill {
		fill: green;
	}
	.theme_stroke {
		stroke: green;
	}
	</style>
	<sodipodi:namedview id="base" pagecolor="#4d6571" bordercolor="#ffffff" borderopacity="1" inkscape:pageopacity="0" inkscape:pageshadow="2" inkscape:zoom="3.9999998" inkscape:cx="26.125001" inkscape:cy="34.750002" inkscape:document-units="px" inkscape:current-layer="Dark" showgrid="true" inkscape:snap-global="true" inkscape:snap-grids="true" inkscape:snap-to-guides="false" inkscape:window-width="1440" inkscape:window-height="777" inkscape:window-x="0" inkscape:window-y="0" inkscape:window-maximized="1" units="px" inkscape:showpageshadow="false" showborder="true" objecttolerance="10000" guidetolerance="10000" showguides="true" inkscape:pagecheckerboard="0" inkscape:deskcolor="#2c3a40">
		<inkscape:grid type="xygrid" id="grid4490" empspacing="16" snapvisiblegridlinesonly="false" originx="0" originy="0" spacingy="1" spacingx="1" units="px" visible="true"/>
	</sodipodi:namedview>
	<defs id="defs4"/>
	<metadata id="metadata7">
		<rdf:RDF>
			<cc:Work rdf:about="">
				<dc:format>image/svg+xml</dc:format>
				<dc:type rdf:resource="http://purl.org/dc/dcmitype/StillImage"/>
			</cc:Work>
		</rdf:RDF>
	</metadata>
	<g style="display:inline;opacity:1" inkscape:label="Dark" id="Dark" inkscape:groupmode="layer">
		<path style="display:inline;fill:none;fill-rule:evenodd;stroke:#000000;stroke-width:1.6054;stroke-linecap:butt;stroke-linejoin:miter;stroke-miterlimit:4;stroke-dasharray:none;stroke-opacity:1" d="m 4.7894025,9.3862998 0.07555,19.4177432 H 17.938395 V 13.285339 L 14.650323,9.3862998 Z" id="path8746" inkscape:connector-curvature="0" sodipodi:nodetypes="cccccc"/>
		<circle style="display:inline;opacity:1;fill:none;fill-opacity:1;stroke-width:3;stroke-miterlimit:4;stroke-dasharray:none;stroke-opacity:1" id="circle8748" cx="17.315498" cy="12.393257" r="8.5" class="theme_stroke"/>
		<rect style="display:inline;opacity:1;fill:#c7c7c7;fill-opacity:1;stroke:#c7c7c7;stroke-width:1;stroke-miterlimit:4;stroke-dasharray:none;stroke-opacity:1" id="rect8750" width="3" height="7" x="5.941761" y="28.599955" transform="rotate(-34.00468)"/>
		<path inkscape:connector-curvature="0" id="path9008" d="m 5.7324805,27.717753 c -0.04173,-0.108748 -0.07587,-4.074373 -0.07587,-8.8125 v -8.614777 h 1.295434 1.295437 l -0.121755,0.65625 c -0.06696,0.360938 -0.09481,1.247451 -0.06188,1.970029 0.06795,1.491089 0.499216,2.964806 1.23461,4.218873 0.566798,0.966561 2.3584275,2.735164 3.3581605,3.315001 0.986708,0.572284 2.451126,1.052264 3.55574,1.165435 l 0.81926,0.08394 v 3.107738 3.107738 H 11.41999 c -5.0017595,0 -5.6198725,-0.02149 -5.6875005,-0.197723 z" style="display:inline;opacity:1;fill:#ffffff;fill-opacity:1;stroke:none;stroke-width:2;stroke-linejoin:round;stroke-miterlimit:4;stroke-dasharray:none;stroke-opacity:1"/>
		<path inkscape:connector-curvature="0" id="path9010" d="m 15.406607,19.843466 c -2.701298,-0.709438 -4.892429,-2.939689 -5.5768585,-5.676428 -0.206173,-0.824388 -0.198088,-3.159029 0.01267,-3.660637 0.0849,-0.202062 0.2865045,-0.218575 2.2891525,-0.1875 l 2.196053,0.03408 1.343606,1.5625 1.34361,1.5625 0.0084,3.28125 0.0084,3.28125 -0.46875,-0.0082 c -0.257813,-0.0045 -0.778126,-0.08948 -1.15625,-0.188784 z" style="display:inline;opacity:1;fill:#ffffff;fill-opacity:1;stroke:none;stroke-width:2;stroke-linejoin:round;stroke-miterlimit:4;stroke-dasharray:none;stroke-opacity:1"/>
	</g>
</svg>
