<?xml version="1.0" encoding="UTF-8" standalone="no"?>
<!-- Created with Inkscape (http://www.inkscape.org/) -->

<svg
   width="16"
   height="16"
   viewBox="0 0 32 32"
   id="svg2"
   version="1.1"
   inkscape:version="1.3 (0e150ed6c4, 2023-07-21)"
   sodipodi:docname="SearchCaseSensitive.svg"
   inkscape:export-filename="C:\private\traktor\res\icons-new\g4486.png"
   inkscape:export-xdpi="90"
   inkscape:export-ydpi="90"
   xmlns:inkscape="http://www.inkscape.org/namespaces/inkscape"
   xmlns:sodipodi="http://sodipodi.sourceforge.net/DTD/sodipodi-0.dtd"
   xmlns="http://www.w3.org/2000/svg"
   xmlns:svg="http://www.w3.org/2000/svg"
   xmlns:rdf="http://www.w3.org/1999/02/22-rdf-syntax-ns#"
   xmlns:cc="http://creativecommons.org/ns#"
   xmlns:dc="http://purl.org/dc/elements/1.1/">
  <sodipodi:namedview
     id="base"
     pagecolor="#4d6571"
     bordercolor="#ffffff"
     borderopacity="1"
     inkscape:pageopacity="0"
     inkscape:pageshadow="2"
     inkscape:zoom="3.9999998"
     inkscape:cx="31.875002"
     inkscape:cy="9.7500006"
     inkscape:document-units="px"
     inkscape:current-layer="Dark"
     showgrid="true"
     inkscape:snap-global="true"
     inkscape:snap-grids="true"
     inkscape:snap-to-guides="false"
     inkscape:window-width="1440"
     inkscape:window-height="777"
     inkscape:window-x="0"
     inkscape:window-y="0"
     inkscape:window-maximized="1"
     units="px"
     inkscape:showpageshadow="false"
     showborder="true"
     objecttolerance="10000"
     guidetolerance="10000"
     showguides="true"
     inkscape:pagecheckerboard="0"
     inkscape:deskcolor="#2f3e46">
    <inkscape:grid
       type="xygrid"
       id="grid4490"
       empspacing="16"
       snapvisiblegridlinesonly="false"
       originx="0"
       originy="0"
       spacingy="1"
       spacingx="1"
       units="px"
       visible="true" />
  </sodipodi:namedview>
  <defs
     id="defs4" />
  <metadata
     id="metadata7">
    <rdf:RDF>
      <cc:Work
         rdf:about="">
        <dc:format>image/svg+xml</dc:format>
        <dc:type
           rdf:resource="http://purl.org/dc/dcmitype/StillImage" />
      </cc:Work>
    </rdf:RDF>
  </metadata>
  <g
     style="display:inline;opacity:1"
     inkscape:label="Dark"
     id="Dark"
     inkscape:groupmode="layer">
    <path
       style="font-size:25px;line-height:1.25;font-family:'Segoe UI';-inkscape-font-specification:'Segoe UI';letter-spacing:0px;word-spacing:0px;fill:#c7c7c7;stroke-width:1px"
       d="M 18.160645,24.605957 H 15.890137 L 14.034668,19.69873 H 6.612793 L 4.8671875,24.605957 H 2.5844727 L 9.2983398,7.1010742 H 11.422363 Z M 13.363281,17.855469 10.616699,10.396973 Q 10.482422,10.030762 10.348145,9.2250977 h -0.04883 q -0.12207,0.7446289 -0.280761,1.1718753 l -2.7221683,7.458496 z m 16.052246,6.750488 h -2.001953 v -1.953125 h -0.04883 q -1.306152,2.246094 -3.845215,2.246094 -1.867676,0 -2.929687,-0.98877 -1.049805,-0.988769 -1.049805,-2.624511 0,-3.503418 4.125977,-4.077149 l 3.747558,-0.524902 q 0,-3.186035 -2.575683,-3.186035 -2.258301,0 -4.077149,1.538086 v -2.050782 q 1.843262,-1.171875 4.248047,-1.171875 4.406738,0 4.406738,4.663086 z m -2.001953,-6.323242 -3.015137,0.415039 q -1.391601,0.195312 -2.099609,0.695801 -0.708008,0.488281 -0.708008,1.745605 0,0.915527 0.646973,1.501465 0.65918,0.57373 1.745605,0.57373 1.489258,0 2.453614,-1.037597 0.976562,-1.049805 0.976562,-2.648926 z"
       id="text8714"
       aria-label="Aa" />
  </g>
</svg>
