<?xml version="1.0" encoding="UTF-8" standalone="no"?>
<!-- Created with Inkscape (http://www.inkscape.org/) -->

<svg
   width="368"
   height="16"
   viewBox="0 0 736 32"
   id="svg2"
   version="1.1"
   inkscape:version="1.3 (0e150ed6c4, 2023-07-21)"
   sodipodi:docname="TypesHidden.svg"
   inkscape:export-filename="C:\private\traktor\res\icons-new\g4486.png"
   inkscape:export-xdpi="90"
   inkscape:export-ydpi="90"
   xmlns:inkscape="http://www.inkscape.org/namespaces/inkscape"
   xmlns:sodipodi="http://sodipodi.sourceforge.net/DTD/sodipodi-0.dtd"
   xmlns="http://www.w3.org/2000/svg"
   xmlns:svg="http://www.w3.org/2000/svg"
   xmlns:rdf="http://www.w3.org/1999/02/22-rdf-syntax-ns#"
   xmlns:cc="http://creativecommons.org/ns#"
   xmlns:dc="http://purl.org/dc/elements/1.1/">
  <sodipodi:namedview
     id="base"
     pagecolor="#4d6571"
     bordercolor="#ffffff"
     borderopacity="1"
     inkscape:pageopacity="0"
     inkscape:pageshadow="2"
     inkscape:zoom="1.9999999"
     inkscape:cx="195.50001"
     inkscape:cy="-4.0000002"
     inkscape:document-units="px"
     inkscape:current-layer="Dark"
     showgrid="true"
     inkscape:snap-global="true"
     inkscape:snap-grids="true"
     inkscape:snap-to-guides="false"
     inkscape:window-width="1440"
     inkscape:window-height="777"
     inkscape:window-x="0"
     inkscape:window-y="0"
     inkscape:window-maximized="1"
     units="px"
     inkscape:showpageshadow="false"
     showborder="true"
     objecttolerance="10000"
     guidetolerance="10000"
     showguides="true"
     inkscape:pagecheckerboard="0"
     inkscape:deskcolor="#314048">
    <inkscape:grid
       type="xygrid"
       id="grid4490"
       empspacing="16"
       snapvisiblegridlinesonly="false"
       originx="0"
       originy="0"
       spacingy="1"
       spacingx="1"
       units="px"
       visible="true" />
  </sodipodi:namedview>
  <defs
     id="defs4" />
  <metadata
     id="metadata7">
    <rdf:RDF>
      <cc:Work
         rdf:about="">
        <dc:format>image/svg+xml</dc:format>
        <dc:type
           rdf:resource="http://purl.org/dc/dcmitype/StillImage" />
      </cc:Work>
    </rdf:RDF>
  </metadata>
  <g
     style="display:inline;opacity:1"
     inkscape:label="Dark"
     id="Dark"
     inkscape:groupmode="layer">
    <rect
       y="9.2042952"
       x="42.75"
       height="6"
       width="5"
       id="rect8758"
       style="display:inline;opacity:0.5;fill:none;fill-opacity:1;stroke:#000000;stroke-width:1;stroke-miterlimit:4;stroke-dasharray:none;stroke-opacity:1" />
    <rect
       y="17.579294"
       x="47.75"
       height="6"
       width="5"
       id="rect8760"
       style="display:inline;opacity:0.5;fill:none;fill-opacity:1;stroke:#000000;stroke-width:1;stroke-miterlimit:4;stroke-dasharray:none;stroke-opacity:1" />
    <path
       inkscape:connector-curvature="0"
       id="path8762"
       d="m 45,15.329295 v 6 h 3"
       style="display:inline;opacity:0.5;fill:none;fill-opacity:1;stroke:#000000;stroke-width:1;stroke-miterlimit:4;stroke-dasharray:none;stroke-opacity:1" />
    <path
       inkscape:connector-curvature="0"
       id="path8764"
       d="M 73,12.329295 H 87"
       style="display:inline;opacity:0.5;fill:none;fill-opacity:1;stroke:#000000;stroke-width:1;stroke-miterlimit:4;stroke-dasharray:none;stroke-opacity:1" />
    <path
       sodipodi:nodetypes="cc"
       inkscape:connector-curvature="0"
       id="path8766"
       d="M 73,22.329295 H 87"
       style="display:inline;opacity:0.5;fill:none;fill-opacity:1;stroke:#000000;stroke-width:1;stroke-miterlimit:4;stroke-dasharray:none;stroke-opacity:1" />
    <path
       sodipodi:nodetypes="cc"
       inkscape:connector-curvature="0"
       id="path8768"
       d="M 72.75,17.329295 H 87"
       style="display:inline;opacity:0.5;fill:none;fill-opacity:1;stroke:#000000;stroke-width:1;stroke-miterlimit:4;stroke-dasharray:none;stroke-opacity:1" />
    <path
       sodipodi:nodetypes="cc"
       inkscape:connector-curvature="0"
       id="path8770"
       d="m 80,17.391795 v 4.9375"
       style="display:inline;opacity:0.5;fill:none;fill-opacity:1;stroke:#000000;stroke-width:1;stroke-miterlimit:4;stroke-dasharray:none;stroke-opacity:1" />
    <path
       sodipodi:nodetypes="cc"
       inkscape:connector-curvature="0"
       id="path8772"
       d="m 76,12.329295 v 5"
       style="display:inline;opacity:0.5;fill:none;fill-opacity:1;stroke:#000000;stroke-width:1;stroke-miterlimit:4;stroke-dasharray:none;stroke-opacity:1" />
    <path
       sodipodi:nodetypes="cc"
       inkscape:connector-curvature="0"
       id="path8774"
       d="m 84,12.391795 v 4.9375"
       style="display:inline;opacity:0.5;fill:none;fill-opacity:1;stroke:#000000;stroke-width:1;stroke-miterlimit:4;stroke-dasharray:none;stroke-opacity:1" />
    <circle
       r="3.5"
       cy="15.829295"
       cx="111.5"
       id="circle8776"
       style="display:inline;opacity:0.5;fill:none;fill-opacity:1;stroke:#000000;stroke-width:1;stroke-miterlimit:4;stroke-dasharray:none;stroke-opacity:1" />
    <rect
       y="16.329294"
       x="143"
       height="5"
       width="5"
       id="rect8778"
       style="display:inline;opacity:0.5;fill:none;fill-opacity:1;stroke:#000000;stroke-width:1;stroke-miterlimit:4;stroke-dasharray:none;stroke-opacity:1" />
    <path
       sodipodi:nodetypes="ccccc"
       inkscape:connector-curvature="0"
       id="path8780"
       d="m 148.13258,16.240907 -4.45841,-2.93934 h -3.7019 v 3.674175 l 2.96523,4.478553"
       style="display:inline;opacity:0.5;fill:none;fill-opacity:1;stroke:#000000;stroke-width:1;stroke-miterlimit:4;stroke-dasharray:none;stroke-opacity:1" />
    <path
       sodipodi:nodetypes="cc"
       inkscape:connector-curvature="0"
       id="path8782"
       d="M 139.97227,13.389955 143,16.329295"
       style="display:inline;opacity:0.5;fill:none;fill-opacity:1;stroke:#000000;stroke-width:1;stroke-miterlimit:4;stroke-dasharray:none;stroke-opacity:1" />
    <path
       inkscape:connector-curvature="0"
       id="path8784"
       d="m 178,4.329295 c 0,23 0,23 0,23"
       style="display:inline;opacity:0.5;fill:none;fill-opacity:1;stroke:#000000;stroke-width:1;stroke-miterlimit:4;stroke-dasharray:none;stroke-opacity:1" />
    <path
       inkscape:connector-curvature="0"
       id="path8786"
       d="m 172,24.329295 6,-9 -3,-4"
       style="display:inline;opacity:0.5;fill:none;fill-opacity:1;stroke:#000000;stroke-width:1;stroke-miterlimit:4;stroke-dasharray:none;stroke-opacity:1" />
    <circle
       r="2"
       cy="8.9757414"
       cx="173"
       id="circle8788"
       style="display:inline;opacity:0.5;fill:none;fill-opacity:1;stroke:#000000;stroke-width:1;stroke-miterlimit:4;stroke-dasharray:none;stroke-opacity:1" />
    <rect
       style="display:inline;opacity:0.5;fill:none;fill-opacity:1;stroke:#000000;stroke-width:1;stroke-miterlimit:4;stroke-dasharray:none;stroke-opacity:1"
       id="rect8790"
       width="5"
       height="5"
       x="207.16994"
       y="16.329294" />
    <path
       style="display:inline;opacity:0.5;fill:none;fill-opacity:1;stroke:#000000;stroke-width:1;stroke-miterlimit:4;stroke-dasharray:none;stroke-opacity:1"
       d="m 212.30252,16.240907 -4.45841,-2.93934 h -3.7019 v 3.674175 l 2.96523,4.478553"
       id="path8792"
       inkscape:connector-curvature="0"
       sodipodi:nodetypes="ccccc" />
    <path
       style="display:inline;opacity:0.5;fill:none;fill-opacity:1;stroke:#000000;stroke-width:1;stroke-miterlimit:4;stroke-dasharray:none;stroke-opacity:1"
       d="m 204.14221,13.389955 3.02773,2.93934"
       id="path8794"
       inkscape:connector-curvature="0"
       sodipodi:nodetypes="cc" />
    <path
       sodipodi:nodetypes="cc"
       inkscape:connector-curvature="0"
       id="path8796"
       d="M 242.73483,9.59446 C 234.73483,11.357023 246,20.329295 237,23.329295"
       style="display:inline;opacity:0.5;fill:none;fill-opacity:1;stroke:#000000;stroke-width:1;stroke-miterlimit:4;stroke-dasharray:none;stroke-opacity:1" />
    <path
       inkscape:connector-curvature="0"
       id="path8798"
       d="m 237,15.329295 6,-2"
       style="display:inline;opacity:0.5;fill:none;fill-opacity:1;stroke:#000000;stroke-width:1;stroke-miterlimit:4;stroke-dasharray:none;stroke-opacity:1" />
    <circle
       r="2.5"
       cy="11.829295"
       cx="271.5"
       id="circle8800"
       style="display:inline;opacity:0.5;fill:none;fill-opacity:1;stroke:#000000;stroke-width:1;stroke-miterlimit:4;stroke-dasharray:none;stroke-opacity:1" />
    <path
       inkscape:connector-curvature="0"
       id="path8802"
       d="m 269,24.329295 3,-4 3,4"
       style="display:inline;opacity:0.5;fill:none;fill-opacity:1;stroke:#000000;stroke-width:1;stroke-miterlimit:4;stroke-dasharray:none;stroke-opacity:1" />
    <path
       sodipodi:nodetypes="cc"
       inkscape:connector-curvature="0"
       id="path8804"
       d="m 267,17.329295 9.44194,-1.088388"
       style="display:inline;opacity:0.5;fill:none;fill-opacity:1;stroke:#000000;stroke-width:1;stroke-miterlimit:4;stroke-dasharray:none;stroke-opacity:1" />
    <path
       sodipodi:nodetypes="cc"
       inkscape:connector-curvature="0"
       id="path8806"
       d="M 271.64645,14.240907 272,20.329295"
       style="display:inline;opacity:0.5;fill:none;fill-opacity:1;stroke:#000000;stroke-width:1;stroke-miterlimit:4;stroke-dasharray:none;stroke-opacity:1" />
    <path
       sodipodi:nodetypes="cccc"
       inkscape:connector-curvature="0"
       id="path8808"
       d="m 300.7955,11.506072 v 9.87868 l 7,-4.87868 z"
       style="display:inline;opacity:0.5;fill:none;fill-opacity:1;stroke:#000000;stroke-width:1;stroke-miterlimit:4;stroke-dasharray:none;stroke-opacity:1" />
    <path
       inkscape:connector-curvature="0"
       id="path8810"
       d="m 331,11.329295 c 9,0 9,0 9,0"
       style="display:inline;opacity:0.5;fill:none;fill-opacity:1;stroke:#000000;stroke-width:1;stroke-miterlimit:4;stroke-dasharray:none;stroke-opacity:1" />
    <path
       inkscape:connector-curvature="0"
       id="path8812"
       d="m 337,8.329295 3,3 -3,3"
       style="display:inline;opacity:0.5;fill:none;fill-opacity:1;stroke:#000000;stroke-width:1;stroke-miterlimit:4;stroke-dasharray:none;stroke-opacity:1" />
    <path
       style="display:inline;opacity:0.5;fill:none;fill-opacity:1;stroke:#000000;stroke-width:1;stroke-miterlimit:4;stroke-dasharray:none;stroke-opacity:1"
       d="m 340.70711,20.256518 c -9,0 -9,0 -9,0"
       id="path8814"
       inkscape:connector-curvature="0" />
    <path
       style="display:inline;opacity:0.5;fill:none;fill-opacity:1;stroke:#000000;stroke-width:1;stroke-miterlimit:4;stroke-dasharray:none;stroke-opacity:1"
       d="m 334.70711,17.256518 -3,3 3,3"
       id="path8816"
       inkscape:connector-curvature="0" />
    <path
       sodipodi:nodetypes="cc"
       inkscape:connector-curvature="0"
       id="path8818"
       d="m 363.30936,10.638654 c 3.89488,-2.451627 6.15492,1.883413 9.13258,0"
       style="display:inline;opacity:0.5;fill:none;fill-opacity:1;stroke:#000000;stroke-width:1;stroke-miterlimit:4;stroke-dasharray:none;stroke-opacity:1" />
    <path
       inkscape:connector-curvature="0"
       id="path8820"
       d="m 371.30936,11.06413 c 0,10 0,10 0,10"
       style="display:inline;opacity:0.5;fill:none;fill-opacity:1;stroke:#000000;stroke-width:1;stroke-miterlimit:4;stroke-dasharray:none;stroke-opacity:1" />
    <circle
       r="1.5"
       cy="21.138651"
       cx="369.80936"
       id="circle8822"
       style="display:inline;opacity:0.5;fill:none;fill-opacity:1;stroke:#000000;stroke-width:1;stroke-miterlimit:4;stroke-dasharray:none;stroke-opacity:1" />
    <path
       style="display:inline;opacity:0.5;fill:none;fill-opacity:1;stroke:#000000;stroke-width:1;stroke-miterlimit:4;stroke-dasharray:none;stroke-opacity:1"
       d="m 366.22703,9.959276 c 0,10 0,10 0,10"
       id="path8824"
       inkscape:connector-curvature="0" />
    <circle
       style="display:inline;opacity:0.5;fill:none;fill-opacity:1;stroke:#000000;stroke-width:1;stroke-miterlimit:4;stroke-dasharray:none;stroke-opacity:1"
       id="circle8826"
       cx="364.72702"
       cy="20.0338"
       r="1.5" />
    <path
       inkscape:connector-curvature="0"
       id="path8828"
       d="m 395,7.329295 v 5 h 3"
       style="display:inline;opacity:0.5;fill:none;fill-opacity:1;stroke:#000000;stroke-width:1;stroke-miterlimit:4;stroke-dasharray:none;stroke-opacity:1" />
    <path
       sodipodi:nodetypes="cccc"
       inkscape:connector-curvature="0"
       id="path8830"
       d="m 398,14.329295 v 4 c 0,2 4,2 4,0 v -4"
       style="display:inline;opacity:0.5;fill:none;fill-opacity:1;stroke:#000000;stroke-width:1;stroke-miterlimit:4;stroke-dasharray:none;stroke-opacity:1" />
    <path
       sodipodi:nodetypes="ccc"
       inkscape:connector-curvature="0"
       id="path8832"
       d="M 401.88388,25.240907 404,20.329295 l 2,5"
       style="display:inline;opacity:0.5;fill:none;fill-opacity:1;stroke:#000000;stroke-width:1;stroke-miterlimit:4;stroke-dasharray:none;stroke-opacity:1" />
    <path
       sodipodi:nodetypes="cc"
       inkscape:connector-curvature="0"
       id="path8834"
       d="M 402.66291,23.329295 H 405"
       style="display:inline;opacity:0.5;fill:none;fill-opacity:1;stroke:#000000;stroke-width:1;stroke-miterlimit:4;stroke-dasharray:none;stroke-opacity:1" />
    <path
       style="display:inline;opacity:0.5;fill:none;fill-opacity:1;stroke:#000000;stroke-width:1;stroke-miterlimit:4;stroke-dasharray:none;stroke-opacity:1"
       d="m 428.2306,10.771236 c 3.89488,-2.451627 6.15492,1.883413 9.13258,0"
       id="path8836"
       inkscape:connector-curvature="0"
       sodipodi:nodetypes="cc" />
    <path
       style="display:inline;opacity:0.5;fill:none;fill-opacity:1;stroke:#000000;stroke-width:1;stroke-miterlimit:4;stroke-dasharray:none;stroke-opacity:1"
       d="m 436.2306,11.196712 c 0,10 0,10 0,10"
       id="path8838"
       inkscape:connector-curvature="0" />
    <circle
       style="display:inline;opacity:0.5;fill:none;fill-opacity:1;stroke:#000000;stroke-width:1;stroke-miterlimit:4;stroke-dasharray:none;stroke-opacity:1"
       id="circle8840"
       cx="434.73059"
       cy="21.271235"
       r="1.5" />
    <path
       inkscape:connector-curvature="0"
       id="path8842"
       d="m 431.14827,10.091858 c 0,10 0,10 0,10"
       style="display:inline;opacity:0.5;fill:none;fill-opacity:1;stroke:#000000;stroke-width:1;stroke-miterlimit:4;stroke-dasharray:none;stroke-opacity:1" />
    <circle
       r="1.5"
       cy="20.166384"
       cx="429.64825"
       id="circle8844"
       style="display:inline;opacity:0.5;fill:none;fill-opacity:1;stroke:#000000;stroke-width:1;stroke-miterlimit:4;stroke-dasharray:none;stroke-opacity:1" />
    <path
       inkscape:connector-curvature="0"
       id="path8846"
       d="m 459,8.329295 v 3 h 4 v -3"
       style="display:inline;opacity:0.5;fill:none;fill-opacity:1;stroke:#000000;stroke-width:1;stroke-miterlimit:4;stroke-dasharray:none;stroke-opacity:1" />
    <path
       style="display:inline;opacity:0.5;fill:none;fill-opacity:1;stroke:#000000;stroke-width:1;stroke-miterlimit:4;stroke-dasharray:none;stroke-opacity:1"
       d="m 462.53553,14.428091 v 3 h 4 v -3"
       id="path8848"
       inkscape:connector-curvature="0" />
    <path
       inkscape:connector-curvature="0"
       id="path8850"
       d="m 465.49654,20.703664 v 3 h 4 v -3"
       style="display:inline;opacity:0.5;fill:none;fill-opacity:1;stroke:#000000;stroke-width:1;stroke-miterlimit:4;stroke-dasharray:none;stroke-opacity:1" />
    <circle
       r="2.5"
       cy="14.829295"
       cx="496.5"
       id="circle8852"
       style="display:inline;opacity:0.5;fill:none;fill-opacity:1;stroke:#000000;stroke-width:1;stroke-miterlimit:4;stroke-dasharray:none;stroke-opacity:1" />
    <path
       sodipodi:nodetypes="cc"
       inkscape:connector-curvature="0"
       id="path8854"
       d="m 496.66291,7.831897 0.0442,3.337087"
       style="display:inline;opacity:0.5;fill:none;fill-opacity:1;stroke:#000000;stroke-width:1;stroke-miterlimit:4;stroke-dasharray:none;stroke-opacity:1" />
    <path
       sodipodi:nodetypes="cc"
       inkscape:connector-curvature="0"
       id="path8856"
       d="m 491.95581,9.478343 2.08838,2.071923"
       style="display:inline;opacity:0.5;fill:none;fill-opacity:1;stroke:#000000;stroke-width:1;stroke-miterlimit:4;stroke-dasharray:none;stroke-opacity:1" />
    <path
       sodipodi:nodetypes="cc"
       inkscape:connector-curvature="0"
       id="path8858"
       d="M 490.53033,14.285101 493,14.329291"
       style="display:inline;opacity:0.5;fill:none;fill-opacity:1;stroke:#000000;stroke-width:1;stroke-miterlimit:4;stroke-dasharray:none;stroke-opacity:1" />
    <path
       sodipodi:nodetypes="cc"
       inkscape:connector-curvature="0"
       id="path8860"
       d="m 493.7955,17.682848 -2.26517,2.353554"
       style="display:inline;opacity:0.5;fill:none;fill-opacity:1;stroke:#000000;stroke-width:1;stroke-miterlimit:4;stroke-dasharray:none;stroke-opacity:1" />
    <path
       sodipodi:nodetypes="cc"
       inkscape:connector-curvature="0"
       id="path8862"
       d="m 496.66291,18.373489 v 3.337088"
       style="display:inline;opacity:0.5;fill:none;fill-opacity:1;stroke:#000000;stroke-width:1;stroke-miterlimit:4;stroke-dasharray:none;stroke-opacity:1" />
    <path
       sodipodi:nodetypes="cc"
       inkscape:connector-curvature="0"
       id="path8864"
       d="m 499,17.329295 2.02773,2.116117"
       style="display:inline;opacity:0.5;fill:none;fill-opacity:1;stroke:#000000;stroke-width:1;stroke-miterlimit:4;stroke-dasharray:none;stroke-opacity:1" />
    <path
       inkscape:connector-curvature="0"
       id="path8866"
       d="m 500,14.329295 h 2"
       style="display:inline;opacity:0.5;fill:none;fill-opacity:1;stroke:#000000;stroke-width:1;stroke-miterlimit:4;stroke-dasharray:none;stroke-opacity:1" />
    <path
       sodipodi:nodetypes="cc"
       inkscape:connector-curvature="0"
       id="path8868"
       d="m 499.26517,11.815431 2.08838,-2"
       style="display:inline;opacity:0.5;fill:none;fill-opacity:1;stroke:#000000;stroke-width:1;stroke-miterlimit:4;stroke-dasharray:none;stroke-opacity:1" />
    <path
       sodipodi:nodetypes="cscccscsc"
       inkscape:connector-curvature="0"
       id="path8870"
       d="m 526.86742,18.417683 c 0,0 -0.86742,2.911612 -2.60225,0.795495 -0.89661,-1.093662 0.17677,-3.53033 0.17677,-3.53033 0,0 -1.44194,-2.353553 4.74867,-2.353553 6.19062,0 4.74868,2.353553 4.74868,2.353553 0,0 1.07338,2.436668 0.17677,3.53033 -1.73483,2.116117 -2.60225,-0.795495 -2.60225,-0.795495 0,0 -0.51381,-1.397749 -2.3232,-1.397747 -2.19061,2e-6 -2.32319,1.397747 -2.32319,1.397747 z"
       style="display:inline;opacity:0.5;fill:none;fill-opacity:1;stroke:#000000;stroke-width:1;stroke-miterlimit:4;stroke-dasharray:none;stroke-opacity:1" />
    <path
       inkscape:connector-curvature="0"
       id="path8872"
       d="m 563,24.329295 c -1,-12 -4,-13 -4,-13"
       style="display:inline;opacity:0.5;fill:none;fill-opacity:1;stroke:#000000;stroke-width:1;stroke-miterlimit:4;stroke-dasharray:none;stroke-opacity:1" />
    <circle
       r="1"
       cy="8.9855452"
       cx="560.53125"
       id="circle8874"
       style="display:inline;opacity:0.5;fill:#000000;fill-opacity:1;stroke:none;stroke-width:1;stroke-miterlimit:4;stroke-dasharray:none;stroke-opacity:1" />
    <circle
       style="display:inline;opacity:0.5;fill:#000000;fill-opacity:1;stroke:none;stroke-width:1;stroke-miterlimit:4;stroke-dasharray:none;stroke-opacity:1"
       id="circle8876"
       cx="556.5625"
       cy="14.141795"
       r="1" />
    <circle
       r="1"
       cy="10.829295"
       cx="554.125"
       id="circle8878"
       style="display:inline;opacity:0.5;fill:#000000;fill-opacity:1;stroke:none;stroke-width:1;stroke-miterlimit:4;stroke-dasharray:none;stroke-opacity:1" />
    <circle
       style="display:inline;opacity:0.5;fill:#000000;fill-opacity:1;stroke:none;stroke-width:1;stroke-miterlimit:4;stroke-dasharray:none;stroke-opacity:1"
       id="circle8880"
       cx="556.5625"
       cy="6.7667952"
       r="1" />
    <path
       inkscape:transform-center-y="-0.10290962"
       inkscape:transform-center-x="-0.11327127"
       d="m 558,76 -1.15953,-1.03999 -1.43357,0.609081 0.63078,-1.424154 -1.02227,-1.175186 1.54937,0.159815 0.80177,-1.335385 0.32679,1.522924 1.51779,0.349872 -1.3474,0.781405 z"
       inkscape:randomized="0"
       inkscape:rounded="0"
       inkscape:flatsided="false"
       sodipodi:arg2="1.7354672"
       sodipodi:arg1="1.1071487"
       sodipodi:r2="0.97317481"
       sodipodi:r1="2.236068"
       sodipodi:cy="74"
       sodipodi:cx="557"
       sodipodi:sides="5"
       id="path8882"
       style="display:inline;opacity:0.5;fill:#000000;fill-opacity:1;stroke:none;stroke-width:1;stroke-miterlimit:4;stroke-dasharray:none;stroke-opacity:1"
       sodipodi:type="star"
       transform="translate(0,-63.670705)" />
    <circle
       r="0.625"
       cy="17.173044"
       cx="556.9375"
       id="circle8884"
       style="display:inline;opacity:0.5;fill:#000000;fill-opacity:1;stroke:none;stroke-width:1;stroke-miterlimit:4;stroke-dasharray:none;stroke-opacity:1" />
    <circle
       style="display:inline;opacity:0.5;fill:#000000;fill-opacity:1;stroke:none;stroke-width:1;stroke-miterlimit:4;stroke-dasharray:none;stroke-opacity:1"
       id="circle8886"
       cx="554.0625"
       cy="15.110545"
       r="0.625" />
    <circle
       r="0.625"
       cy="10.891795"
       cx="563.65625"
       id="circle8888"
       style="display:inline;opacity:0.5;fill:#000000;fill-opacity:1;stroke:none;stroke-width:1;stroke-miterlimit:4;stroke-dasharray:none;stroke-opacity:1" />
    <circle
       style="display:inline;opacity:0.5;fill:#000000;fill-opacity:1;stroke:none;stroke-width:1;stroke-miterlimit:4;stroke-dasharray:none;stroke-opacity:1"
       id="circle8890"
       cx="562.1875"
       cy="6.9230452"
       r="0.625" />
    <rect
       y="9.6417952"
       x="586.375"
       height="4"
       width="4"
       id="rect8892"
       style="display:inline;opacity:0.5;fill:none;fill-opacity:1;stroke:#000000;stroke-width:1;stroke-miterlimit:4;stroke-dasharray:none;stroke-opacity:1" />
    <rect
       style="display:inline;opacity:0.5;fill:none;fill-opacity:1;stroke:#000000;stroke-width:1;stroke-miterlimit:4;stroke-dasharray:none;stroke-opacity:1"
       id="rect8894"
       width="4"
       height="4"
       x="589.625"
       y="18.579294" />
    <rect
       y="9.7042952"
       x="593"
       height="4"
       width="4"
       id="rect8896"
       style="display:inline;opacity:0.5;fill:none;fill-opacity:1;stroke:#000000;stroke-width:1;stroke-miterlimit:4;stroke-dasharray:none;stroke-opacity:1" />
    <path
       sodipodi:nodetypes="cccc"
       inkscape:connector-curvature="0"
       id="path8898"
       d="m 588,13.329295 v 3 h 7 v -2.5"
       style="display:inline;opacity:0.5;fill:none;fill-opacity:1;stroke:#000000;stroke-width:1;stroke-miterlimit:4;stroke-dasharray:none;stroke-opacity:1" />
    <path
       sodipodi:nodetypes="cc"
       inkscape:connector-curvature="0"
       id="path8900"
       d="m 591.65625,18.641795 v -2.34375"
       style="display:inline;opacity:0.5;fill:none;fill-opacity:1;stroke:#000000;stroke-width:1;stroke-miterlimit:4;stroke-dasharray:none;stroke-opacity:1" />
    <rect
       ry="0.56906408"
       rx="0.56906408"
       y="15.108806"
       x="618.97424"
       height="6.639081"
       width="10.432841"
       id="rect8902"
       style="display:inline;opacity:0.5;fill:none;fill-opacity:1;stroke:#000000;stroke-width:0.94844;stroke-miterlimit:4;stroke-dasharray:none;stroke-opacity:1" />
    <path
       sodipodi:nodetypes="cccc"
       inkscape:connector-curvature="0"
       id="path8904"
       d="m 621.81954,15.108803 v -2.159055 c 0,-1.89688 4.7422,-1.89688 4.7422,0 v 2.159055"
       style="display:inline;opacity:0.5;fill:none;fill-opacity:1;stroke:#000000;stroke-width:0.94844;stroke-miterlimit:4;stroke-dasharray:none;stroke-opacity:1" />
    <path
       style="display:inline;fill:none;fill-rule:evenodd;stroke:#000000;stroke-width:1.90914;stroke-linecap:butt;stroke-linejoin:miter;stroke-miterlimit:4;stroke-dasharray:none;stroke-opacity:1;opacity:0.5"
       d="m 8.1454889,4.454258 0.089843,23.091484 H 23.782206 V 9.090976 L 19.87205,4.454258 Z"
       id="path8910"
       inkscape:connector-curvature="0"
       sodipodi:nodetypes="cccccc" />
    <path
       sodipodi:nodetypes="cccccc"
       inkscape:connector-curvature="0"
       id="path8912"
       d="m 39.965294,4.454258 0.08984,23.091484 H 55.602012 V 9.090976 L 51.691853,4.454258 Z"
       style="display:inline;fill:none;fill-rule:evenodd;stroke:#000000;stroke-width:1.90914;stroke-linecap:butt;stroke-linejoin:miter;stroke-miterlimit:4;stroke-dasharray:none;stroke-opacity:1;opacity:0.5" />
    <path
       style="display:inline;fill:none;fill-rule:evenodd;stroke:#000000;stroke-width:1.90914;stroke-linecap:butt;stroke-linejoin:miter;stroke-miterlimit:4;stroke-dasharray:none;stroke-opacity:1;opacity:0.5"
       d="m 72.138649,4.454258 0.08985,23.091484 H 87.775377 V 9.090976 L 83.865218,4.454258 Z"
       id="path8914"
       inkscape:connector-curvature="0"
       sodipodi:nodetypes="cccccc" />
    <path
       sodipodi:nodetypes="cccccc"
       inkscape:connector-curvature="0"
       id="path8916"
       d="m 103.78168,4.454258 0.0899,23.091484 h 15.54688 V 9.090976 L 115.5083,4.454258 Z"
       style="display:inline;fill:none;fill-rule:evenodd;stroke:#000000;stroke-width:1.90914;stroke-linecap:butt;stroke-linejoin:miter;stroke-miterlimit:4;stroke-dasharray:none;stroke-opacity:1;opacity:0.5" />
    <path
       style="display:inline;fill:none;fill-rule:evenodd;stroke:#000000;stroke-width:1.90914;stroke-linecap:butt;stroke-linejoin:miter;stroke-miterlimit:4;stroke-dasharray:none;stroke-opacity:1;opacity:0.5"
       d="m 135.95504,4.454258 0.0899,23.091484 h 15.54688 V 9.090976 l -3.91016,-4.636718 z"
       id="path8918"
       inkscape:connector-curvature="0"
       sodipodi:nodetypes="cccccc" />
    <path
       sodipodi:nodetypes="cccccc"
       inkscape:connector-curvature="0"
       id="path8920"
       d="m 167.77485,4.454258 0.0898,23.091484 h 15.54688 V 9.090976 l -3.91016,-4.636718 z"
       style="display:inline;fill:none;fill-rule:evenodd;stroke:#000000;stroke-width:1.90914;stroke-linecap:butt;stroke-linejoin:miter;stroke-miterlimit:4;stroke-dasharray:none;stroke-opacity:1;opacity:0.5" />
    <path
       style="display:inline;fill:none;fill-rule:evenodd;stroke:#000000;stroke-width:1.90914;stroke-linecap:butt;stroke-linejoin:miter;stroke-miterlimit:4;stroke-dasharray:none;stroke-opacity:1;opacity:0.5"
       d="m 200.30176,4.454258 0.0898,23.091484 h 15.54688 V 9.090976 l -3.91016,-4.636718 z"
       id="path8922"
       inkscape:connector-curvature="0"
       sodipodi:nodetypes="cccccc" />
    <path
       sodipodi:nodetypes="cccccc"
       inkscape:connector-curvature="0"
       id="path8924"
       d="m 231.94479,4.454258 0.0898,23.091484 h 15.54688 V 9.090976 l -3.91016,-4.636718 z"
       style="display:inline;fill:none;fill-rule:evenodd;stroke:#000000;stroke-width:1.90914;stroke-linecap:butt;stroke-linejoin:miter;stroke-miterlimit:4;stroke-dasharray:none;stroke-opacity:1;opacity:0.5" />
    <path
       style="display:inline;fill:none;fill-rule:evenodd;stroke:#000000;stroke-width:1.90914;stroke-linecap:butt;stroke-linejoin:miter;stroke-miterlimit:4;stroke-dasharray:none;stroke-opacity:1;opacity:0.5"
       d="m 263.23426,4.454258 0.0899,23.091484 h 15.54687 V 9.090976 l -3.91015,-4.636718 z"
       id="path8926"
       inkscape:connector-curvature="0"
       sodipodi:nodetypes="cccccc" />
    <path
       sodipodi:nodetypes="cccccc"
       inkscape:connector-curvature="0"
       id="path8928"
       d="m 296.11472,4.454258 0.0899,23.091484 H 311.7515 V 9.090976 l -3.91016,-4.636718 z"
       style="display:inline;fill:none;fill-rule:evenodd;stroke:#000000;stroke-width:1.90914;stroke-linecap:butt;stroke-linejoin:miter;stroke-miterlimit:4;stroke-dasharray:none;stroke-opacity:1;opacity:0.5" />
    <path
       style="display:inline;fill:none;fill-rule:evenodd;stroke:#000000;stroke-width:1.90914;stroke-linecap:butt;stroke-linejoin:miter;stroke-miterlimit:4;stroke-dasharray:none;stroke-opacity:1;opacity:0.5"
       d="m 327.93453,4.454258 0.0899,23.091484 H 343.5713 V 9.090976 l -3.91015,-4.636718 z"
       id="path8930"
       inkscape:connector-curvature="0"
       sodipodi:nodetypes="cccccc" />
    <path
       sodipodi:nodetypes="cccccc"
       inkscape:connector-curvature="0"
       id="path8932"
       d="m 521.50501,4.454258 0.0899,23.091484 h 15.54688 V 9.090976 l -3.91016,-4.636718 z"
       style="display:inline;fill:none;fill-rule:evenodd;stroke:#000000;stroke-width:1.90914;stroke-linecap:butt;stroke-linejoin:miter;stroke-miterlimit:4;stroke-dasharray:none;stroke-opacity:1;opacity:0.5" />
    <path
       sodipodi:nodetypes="cccccc"
       inkscape:connector-curvature="0"
       id="path8934"
       d="m 359.93453,4.454258 0.0899,23.091484 H 375.5713 V 9.090976 l -3.91015,-4.636718 z"
       style="display:inline;fill:none;fill-rule:evenodd;stroke:#000000;stroke-width:1.90914;stroke-linecap:butt;stroke-linejoin:miter;stroke-miterlimit:4;stroke-dasharray:none;stroke-opacity:1;opacity:0.5" />
    <path
       style="display:inline;fill:none;fill-rule:evenodd;stroke:#000000;stroke-width:1.90914;stroke-linecap:butt;stroke-linejoin:miter;stroke-miterlimit:4;stroke-dasharray:none;stroke-opacity:1;opacity:0.5"
       d="m 392.43453,4.454258 0.0899,23.091484 h 15.54688 V 9.090976 l -3.91016,-4.636718 z"
       id="path8936"
       inkscape:connector-curvature="0"
       sodipodi:nodetypes="cccccc" />
    <path
       sodipodi:nodetypes="cccccc"
       inkscape:connector-curvature="0"
       id="path8938"
       d="m 424.93453,4.454258 0.0899,23.091484 h 15.54688 V 9.090976 l -3.91016,-4.636718 z"
       style="display:inline;fill:none;fill-rule:evenodd;stroke:#000000;stroke-width:1.90914;stroke-linecap:butt;stroke-linejoin:miter;stroke-miterlimit:4;stroke-dasharray:none;stroke-opacity:1;opacity:0.5" />
    <path
       style="display:inline;fill:none;fill-rule:evenodd;stroke:#000000;stroke-width:1.90914;stroke-linecap:butt;stroke-linejoin:miter;stroke-miterlimit:4;stroke-dasharray:none;stroke-opacity:1;opacity:0.5"
       d="m 456.43453,4.454258 0.0899,23.091484 h 15.54688 V 9.090976 l -3.91016,-4.636718 z"
       id="path8940"
       inkscape:connector-curvature="0"
       sodipodi:nodetypes="cccccc" />
    <path
       sodipodi:nodetypes="cccccc"
       inkscape:connector-curvature="0"
       id="path8942"
       d="m 488.43453,4.454258 0.0899,23.091484 h 15.54688 V 9.090976 l -3.91016,-4.636718 z"
       style="display:inline;fill:none;fill-rule:evenodd;stroke:#000000;stroke-width:1.90914;stroke-linecap:butt;stroke-linejoin:miter;stroke-miterlimit:4;stroke-dasharray:none;stroke-opacity:1;opacity:0.5" />
    <path
       style="display:inline;fill:none;fill-rule:evenodd;stroke:#000000;stroke-width:1.90914;stroke-linecap:butt;stroke-linejoin:miter;stroke-miterlimit:4;stroke-dasharray:none;stroke-opacity:1;opacity:0.5"
       d="m 551.73383,4.454258 0.0899,23.091484 h 15.54688 V 9.090976 l -3.91016,-4.636718 z"
       id="path8944"
       inkscape:connector-curvature="0"
       sodipodi:nodetypes="cccccc" />
    <path
       sodipodi:nodetypes="cccccc"
       inkscape:connector-curvature="0"
       id="path8946"
       d="m 583.90719,4.454258 0.0899,23.091484 h 15.54688 V 9.090976 l -3.91016,-4.636718 z"
       style="display:inline;fill:none;fill-rule:evenodd;stroke:#000000;stroke-width:1.90914;stroke-linecap:butt;stroke-linejoin:miter;stroke-miterlimit:4;stroke-dasharray:none;stroke-opacity:1;opacity:0.5" />
    <path
       style="display:inline;fill:none;fill-rule:evenodd;stroke:#000000;stroke-width:1.90914;stroke-linecap:butt;stroke-linejoin:miter;stroke-miterlimit:4;stroke-dasharray:none;stroke-opacity:1;opacity:0.5"
       d="m 616.4341,4.454258 0.0899,23.091484 h 15.54688 V 9.090976 l -3.91016,-4.636718 z"
       id="path8948"
       inkscape:connector-curvature="0"
       sodipodi:nodetypes="cccccc" />
    <path
       sodipodi:nodetypes="cccccc"
       inkscape:connector-curvature="0"
       id="path8950"
       d="m 647.72358,4.454258 0.0899,23.091484 h 15.54688 V 9.090976 L 659.4502,4.454258 Z"
       style="display:inline;fill:none;fill-rule:evenodd;stroke:#000000;stroke-width:1.90914;stroke-linecap:butt;stroke-linejoin:miter;stroke-miterlimit:4;stroke-dasharray:none;stroke-opacity:1;opacity:0.5" />
    <path
       style="display:inline;fill:none;fill-rule:evenodd;stroke:#000000;stroke-width:1.90914;stroke-linecap:butt;stroke-linejoin:miter;stroke-miterlimit:4;stroke-dasharray:none;stroke-opacity:1;opacity:0.5"
       d="m 681.13438,4.454258 0.0899,23.091484 h 15.54688 V 9.090976 L 692.861,4.454258 Z"
       id="path8952"
       inkscape:connector-curvature="0"
       sodipodi:nodetypes="cccccc" />
    <path
       sodipodi:nodetypes="cccccc"
       inkscape:connector-curvature="0"
       id="path8954"
       d="m 711.53997,4.454258 0.0899,23.091484 h 15.54688 V 9.090976 l -3.91016,-4.636718 z"
       style="display:inline;fill:none;fill-rule:evenodd;stroke:#000000;stroke-width:1.90914;stroke-linecap:butt;stroke-linejoin:miter;stroke-miterlimit:4;stroke-dasharray:none;stroke-opacity:1;opacity:0.5" />
    <path
       inkscape:connector-curvature="0"
       id="path8956"
       d="m 9.215222,15.982773 v -10.5 h 5.103344 5.103335 l 1.646658,1.963649 1.646657,1.96365 v 8.53635 8.536352 h -6.749994 -6.75 z"
       style="display:inline;opacity:0.5;fill:#ffffff;fill-opacity:1;stroke:none;stroke-width:0.25;stroke-linejoin:round;stroke-miterlimit:4;stroke-dasharray:none;stroke-opacity:1" />
    <path
       inkscape:connector-curvature="0"
       id="path8958"
       d="M 41.04829,20.014024 C 41.00275,16.456211 40.96543,11.731211 40.96535,9.514023 l -1.32e-4,-4.03125 5.15625,0.0078 5.15625,0.0078 1.65625,1.984333 1.65625,1.984333 v 8.507915 8.507915 h -6.729562 -6.729565 l -0.0828,-6.46875 z m 12.29193,0.53125 v -3.562501 h -3.0625 -3.0625 v 1.875001 1.875 h -0.8125 -0.8125 v -2.5 -2.500001 h 1.375 1.375 v -3.5625 -3.5625 h -3.0625 -3.0625 v 3.5625 3.5625 h 1.125 1.125 v 3.062501 3.0625 h 1.375 1.375 v 1.125 1.125 h 3.0625 3.0625 z"
       style="display:inline;opacity:0.5;fill:#ffffff;fill-opacity:1;stroke:none;stroke-width:2;stroke-linejoin:round;stroke-miterlimit:4;stroke-dasharray:none;stroke-opacity:1" />
    <path
       inkscape:connector-curvature="0"
       id="path8960"
       d="m 73.21522,8.607773 v -3.125 h 5.09733 5.09733 l 1.65267,1.965933 1.65267,1.965932 v 1.159068 1.159067 h -6.75 -6.75 z"
       style="display:inline;opacity:0.5;fill:#ffffff;fill-opacity:1;stroke:none;stroke-width:2;stroke-linejoin:round;stroke-miterlimit:4;stroke-dasharray:none;stroke-opacity:1" />
    <path
       inkscape:connector-curvature="0"
       id="path8962"
       d="m 73.21522,24.670274 v -1.8125 h 6.75 6.75 v 1.8125 1.8125 h -6.75 -6.75 z"
       style="display:inline;opacity:0.5;fill:#ffffff;fill-opacity:1;stroke:none;stroke-width:2;stroke-linejoin:round;stroke-miterlimit:4;stroke-dasharray:none;stroke-opacity:1" />
    <path
       inkscape:connector-curvature="0"
       id="path8964"
       d="m 104.84022,15.982773 v -10.5 h 5.10623 5.10623 l 1.70627,2.027845 1.70627,2.027844 v 8.472155 8.472157 h -6.8125 -6.8125 z m 8.44252,3.470026 c 0.34651,-0.177459 0.87184,-0.584992 1.16739,-0.905629 0.77268,-0.838256 1.05545,-1.552585 1.06648,-2.694069 0.008,-0.821487 -0.0431,-1.048282 -0.39871,-1.770555 -0.46933,-0.953342 -1.03888,-1.50402 -2.02197,-1.954973 -0.85466,-0.392036 -2.00864,-0.431319 -2.97074,-0.101128 -0.82331,0.282561 -1.81768,1.165105 -2.25948,2.005379 -0.29191,0.555199 -0.33575,0.785144 -0.3362,1.763449 -6.4e-4,1.384481 0.26217,2.037938 1.17864,2.930609 0.87868,0.855863 1.66055,1.145733 2.94457,1.091672 0.77198,-0.0325 1.14366,-0.115675 1.63002,-0.364755 z"
       style="display:inline;opacity:0.5;fill:#ffffff;fill-opacity:1;stroke:none;stroke-width:2;stroke-linejoin:round;stroke-miterlimit:4;stroke-dasharray:none;stroke-opacity:1" />
    <path
       inkscape:connector-curvature="0"
       id="path8966"
       d="m 137.04799,21.962332 c -0.0455,-2.486242 -0.0828,-7.211867 -0.0828,-10.501387 V 5.48 l 5.14879,0.03264 5.14879,0.03264 1.65644,1.9375 1.65645,1.9375 0.007,8.531251 0.007,8.53125 h -6.72973 -6.72973 l -0.0828,-4.520442 z m 11.54223,-3.167058 c 0,-1.684376 -0.0458,-3.062501 -0.10175,-3.062501 -0.056,0 -1.1282,-0.675 -2.38275,-1.5 l -2.281,-1.5 h -2.17975 -2.17975 v 2.250503 2.250502 l 1.53125,2.308681 1.53125,2.30868 3.03125,0.0033 3.03125,0.0033 v -3.0625 z"
       style="display:inline;opacity:0.5;fill:#ffffff;fill-opacity:1;stroke:none;stroke-width:2;stroke-linejoin:round;stroke-miterlimit:4;stroke-dasharray:none;stroke-opacity:1" />
    <path
       inkscape:connector-curvature="0"
       id="path8968"
       d="m 168.84022,15.982773 v -10.5 h 4.3125 4.3125 v 4.0875 c 0,2.297535 -0.0472,4.035498 -0.10776,3.96875 -0.0593,-0.06531 -0.51521,-0.665983 -1.01321,-1.334823 -0.74317,-0.998109 -0.9423,-1.194527 -1.111,-1.095861 -0.33601,0.196529 -0.64303,0.458596 -0.64303,0.54888 0,0.04641 0.59063,0.867911 1.3125,1.825554 0.72188,0.957644 1.3125,1.799542 1.3125,1.870885 0,0.07134 -1.27879,2.048127 -2.84175,4.392852 l -2.84176,4.263137 0.37301,0.298443 c 0.20515,0.164142 0.42925,0.297234 0.498,0.295756 0.0688,-0.0015 1.23583,-1.674636 2.5935,-3.71813 l 2.46849,-3.715443 2.5e-4,4.656251 2.6e-4,4.65625 h -4.3125 -4.3125 z m 5.58698,-4.911151 c 1.5283,-1.05911 1.44484,-3.348625 -0.15627,-4.286936 -0.49395,-0.289476 -0.66819,-0.323769 -1.42713,-0.280885 -0.73377,0.04146 -0.93643,0.106088 -1.34028,0.427406 -1.52924,1.216708 -1.32814,3.40836 0.3992,4.350758 0.60309,0.329028 1.90239,0.220769 2.52448,-0.210343 z"
       style="display:inline;opacity:0.5;fill:#ffffff;fill-opacity:1;stroke:none;stroke-width:2;stroke-linejoin:round;stroke-miterlimit:4;stroke-dasharray:none;stroke-opacity:1" />
    <path
       inkscape:connector-curvature="0"
       id="path8970"
       d="m 201.34022,15.982773 v -10.5 h 5.11345 5.11344 l 1.69906,2.013619 1.69905,2.013619 v 8.486381 8.486382 h -6.8125 -6.8125 z m 11.36618,2.843751 -0.009,-3.031251 -2.34097,-1.53125 -2.34097,-1.53125 h -2.2127 -2.21271 v 2.212706 2.212705 l 1.53125,2.340967 1.53125,2.340968 3.03125,0.0088 3.03125,0.0088 -0.009,-3.03125 z"
       style="display:inline;opacity:0.5;fill:#ffffff;fill-opacity:1;stroke:none;stroke-width:2;stroke-linejoin:round;stroke-miterlimit:4;stroke-dasharray:none;stroke-opacity:1" />
    <path
       inkscape:connector-curvature="0"
       id="path8972"
       d="m 233.02149,16.264023 c -9.4e-4,-5.620312 -0.0356,-10.345312 -0.0771,-10.5 l -0.0754,-0.28125 h 5.17441 5.17441 l 1.65267,1.965933 1.65267,1.965932 v 8.534068 8.534068 h -6.75 -6.75 l -0.002,-10.218751 z m 5.19521,7.165393 c 1.20907,-0.558621 2.1609,-1.455212 2.63424,-2.481346 0.32544,-0.705509 0.35803,-0.899779 0.35069,-2.090296 -0.006,-0.984668 -0.0923,-1.652817 -0.34537,-2.674981 -0.1855,-0.749365 -0.31629,-1.383455 -0.29066,-1.409089 0.0256,-0.02563 0.60314,-0.234495 1.28335,-0.464134 l 1.23675,-0.417526 -0.0199,-0.405803 c -0.0328,-0.668226 -0.16264,-0.692373 -1.43812,-0.267447 -0.64217,0.213939 -1.21578,0.388979 -1.27469,0.388979 -0.0589,0 -0.0859,-0.419021 -0.0601,-0.931158 0.0659,-1.304828 0.51417,-1.861772 1.87382,-2.328062 0.64087,-0.219786 0.66749,-0.246667 0.63326,-0.639577 -0.0536,-0.615496 -0.18578,-0.675542 -0.95398,-0.433388 -0.96985,0.30572 -1.81561,0.918345 -2.25665,1.634615 -0.34847,0.565923 -0.38079,0.715167 -0.40559,1.872688 l -0.0269,1.257759 -1.03555,0.346346 c -0.56956,0.19049 -1.10383,0.371795 -1.18727,0.4029 -0.11546,0.04304 -0.11885,0.15501 -0.0142,0.468466 0.0756,0.226551 0.17503,0.454275 0.22086,0.506053 0.0458,0.05178 0.5822,-0.07449 1.19193,-0.280589 0.60973,-0.206102 1.11851,-0.360966 1.13061,-0.344142 0.11948,0.166081 0.59329,2.617093 0.64747,3.34931 0.14219,1.921678 -0.57537,3.100185 -2.40128,3.943807 -0.56073,0.259071 -0.90562,0.489404 -0.87283,0.582898 0.22606,0.644387 0.31509,0.842075 0.37925,0.842075 0.0406,0 0.49099,-0.192762 1.0009,-0.428358 z"
       style="display:inline;opacity:0.5;fill:#ffffff;fill-opacity:1;stroke:none;stroke-width:2;stroke-linejoin:round;stroke-miterlimit:4;stroke-dasharray:none;stroke-opacity:1" />
    <path
       inkscape:connector-curvature="0"
       id="path8974"
       d="m 264.2732,15.982773 v -10.5 h 5.11344 5.11344 l 1.69906,2.013619 1.69906,2.013619 v 8.486381 8.486382 h -6.8125 -6.8125 z m 6.44105,6.995244 c 0.66985,-0.896366 1.2631,-1.613553 1.31833,-1.59375 0.0552,0.0198 0.63925,0.753194 1.29784,1.629757 0.65859,0.876562 1.24949,1.59375 1.31313,1.59375 0.0636,0 0.27141,-0.13393 0.46171,-0.297623 l 0.34601,-0.297622 -1.45045,-1.932359 -1.45046,-1.932359 -0.0897,-1.436172 -0.0897,-1.436172 1.7949,-0.209483 c 0.9872,-0.115215 1.92147,-0.209196 2.07616,-0.208846 0.24526,5.5e-4 0.28125,-0.06385 0.28125,-0.503288 0,-0.333076 -0.0637,-0.528366 -0.18789,-0.57602 -0.10333,-0.03965 -0.9386,0.01836 -1.85615,0.128923 -2.38289,0.287131 -2.20596,0.325062 -2.20596,-0.472929 0,-0.599903 0.0317,-0.681913 0.28883,-0.746441 0.56852,-0.14269 1.29884,-0.799572 1.63178,-1.467705 0.60158,-1.207203 0.39563,-2.53638 -0.54325,-3.506087 -1.88563,-1.947544 -5.16418,-0.624248 -5.17205,2.087551 -0.004,1.359111 0.75616,2.435687 2.04216,2.892433 l 0.62753,0.222878 v 0.697064 0.697065 l -2.13859,0.232521 -2.13858,0.232522 0.0656,0.488898 c 0.0361,0.268894 0.0922,0.515472 0.12463,0.547952 0.0325,0.03248 0.98641,-0.04497 2.11984,-0.17211 l 2.06078,-0.231165 0.0773,0.818037 c 0.18055,1.910985 0.23542,1.754394 -1.3609,3.883833 l -1.43998,1.920871 0.34623,0.283421 c 0.19042,0.155882 0.41049,0.285444 0.48904,0.287917 0.0786,0.0025 0.69088,-0.728895 1.36073,-1.625262 z"
       style="display:inline;opacity:0.5;fill:#ffffff;fill-opacity:1;stroke:none;stroke-width:2;stroke-linejoin:round;stroke-miterlimit:4;stroke-dasharray:none;stroke-opacity:1" />
    <path
       inkscape:connector-curvature="0"
       id="path8976"
       d="m 297.23153,26.39944 c -0.0458,-0.04583 -0.0833,-4.770833 -0.0833,-10.5 V 5.482773 h 5.11804 5.11805 l 1.69445,2.009968 1.69446,2.009967 v 8.490033 8.490033 h -6.72917 c -3.70104,0 -6.76667,-0.0375 -6.8125,-0.08333 z m 7.25143,-6.901883 c 2.25651,-1.573118 4.10274,-2.919082 4.10274,-2.99103 0,-0.09848 -7.28109,-5.403134 -8.15625,-5.942255 -0.12416,-0.07648 -0.15625,1.124721 -0.15625,5.848624 0,3.269683 0.0241,5.944878 0.0535,5.944878 0.0294,0 1.89975,-1.287098 4.15625,-2.860217 z"
       style="display:inline;opacity:0.5;fill:#ffffff;fill-opacity:1;stroke:none;stroke-width:2;stroke-linejoin:round;stroke-miterlimit:4;stroke-dasharray:none;stroke-opacity:1" />
    <path
       inkscape:connector-curvature="0"
       id="path8978"
       d="m 329.01298,19.14968 c -0.0456,-4.033202 -0.083,-8.758202 -0.083,-10.5 V 5.482773 l 5.15625,0.0086 5.15625,0.0086 1.65138,1.960197 1.65138,1.960197 0.005,8.531251 0.005,8.53125 h -6.72952 -6.72952 l -0.083,-7.333094 z m 5.75271,4.186305 c 0.15912,-0.149485 0.28931,-0.333705 0.28931,-0.409379 0,-0.07567 -0.42336,-0.558056 -0.9408,-1.071961 l -0.9408,-0.934371 3.78455,-0.0625 3.78455,-0.0625 0.0384,-0.53125 0.0384,-0.53125 h -3.91068 -3.91067 l 1.05438,-1.059887 1.05438,-1.059886 -0.36483,-0.380801 -0.36483,-0.3808 -1.72356,1.720262 -1.72356,1.720262 1.65451,1.657925 c 0.90998,0.911858 1.70792,1.657925 1.77319,1.657925 0.0653,0 0.24887,-0.122305 0.40799,-0.271789 z M 340.68,11.298748 c 0,-0.16024 -3.14421,-3.315975 -3.30386,-3.315975 -0.066,0 -0.27893,0.152303 -0.47323,0.33845 l -0.35326,0.33845 1.03116,1.03655 1.03117,1.03655 H 334.77099 330.93 v 0.5625 0.5625 l 3.90625,0.0018 3.90625,0.0018 -1.07058,1.05503 -1.07058,1.055029 0.38104,0.38104 0.38104,0.38104 1.65829,-1.654877 c 0.91206,-0.910184 1.65829,-1.711128 1.65829,-1.779877 z"
       style="display:inline;opacity:0.5;fill:#ffffff;fill-opacity:1;stroke:none;stroke-width:2;stroke-linejoin:round;stroke-miterlimit:4;stroke-dasharray:none;stroke-opacity:1" />
    <path
       inkscape:connector-curvature="0"
       id="path8980"
       d="m 361.01298,19.14968 c -0.0456,-4.033202 -0.083,-8.758202 -0.083,-10.5 V 5.482773 l 5.15625,0.0086 5.15625,0.0086 1.65138,1.960197 1.65138,1.960197 0.005,8.531251 0.005,8.53125 h -6.72952 -6.72952 l -0.083,-7.333094 z m 9.85409,3.723142 c 0.20602,-0.118836 0.50133,-0.404155 0.65625,-0.634042 0.28083,-0.416723 0.28168,-0.433396 0.28295,-5.555742 l 0.001,-5.137765 0.49974,-0.209897 0.49973,-0.209898 -0.26915,-0.456185 c -0.21619,-0.366407 -0.32094,-0.439867 -0.53226,-0.373266 -1.27615,0.402196 -1.51866,0.372742 -3.7631,-0.457059 -1.00834,-0.372794 -1.26111,-0.416071 -2.4375,-0.417311 -1.16579,-0.0012 -1.39284,0.03627 -2.03125,0.335451 -0.39532,0.185259 -0.71875,0.401576 -0.71875,0.480704 0,0.07913 0.11399,0.303959 0.25332,0.499626 l 0.25332,0.355757 0.65293,-0.30399 c 0.35911,-0.167194 0.83574,-0.304539 1.05918,-0.30521 l 0.40625,-0.0012 v 3.868498 3.868498 l -0.38377,-0.13378 c -1.23442,-0.430324 -2.61999,0.61815 -2.61418,1.978176 0.004,1.023655 1.02626,2.043609 2.04747,2.043609 0.56525,0 1.35183,-0.44293 1.70048,-0.95756 l 0.3125,-0.461269 0.0353,-5.040586 c 0.0194,-2.772322 0.081,-5.040586 0.13672,-5.040586 0.0558,0 0.75217,0.225 1.54756,0.5 0.79539,0.275 1.55896,0.5 1.69681,0.5 0.66994,0 0.6461,-0.145941 0.6461,3.955272 0,3.721699 -0.005,3.800741 -0.24179,3.674126 -0.40112,-0.214674 -1.25144,-0.149202 -1.75771,0.135339 -0.87229,0.490255 -1.2428,1.670839 -0.83025,2.645529 0.45277,1.069737 1.81904,1.47359 2.89182,0.854783 z"
       style="display:inline;opacity:0.5;fill:#ffffff;fill-opacity:1;stroke:none;stroke-width:2;stroke-linejoin:round;stroke-miterlimit:4;stroke-dasharray:none;stroke-opacity:1" />
    <path
       inkscape:connector-curvature="0"
       id="path8982"
       d="m 393.51298,19.14968 c -0.0456,-4.033202 -0.083,-8.758202 -0.083,-10.5 V 5.482773 l 5.15625,0.0086 5.15625,0.0086 1.65138,1.960197 1.65138,1.960197 0.005,8.531251 0.005,8.53125 h -6.72952 -6.72952 l -0.083,-7.333094 z m 9.22702,5.515445 0.3475,-0.817648 0.87235,0.0364 0.87234,0.0364 0.31214,0.78125 c 0.33023,0.826563 0.44659,0.894741 1.05704,0.619362 l 0.33386,-0.150612 -1.2116,-3.023569 c -0.66638,-1.662963 -1.24248,-3.054444 -1.28021,-3.09218 -0.0627,-0.06271 -2.45124,5.328684 -2.58479,5.834412 -0.0411,0.155743 0.0633,0.271235 0.36306,0.401358 0.23144,0.100481 0.45456,0.184895 0.49581,0.187586 0.0412,0.0027 0.23137,-0.363049 0.4225,-0.812756 z m -1.58894,-4.500818 c 0.25466,-0.106406 0.5957,-0.317343 0.75786,-0.46875 0.59556,-0.556072 0.64608,-0.806798 0.64608,-3.206576 v -2.256208 h -0.5625 -0.5625 v 2.114777 c 0,1.163127 -0.0349,2.205832 -0.0777,2.317124 -0.2838,0.739558 -2.43591,0.739558 -2.7197,0 -0.0427,-0.111292 -0.0777,-1.153997 -0.0777,-2.317124 v -2.114777 h -0.5625 -0.5625 v 2.179363 c 0,2.258924 0.0694,2.667926 0.53957,3.180878 0.65408,0.713552 2.18365,0.988215 3.18149,0.571293 z M 398.055,12.295273 v -0.5625 h -1.25 -1.25 v -2.25 -2.25 h -0.5625 -0.5625 v 2.8125 2.8125 h 1.8125 1.8125 z"
       style="display:inline;opacity:0.5;fill:#ffffff;fill-opacity:1;stroke:none;stroke-width:2;stroke-linejoin:round;stroke-miterlimit:4;stroke-dasharray:none;stroke-opacity:1" />
    <path
       inkscape:connector-curvature="0"
       id="path8984"
       d="m 426.01298,19.14968 c -0.0456,-4.033202 -0.083,-8.758202 -0.083,-10.5 V 5.482773 l 5.15625,0.0086 5.15625,0.0086 1.65138,1.960197 1.65138,1.960197 0.005,8.531251 0.005,8.53125 h -6.72952 -6.72952 l -0.083,-7.333094 z m 9.29756,4.083619 c 0.5026,-0.139627 1.16448,-0.766573 1.36179,-1.289913 0.0854,-0.226592 0.13267,-2.121066 0.13267,-5.320598 v -4.968711 l 0.44091,-0.210258 c 0.43715,-0.20846 0.43929,-0.213397 0.25089,-0.577725 -0.26974,-0.521619 -0.37668,-0.553866 -1.02091,-0.307836 -0.70701,0.270013 -1.38952,0.154605 -3.17089,-0.536176 -1.08935,-0.42243 -1.29598,-0.461164 -2.5,-0.468649 -1.1925,-0.0074 -1.38393,0.02483 -2.09375,0.352661 -0.42969,0.198451 -0.78125,0.388687 -0.78125,0.422746 0,0.08236 0.50923,0.903933 0.56028,0.903933 0.0219,0 0.34079,-0.140075 0.70856,-0.311278 0.36776,-0.171204 0.82335,-0.311829 1.01241,-0.3125 l 0.34375,-0.0012 v 3.806611 3.806611 l -0.61461,-0.07279 c -2.01799,-0.239002 -3.13793,2.149748 -1.64166,3.501537 0.77857,0.703391 1.83314,0.737666 2.66099,0.08648 0.70734,-0.556399 0.72028,-0.665104 0.72028,-6.053594 0,-4.183102 0.0274,-4.949859 0.17678,-4.949859 0.0972,0 0.67551,0.190326 1.28508,0.422947 0.60957,0.232621 1.43002,0.489734 1.82322,0.571362 l 0.71492,0.148416 v 3.732106 3.732106 l -0.66738,-0.06888 c -1.67974,-0.173365 -2.81401,1.388606 -2.09178,2.880534 0.46224,0.954855 1.36914,1.365452 2.3897,1.081934 z"
       style="display:inline;opacity:0.5;fill:#ffffff;fill-opacity:1;stroke:none;stroke-width:2;stroke-linejoin:round;stroke-miterlimit:4;stroke-dasharray:none;stroke-opacity:1" />
    <path
       inkscape:connector-curvature="0"
       id="path8986"
       d="m 457.51298,19.14968 c -0.0456,-4.033202 -0.083,-8.758202 -0.083,-10.5 V 5.482773 l 5.15625,0.0086 5.15625,0.0086 1.65138,1.960197 1.65138,1.960197 0.005,8.531251 0.005,8.53125 h -6.72952 -6.72952 l -0.083,-7.333094 z m 12.54202,3.270594 v -1.8125 h -0.5625 -0.5625 v 1.25 1.25 h -1.4375 -1.4375 v -1.25 -1.25 h -0.5625 -0.5625 v 1.8125 1.8125 h 2.5625 2.5625 z m -3,-6.250001 v -1.8125 h -0.5625 -0.5625 v 1.25 1.25 h -1.4375 -1.4375 v -1.25 -1.25 h -0.5625 -0.5625 v 1.8125 1.812501 h 2.5625 2.5625 z m -3.5,-6.125 v -1.8125 h -0.5625 -0.5625 v 1.25 1.25 h -1.4375 -1.4375 v -1.25 -1.25 h -0.5625 -0.5625 v 1.8125 1.8125 h 2.5625 2.5625 z"
       style="display:inline;opacity:0.5;fill:#ffffff;fill-opacity:1;stroke:none;stroke-width:2;stroke-linejoin:round;stroke-miterlimit:4;stroke-dasharray:none;stroke-opacity:1" />
    <path
       inkscape:connector-curvature="0"
       id="path8988"
       d="m 489.51021,18.587162 c -0.0456,-4.342585 -0.083,-9.067585 -0.083,-10.499999 v -2.60439 l 5.15625,0.0067 5.15625,0.0067 1.65094,1.962009 1.65094,1.962008 0.005,8.531251 0.005,8.53125 h -6.72949 -6.72949 l -0.083,-7.895612 z m 7.66699,1.458112 v -1.6875 h -0.5625 -0.5625 v 1.6875 1.6875 h 0.5625 0.5625 z m -4.0715,-0.817307 c 0.59902,-0.621392 1.06756,-1.194532 1.04119,-1.273643 -0.0264,-0.07911 -0.20019,-0.257499 -0.38625,-0.396417 l -0.3383,-0.252579 -1.12257,1.117367 c -0.61741,0.614551 -1.12257,1.171164 -1.12257,1.236916 0,0.174588 0.51856,0.698163 0.69147,0.698163 0.0813,0 0.638,-0.508413 1.23703,-1.129807 z m 8.00376,0.260284 0.35402,-0.369522 -0.97216,-1.036728 c -0.53469,-0.5702 -1.0255,-1.056984 -1.09069,-1.081742 -0.0652,-0.02476 -0.27961,0.109327 -0.47651,0.297966 l -0.35799,0.342979 1.02208,1.108285 c 0.56215,0.609557 1.05474,1.108285 1.09465,1.108285 0.0399,0 0.23188,-0.166285 0.4266,-0.369523 z m -3.61976,-1.768213 c 0.7083,-0.193138 1.71268,-1.246789 1.93067,-2.025365 0.62462,-2.230929 -1.30629,-4.303868 -3.57104,-3.833707 -2.42844,0.504141 -3.21705,3.665596 -1.3131,5.264059 0.82705,0.694345 1.84046,0.898511 2.95347,0.595013 z m -4.4375,-3.424765 v -0.5625 h -1.3125 -1.3125 v 0.5625 0.5625 h 1.3125 1.3125 z m 9,0 v -0.5625 h -1.0625 -1.0625 v 0.5625 0.5625 h 1.0625 1.0625 z m -0.40606,-4.036836 c 0.0365,-0.09516 -0.0974,-0.336826 -0.2976,-0.537024 l -0.364,-0.363996 -1.05456,1.060065 -1.05456,1.060064 0.35775,0.373408 0.35775,0.373407 0.99441,-0.896449 c 0.54692,-0.493046 1.02429,-0.97431 1.06081,-1.069475 z m -8.25108,-0.118521 -1.09135,-1.091346 -0.407,0.408964 -0.40701,0.408963 1.125,1.048427 1.125,1.048427 0.37335,-0.366044 0.37336,-0.366045 z m 3.9065,0.561607 c -3.5e-4,-0.292187 -0.0371,-1.082498 -0.0818,-1.756246 l -0.0811,-1.224996 -0.51199,0.0375 c -0.46836,0.0343 -0.51132,0.06679 -0.50417,0.381246 0.004,0.189063 0.0184,0.9625 0.0312,1.71875 l 0.0234,1.375 h 0.5625 0.5625 l -6.5e-4,-0.53125 h 1e-5 z"
       style="display:inline;opacity:0.5;fill:#ffffff;fill-opacity:1;stroke:none;stroke-width:2;stroke-linejoin:round;stroke-miterlimit:4;stroke-dasharray:none;stroke-opacity:1" />
    <path
       inkscape:connector-curvature="0"
       id="path8990"
       d="m 522.5522,15.982773 v -10.5 h 5.11303 5.11303 l 1.69947,2.022254 1.69947,2.022254 v 8.477746 8.477747 h -6.8125 -6.8125 z m 3.88712,4.158124 c 0.23128,-0.194611 0.58899,-0.737302 0.83043,-1.259863 0.4885,-1.057287 0.81883,-1.27326 1.94745,-1.27326 0.93809,0 1.40156,0.339917 1.96,1.4375 0.4976,0.977995 1.04491,1.4375 1.7122,1.4375 1.09478,0 2.16588,-1.239729 2.15994,-2.5 -7.5e-4,-0.171875 -0.0918,-0.70625 -0.2022,-1.187501 -0.11039,-0.48125 -0.21036,-1.162547 -0.22214,-1.513995 -0.0573,-1.708055 -1.62267,-2.44027 -5.2603,-2.460518 -2.89277,-0.0161 -4.39863,0.345138 -5.18841,1.244647 -0.31255,0.355981 -0.37431,0.533298 -0.37544,1.077966 -7.5e-4,0.358545 -0.0893,0.93315 -0.19671,1.2769 -0.26264,0.840245 -0.27323,2.266662 -0.0204,2.750001 0.2089,0.399365 0.74426,0.939816 1.15597,1.166967 0.47923,0.264396 1.25913,0.1743 1.69962,-0.196344 z"
       style="display:inline;opacity:0.5;fill:#ffffff;fill-opacity:1;stroke:none;stroke-width:2;stroke-linejoin:round;stroke-miterlimit:4;stroke-dasharray:none;stroke-opacity:1" />
    <path
       inkscape:connector-curvature="0"
       id="path8992"
       d="m 552.8022,15.982773 v -10.5 h 5.10502 5.10502 l 1.64498,1.960921 1.64498,1.960921 v 8.539079 8.53908 h -6.75 -6.75 z m 10.68778,7.531251 c -0.32885,-3.378803 -1.13002,-7.427728 -1.81176,-9.156251 -0.67881,-1.721061 -1.9052,-3.5 -2.41288,-3.5 -0.0942,0 -0.23461,0.206633 -0.31212,0.459185 -0.13353,0.43508 -0.11839,0.484128 0.28839,0.934383 1.41719,1.568658 2.60001,5.832894 3.12406,11.262683 l 0.0814,0.84375 h 0.5625 0.5625 l -0.0821,-0.84375 z m -6.13354,-5.822249 c 0.47656,-0.348472 0.1604,-1.209002 -0.4442,-1.209002 -0.32736,0 -0.61004,0.348789 -0.61004,0.752718 0,0.548267 0.58323,0.800694 1.05424,0.456284 z m -2.82924,-2.109002 c 0.19337,-0.193364 0.19337,-0.756635 0,-0.95 -0.0825,-0.0825 -0.29625,-0.15 -0.475,-0.15 -0.17875,0 -0.3925,0.0675 -0.475,0.15 -0.19336,0.193365 -0.19336,0.756636 0,0.95 0.19337,0.193365 0.75664,0.193365 0.95,0 z M 557.0566,15.043 c 0.61879,-0.319989 0.7059,-1.171169 0.16927,-1.653977 -0.65699,-0.591094 -1.67367,-0.134486 -1.67367,0.751677 0,0.451316 0.16588,0.730796 0.5625,0.947732 0.33919,0.18552 0.51135,0.177216 0.9419,-0.04543 z m 0.93416,-3.466477 -0.0814,-0.78125 0.6339,-0.35096 c 0.34864,-0.193029 0.63389,-0.392712 0.63389,-0.443741 0,-0.05103 -0.3375,-0.162489 -0.75,-0.247689 -0.63829,-0.131839 -0.75143,-0.196069 -0.7596,-0.43126 -0.005,-0.151992 -0.077,-0.499991 -0.15941,-0.77333 l -0.1498,-0.496981 -0.4123,0.670075 -0.4123,0.670075 -0.7408,-0.07743 c -0.40743,-0.04259 -0.74079,-0.0419 -0.74079,0.0015 0,0.04343 0.20272,0.326345 0.45048,0.628705 l 0.45047,0.549745 -0.26297,0.611301 c -0.14464,0.336216 -0.26298,0.668091 -0.26298,0.7375 0,0.06941 0.31515,-0.01317 0.70033,-0.183519 l 0.70033,-0.309718 0.54688,0.504097 c 0.30078,0.277253 0.58074,0.504096 0.62212,0.504096 0.0414,0 0.0386,-0.351562 -0.006,-0.78125 z m -3.12037,-0.02557 c 0.39516,-0.395169 0.39931,-0.946705 0.0105,-1.398711 -0.4152,-0.482704 -1.11719,-0.482704 -1.53239,0 -0.3426,0.398293 -0.37055,0.699373 -0.11144,1.200444 0.21226,0.410466 0.34352,0.481537 0.91457,0.495217 0.27982,0.0067 0.51032,-0.08853 0.71875,-0.29695 z m 9.154,-0.13777 c 0.35661,-0.249781 0.37781,-0.868099 0.036,-1.051014 -0.62886,-0.336556 -1.26022,0.14527 -1.01962,0.778121 0.18298,0.48126 0.54336,0.581246 0.98359,0.272893 z M 561.2629,9.710982 c 0.63788,-0.599261 0.19485,-1.728211 -0.6782,-1.728211 -0.57613,0 -0.85625,0.173137 -1.01448,0.627039 -0.15139,0.434276 -0.0107,0.962537 0.324,1.216711 0.33027,0.250798 1.04275,0.190653 1.36868,-0.115539 z m -4.2063,-2.042984 c 0.61879,-0.319989 0.7059,-1.171169 0.16927,-1.653977 -0.65699,-0.591094 -1.67367,-0.134486 -1.67367,0.751677 0,0.451316 0.16588,0.730796 0.5625,0.947732 0.33919,0.18552 0.51135,0.177216 0.9419,-0.04543 z m 5.54984,-0.226225 c 0.47656,-0.348472 0.1604,-1.209002 -0.4442,-1.209002 -0.32736,0 -0.61004,0.348789 -0.61004,0.752718 0,0.548267 0.58323,0.800694 1.05424,0.456284 z"
       style="display:inline;opacity:0.5;fill:#ffffff;fill-opacity:1;stroke:none;stroke-width:2;stroke-linejoin:round;stroke-miterlimit:4;stroke-dasharray:none;stroke-opacity:1" />
    <path
       inkscape:connector-curvature="0"
       id="path8994"
       d="m 585.00958,23.837619 c -0.0453,-1.454835 -0.0824,-6.179835 -0.0824,-10.5 V 5.482773 h 5.11878 5.11878 l 1.69372,1.997202 1.69372,1.997201 v 8.502799 8.502799 h -6.73012 -6.73012 l -0.0824,-2.645155 z m 9.16762,-3.292345 v -2.5625 h -1 -1 v -0.5625 -0.562501 h 1.6875 1.6875 v -1.3125 -1.3125 h 1 1 v -2.5625 -2.5625 h -2.5625 -2.5625 v 2.5625 2.5625 h 1 1 v 0.75 0.75 h -2.9375 -2.9375 v -0.75 -0.75 h 1.1875 1.1875 v -2.5625 -2.5625 h -2.5625 -2.5625 v 2.5625 2.5625 h 0.8125 0.8125 v 1.3125 1.3125 h 1.8125 1.8125 v 0.562501 0.5625 h -1 -1 v 2.5625 2.5625 h 2.5625 2.5625 z"
       style="display:inline;opacity:0.5;fill:#ffffff;fill-opacity:1;stroke:none;stroke-width:2;stroke-linejoin:round;stroke-miterlimit:4;stroke-dasharray:none;stroke-opacity:1" />
    <path
       inkscape:connector-curvature="0"
       id="path8996"
       d="m 648.80557,17.014023 c -4.1e-4,-5.207812 -0.0369,-9.932812 -0.081,-10.5 l -0.0803,-1.03125 5.17478,2.67e-4 5.17478,2.66e-4 1.65625,1.96522 1.65625,1.965221 v 8.534513 8.534514 h -6.75 -6.75 l -7.5e-4,-9.468751 z"
       style="display:inline;opacity:0.5;fill:#ffffff;fill-opacity:1;stroke:none;stroke-width:2;stroke-linejoin:round;stroke-miterlimit:4;stroke-dasharray:none;stroke-opacity:1" />
    <path
       inkscape:connector-curvature="0"
       id="path8998"
       d="m 682.18132,15.982773 v -10.5 h 5.11303 5.11303 l 1.69947,2.022254 1.69947,2.022254 v 8.477746 8.477747 h -6.8125 -6.8125 z"
       style="display:inline;opacity:0.5;fill:#ffffff;fill-opacity:1;stroke:none;stroke-width:2;stroke-linejoin:round;stroke-miterlimit:4;stroke-dasharray:none;stroke-opacity:1" />
    <path
       inkscape:connector-curvature="0"
       id="path9000"
       d="m 712.6389,23.087465 c -0.0454,-1.867419 -0.0826,-6.592419 -0.0826,-10.5 V 5.482773 h 5.11737 5.11737 l 1.69513,1.991037 1.69513,1.991036 v 8.508964 8.508964 h -6.72992 -6.72991 l -0.0826,-3.395309 z"
       style="display:inline;opacity:0.5;fill:#ffffff;fill-opacity:1;stroke:none;stroke-width:2;stroke-linejoin:round;stroke-miterlimit:4;stroke-dasharray:none;stroke-opacity:1" />
    <path
       inkscape:connector-curvature="0"
       id="path9014"
       d="m 172.14628,10.11201 c -0.92969,-0.73129 -0.68755,-2.067489 0.45298,-2.499662 0.81688,-0.309537 1.82574,0.459935 1.82574,1.392516 0,0.40527 -0.0825,0.585423 -0.425,0.927909 -0.35642,0.356425 -0.51506,0.425 -0.98314,0.425 -0.36566,0 -0.66589,-0.08475 -0.87058,-0.245763 z"
       style="display:inline;opacity:0.5;fill:#ffff4c;fill-opacity:1;stroke:none;stroke-width:2;stroke-linejoin:round;stroke-miterlimit:4;stroke-dasharray:none;stroke-opacity:1" />
    <path
       inkscape:connector-curvature="0"
       id="path9016"
       d="m 495.54969,16.500856 c -0.48981,-0.262689 -1.00116,-1.113999 -1.00116,-1.666758 0,-0.572216 0.31124,-1.16497 0.81241,-1.547235 0.37079,-0.282809 0.59744,-0.355143 1.12877,-0.360228 1.8993,-0.01817 2.65064,2.430217 1.07444,3.501272 -0.55284,0.375665 -1.39326,0.406099 -2.01446,0.07295 z"
       style="display:inline;opacity:0.5;fill:#ffff4c;fill-opacity:1;stroke:none;stroke-width:2;stroke-linejoin:round;stroke-miterlimit:4;stroke-dasharray:none;stroke-opacity:1" />
    <path
       inkscape:connector-curvature="0"
       id="path9018"
       d="m 524.96449,19.064932 c -0.45507,-0.417549 -0.47768,-0.474586 -0.46251,-1.166833 0.009,-0.400304 0.13647,-1.080972 0.28377,-1.512596 0.19815,-0.580638 0.23476,-0.846527 0.14074,-1.022194 -0.27817,-0.519759 0.30946,-0.962325 1.68454,-1.268708 1.09824,-0.244699 4.40809,-0.213325 5.40699,0.05125 1.22376,0.324137 1.71937,0.77164 1.42908,1.290358 -0.0797,0.142488 -0.0383,0.430163 0.13083,0.908773 0.37749,1.068058 0.41729,1.986639 0.10738,2.478184 -0.29051,0.460769 -0.79166,0.64416 -1.08806,0.398169 -0.10892,-0.09039 -0.36725,-0.522496 -0.57407,-0.960228 -0.62123,-1.314844 -1.63628,-1.861088 -3.24655,-1.747114 -1.28692,0.09109 -1.89354,0.502902 -2.41269,1.637903 -0.22474,0.491356 -0.52391,0.996575 -0.66481,1.122708 -0.25084,0.224556 -0.26614,0.220187 -0.73464,-0.209675 z"
       style="display:inline;opacity:0.5;fill:#ffffff;fill-opacity:1;stroke:none;stroke-width:2;stroke-linejoin:round;stroke-miterlimit:4;stroke-dasharray:none;stroke-opacity:1" />
    <path
       inkscape:connector-curvature="0"
       id="path9020"
       d="m 586.92353,11.670273 v -1.4375 h 1.4375 1.4375 v 1.4375 1.4375 h -1.4375 -1.4375 z"
       style="display:inline;opacity:0.5;fill:#ffffff;fill-opacity:1;stroke:none;stroke-width:2;stroke-linejoin:round;stroke-miterlimit:4;stroke-dasharray:none;stroke-opacity:1" />
    <path
       inkscape:connector-curvature="0"
       id="path9022"
       d="m 590.17353,20.545274 v -1.4375 h 1.4375 1.4375 v 1.4375 1.4375 h -1.4375 -1.4375 z"
       style="display:inline;opacity:0.5;fill:#ffffff;fill-opacity:1;stroke:none;stroke-width:2;stroke-linejoin:round;stroke-miterlimit:4;stroke-dasharray:none;stroke-opacity:1" />
    <path
       inkscape:connector-curvature="0"
       id="path9024"
       d="m 593.54853,11.670273 v -1.4375 h 1.4375 1.4375 v 1.4375 1.4375 h -1.4375 -1.4375 z"
       style="display:inline;opacity:0.5;fill:#ffffff;fill-opacity:1;stroke:none;stroke-width:2;stroke-linejoin:round;stroke-miterlimit:4;stroke-dasharray:none;stroke-opacity:1" />
    <path
       inkscape:connector-curvature="0"
       id="path9026"
       d="m 434.10535,21.925955 c -0.39371,-0.393702 -0.40103,-0.936096 -0.0175,-1.296392 0.40937,-0.384583 0.99895,-0.358999 1.32663,0.05757 0.34367,0.436907 0.32721,0.863863 -0.0478,1.238824 -0.39103,0.391035 -0.87033,0.391035 -1.26136,0 z"
       style="display:inline;opacity:0.5;fill:#ffffff;fill-opacity:1;stroke:none;stroke-width:2;stroke-linejoin:round;stroke-miterlimit:4;stroke-dasharray:none;stroke-opacity:1" />
    <path
       inkscape:connector-curvature="0"
       id="path9028"
       d="m 429.03738,20.873879 c -0.64369,-0.521226 -0.215,-1.641105 0.62821,-1.641105 0.80253,0 1.18576,1.118656 0.55358,1.615927 -0.40864,0.321441 -0.80548,0.329895 -1.18179,0.02518 z"
       style="display:inline;opacity:0.5;fill:#ffffff;fill-opacity:1;stroke:none;stroke-width:2;stroke-linejoin:round;stroke-miterlimit:4;stroke-dasharray:none;stroke-opacity:1" />
    <path
       inkscape:connector-curvature="0"
       id="path9030"
       d="m 403.49841,22.81114 c 0,-0.01814 0.46755,-1.113144 0.48203,-1.128928 0.006,-0.006 0.36469,0.882307 0.4421,1.093398 0.0185,0.05056 -0.0156,0.05469 -0.45204,0.05469 -0.25965,0 -0.47209,-0.0086 -0.47209,-0.01916 z"
       style="display:inline;opacity:0.5;fill:#ffffff;fill-opacity:1;stroke:none;stroke-width:2;stroke-linejoin:round;stroke-miterlimit:4;stroke-dasharray:none;stroke-opacity:1" />
    <path
       inkscape:connector-curvature="0"
       id="path9032"
       d="m 369.2628,21.930461 c -0.75998,-0.53231 -0.37679,-1.715085 0.55402,-1.710055 0.56139,0.003 0.93825,0.393979 0.93825,0.973334 0,0.422273 -0.49133,0.880856 -0.94377,0.880856 -0.18849,0 -0.43532,-0.06486 -0.5485,-0.144135 z"
       style="display:inline;opacity:0.5;fill:#ffffff;fill-opacity:1;stroke:none;stroke-width:2;stroke-linejoin:round;stroke-miterlimit:4;stroke-dasharray:none;stroke-opacity:1" />
    <path
       inkscape:connector-curvature="0"
       id="path9034"
       d="m 364.28173,20.875573 c -0.53092,-0.288076 -0.66331,-1.012361 -0.26627,-1.456691 0.50528,-0.565455 1.40362,-0.376359 1.61845,0.340674 0.13586,0.453445 -0.0665,0.914175 -0.48959,1.114967 -0.36018,0.170917 -0.5491,0.171147 -0.86259,0.0011 z"
       style="display:inline;opacity:0.5;fill:#ffffff;fill-opacity:1;stroke:none;stroke-width:2;stroke-linejoin:round;stroke-miterlimit:4;stroke-dasharray:none;stroke-opacity:1" />
    <path
       inkscape:connector-curvature="0"
       id="path9036"
       d="m 301.37022,16.464377 c 0,-3.204115 0.0201,-3.844167 0.11874,-3.785435 0.41548,0.247311 5.27295,3.768204 5.27295,3.822048 0,0.03653 -0.96454,0.737814 -2.14342,1.558405 -1.17888,0.820591 -2.39201,1.665035 -2.69585,1.876543 l -0.55242,0.384558 z"
       style="display:inline;opacity:0.5;fill:#ffffff;fill-opacity:1;stroke:none;stroke-width:2;stroke-linejoin:round;stroke-miterlimit:4;stroke-dasharray:none;stroke-opacity:1" />
    <path
       inkscape:connector-curvature="0"
       id="path9038"
       d="m 270.73531,13.625173 c -0.72127,-0.312419 -1.16463,-1.003155 -1.16078,-1.808448 0.009,-1.817964 2.20453,-2.622452 3.38707,-1.240921 0.8718,1.0185 0.54762,2.461306 -0.67949,3.024219 -0.428,0.196337 -1.1254,0.207677 -1.5468,0.02515 z"
       style="display:inline;opacity:0.5;fill:#ffffff;fill-opacity:1;stroke:none;stroke-width:2;stroke-linejoin:round;stroke-miterlimit:4;stroke-dasharray:none;stroke-opacity:1" />
    <path
       inkscape:connector-curvature="0"
       id="path9040"
       d="m 207.71442,18.804227 v -1.944544 h 1.94454 1.94455 v 1.944544 1.944543 h -1.94455 -1.94454 z"
       style="display:inline;opacity:0.5;fill:#ffffff;fill-opacity:1;stroke:none;stroke-width:2;stroke-linejoin:round;stroke-miterlimit:4;stroke-dasharray:none;stroke-opacity:1" />
    <path
       inkscape:connector-curvature="0"
       id="path9042"
       d="m 205.6567,18.282789 -0.95287,-1.430277 0.0248,-1.045398 0.0248,-1.045399 0.95225,0.907476 0.95225,0.907476 -0.0242,1.568199 -0.0242,1.568199 -0.95287,-1.430276 z"
       style="display:inline;opacity:0.5;fill:#ffffff;fill-opacity:1;stroke:none;stroke-width:2;stroke-linejoin:round;stroke-miterlimit:4;stroke-dasharray:none;stroke-opacity:1" />
    <path
       inkscape:connector-curvature="0"
       id="path9044"
       d="m 206.40043,14.822722 -1.00464,-0.968243 h 1.16143 1.16143 l 1.34581,0.895134 c 0.74019,0.492323 1.38359,0.929845 1.42977,0.972271 0.0481,0.04417 -0.59418,0.07542 -1.5026,0.07311 l -1.58657,-0.004 -1.00463,-0.968243 z"
       style="display:inline;opacity:0.5;fill:#ffffff;fill-opacity:1;stroke:none;stroke-width:2;stroke-linejoin:round;stroke-miterlimit:4;stroke-dasharray:none;stroke-opacity:1" />
    <path
       inkscape:connector-curvature="0"
       id="path9046"
       d="m 178.5197,16.019994 2.9e-4,-10.562408 h 0.25994 c 0.23018,0 0.45266,0.228099 1.94366,1.992778 l 1.68373,1.992778 v 8.56963 8.569629 h -1.94396 -1.94395 z"
       style="display:inline;opacity:0.5;fill:#ffffff;fill-opacity:1;stroke:none;stroke-width:2;stroke-linejoin:round;stroke-miterlimit:4;stroke-dasharray:none;stroke-opacity:1" />
    <path
       inkscape:connector-curvature="0"
       id="path9048"
       d="m 143.51645,18.804227 v -1.944544 h 1.98874 1.98874 v 1.944544 1.944543 h -1.98874 -1.98874 z"
       style="display:inline;opacity:0.5;fill:#ffffff;fill-opacity:1;stroke:none;stroke-width:2;stroke-linejoin:round;stroke-miterlimit:4;stroke-dasharray:none;stroke-opacity:1" />
    <path
       inkscape:connector-curvature="0"
       id="path9050"
       d="m 141.45849,18.236646 -0.95311,-1.435374 0.025,-1.037037 0.025,-1.037037 0.95553,0.911563 0.95552,0.911563 -0.0274,1.560848 -0.0274,1.560848 -0.95311,-1.435374 z"
       style="display:inline;opacity:0.5;fill:#ffffff;fill-opacity:1;stroke:none;stroke-width:2;stroke-linejoin:round;stroke-miterlimit:4;stroke-dasharray:none;stroke-opacity:1" />
    <path
       inkscape:connector-curvature="0"
       id="path9052"
       d="m 142.23482,14.826751 -0.96926,-0.972272 h 1.12821 1.12821 l 1.47774,0.970371 1.47774,0.970371 -1.63669,0.0019 -1.63669,0.0019 -0.96926,-0.972272 z"
       style="display:inline;opacity:0.5;fill:#ffffff;fill-opacity:1;stroke:none;stroke-width:2;stroke-linejoin:round;stroke-miterlimit:4;stroke-dasharray:none;stroke-opacity:1" />
    <path
       inkscape:connector-curvature="0"
       id="path9054"
       d="m 110.55326,18.619789 c -0.75999,-0.24798 -1.57383,-1.033449 -1.8237,-1.760106 -0.5013,-1.457892 0.10398,-2.9619 1.48356,-3.686381 0.40953,-0.215061 0.56504,-0.245373 1.26255,-0.246087 0.69332,-7.08e-4 0.86024,0.03098 1.29954,0.246706 0.63692,0.312771 1.2393,0.974398 1.48859,1.635008 0.24584,0.651451 0.21166,1.643872 -0.0772,2.240511 -0.66965,1.383312 -2.1912,2.040926 -3.63337,1.570349 z"
       style="display:inline;opacity:0.5;fill:#ffffff;fill-opacity:1;stroke:none;stroke-width:2;stroke-linejoin:round;stroke-miterlimit:4;stroke-dasharray:none;stroke-opacity:1" />
    <path
       inkscape:connector-curvature="0"
       id="path9056"
       d="M 48.291975,20.571994 V 18.09712 h 1.944544 1.944544 v 2.474874 2.474873 h -1.944544 -1.944544 z"
       style="display:inline;opacity:0.5;fill:#ffffff;fill-opacity:1;stroke:none;stroke-width:2;stroke-linejoin:round;stroke-miterlimit:4;stroke-dasharray:none;stroke-opacity:1" />
    <path
       inkscape:connector-curvature="0"
       id="path9058"
       d="M 43.253838,12.175101 V 9.700227 h 1.988737 1.988738 v 2.474874 2.474873 h -1.988738 -1.988737 z"
       style="display:inline;opacity:0.5;fill:#ffffff;fill-opacity:1;stroke:none;stroke-width:2;stroke-linejoin:round;stroke-miterlimit:4;stroke-dasharray:none;stroke-opacity:1" />
    <path
       inkscape:connector-curvature="0"
       id="path9060"
       d="m 80.553725,19.820693 v -1.988738 h 3.093592 3.093592 v 1.988738 1.988738 h -3.093592 -3.093592 z"
       style="display:inline;opacity:0.5;fill:#ffffff;fill-opacity:1;stroke:none;stroke-width:2;stroke-linejoin:round;stroke-miterlimit:4;stroke-dasharray:none;stroke-opacity:1" />
    <path
       inkscape:connector-curvature="0"
       id="path9062"
       d="m 73.217489,19.820693 v -1.988738 h 3.137788 3.137788 v 1.988738 1.988738 h -3.137788 -3.137788 z"
       style="display:inline;opacity:0.5;fill:#ffffff;fill-opacity:1;stroke:none;stroke-width:2;stroke-linejoin:round;stroke-miterlimit:4;stroke-dasharray:none;stroke-opacity:1" />
    <path
       inkscape:connector-curvature="0"
       id="path9064"
       d="m 76.576245,14.826751 v -1.944544 h 3.447147 3.447147 v 1.944544 1.944544 h -3.447147 -3.447147 z"
       style="display:inline;opacity:0.5;fill:#ffffff;fill-opacity:1;stroke:none;stroke-width:2;stroke-linejoin:round;stroke-miterlimit:4;stroke-dasharray:none;stroke-opacity:1" />
    <path
       inkscape:connector-curvature="0"
       id="path9066"
       d="m 84.531199,14.826751 v -1.944544 h 1.104855 1.104855 v 1.944544 1.944544 h -1.104855 -1.104855 z"
       style="display:inline;opacity:0.5;fill:#ffffff;fill-opacity:1;stroke:none;stroke-width:2;stroke-linejoin:round;stroke-miterlimit:4;stroke-dasharray:none;stroke-opacity:1" />
    <path
       inkscape:connector-curvature="0"
       id="path9068"
       d="m 73.187179,15.29877 c -0.03194,-0.809888 -0.05808,-1.684933 -0.05808,-1.944543 v -0.47202 h 1.149047 1.14905 v 1.944544 1.944544 h -1.090975 -1.090974 l -0.05807,-1.472525 z"
       style="display:inline;opacity:0.5;fill:#ffffff;fill-opacity:1;stroke:none;stroke-width:2;stroke-linejoin:round;stroke-miterlimit:4;stroke-dasharray:none;stroke-opacity:1" />
    <path
       inkscape:connector-curvature="0"
       id="path9074"
       d="m 617.51508,23.951231 c -0.0321,-1.421948 -0.0583,-6.175031 -0.0584,-10.562408 l -1.6e-4,-7.977049 5.10442,1.2e-5 5.10443,1.3e-5 1.69863,2.010822 1.69862,2.010823 0.003,8.551573 0.003,8.551573 h -6.74747 -6.74747 l -0.0583,-2.585359 z m 11.694,-1.772756 c 0.17662,-0.06083 0.39313,-0.234633 0.5114,-0.41053 l 0.2051,-0.305033 -0.0253,-3.118413 -0.0253,-3.118413 -0.28871,-0.288865 -0.28872,-0.288864 -1.1034,-0.02931 -1.1034,-0.0293 -0.002,-0.942967 c -0.002,-1.049997 -0.12979,-1.463005 -0.58354,-1.888402 -1.02808,-0.963842 -3.49146,-0.976025 -4.61936,-0.02285 -0.45027,0.380526 -0.54041,0.68897 -0.54041,1.849327 v 1.019305 h -1.04759 c -0.94452,0 -1.07713,0.01987 -1.34792,0.201934 -0.1716,0.11538 -0.34555,0.333223 -0.40583,0.508233 -0.11354,0.329645 -0.16439,5.563882 -0.0592,6.089999 0.0654,0.326941 0.47538,0.772059 0.76204,0.82734 0.10897,0.02101 2.32607,0.04138 4.9269,0.04526 3.45004,0.0051 4.81161,-0.02148 5.03508,-0.09845 z"
       style="display:inline;fill:#ffffff;fill-opacity:1;stroke:none;stroke-width:2;stroke-linecap:butt;stroke-linejoin:miter;stroke-miterlimit:4;stroke-dasharray:none;stroke-opacity:1;opacity:0.5" />
    <path
       inkscape:connector-curvature="0"
       id="path9076"
       d="m 619.48942,18.449056 v -2.784233 h 4.68458 4.68458 v 2.784233 2.784233 h -4.68458 -4.68458 z"
       style="display:inline;fill:#ffffff;fill-opacity:1;stroke:none;stroke-width:2;stroke-linecap:butt;stroke-linejoin:miter;stroke-miterlimit:4;stroke-dasharray:none;stroke-opacity:1;opacity:0.5" />
    <path
       inkscape:connector-curvature="0"
       id="path9078"
       d="m 622.31785,13.688138 c 0,-0.867528 0.0121,-0.928134 0.22873,-1.144755 0.33123,-0.331234 0.77579,-0.456148 1.62742,-0.457285 0.84079,-0.0011 1.50176,0.195269 1.72372,0.512166 0.0968,0.138199 0.13244,0.433517 0.13244,1.097488 v 0.908411 h -1.85616 -1.85615 z"
       style="display:inline;fill:#ffffff;fill-opacity:1;stroke:none;stroke-width:2;stroke-linecap:butt;stroke-linejoin:miter;stroke-miterlimit:4;stroke-dasharray:none;stroke-opacity:1;opacity:0.5" />
  </g>
</svg>
