<?xml version="1.0" encoding="UTF-8" standalone="no"?>
<!-- Created with Inkscape (http://www.inkscape.org/) -->

<svg
   width="368"
   height="16"
   viewBox="0 0 736 32"
   id="svg2"
   version="1.1"
   inkscape:version="1.2.2 (732a01da63, 2022-12-09)"
   sodipodi:docname="Types.svg"
   inkscape:export-filename="C:\private\traktor\res\icons-new\g4486.png"
   inkscape:export-xdpi="90"
   inkscape:export-ydpi="90"
   xmlns:inkscape="http://www.inkscape.org/namespaces/inkscape"
   xmlns:sodipodi="http://sodipodi.sourceforge.net/DTD/sodipodi-0.dtd"
   xmlns="http://www.w3.org/2000/svg"
   xmlns:svg="http://www.w3.org/2000/svg"
   xmlns:rdf="http://www.w3.org/1999/02/22-rdf-syntax-ns#"
   xmlns:cc="http://creativecommons.org/ns#"
   xmlns:dc="http://purl.org/dc/elements/1.1/">
  <sodipodi:namedview
     id="base"
     pagecolor="#4d6571"
     bordercolor="#ffffff"
     borderopacity="1"
     inkscape:pageopacity="0"
     inkscape:pageshadow="2"
     inkscape:zoom="11.313708"
     inkscape:cx="225.65546"
     inkscape:cy="9.2807769"
     inkscape:document-units="px"
     inkscape:current-layer="Dark"
     showgrid="true"
     inkscape:snap-global="true"
     inkscape:snap-grids="true"
     inkscape:snap-to-guides="false"
     inkscape:window-width="1220"
     inkscape:window-height="695"
     inkscape:window-x="1228"
     inkscape:window-y="1840"
     inkscape:window-maximized="0"
     units="px"
     inkscape:showpageshadow="false"
     showborder="true"
     objecttolerance="10000"
     guidetolerance="10000"
     showguides="true"
     inkscape:pagecheckerboard="0"
     inkscape:deskcolor="#314048">
    <inkscape:grid
       type="xygrid"
       id="grid4490"
       empspacing="1"
       snapvisiblegridlinesonly="false"
       originx="1"
       originy="1"
       spacingy="2"
       spacingx="2"
       units="px"
       visible="true" />
  </sodipodi:namedview>
  <defs
     id="defs4" />
  <metadata
     id="metadata7">
    <rdf:RDF>
      <cc:Work
         rdf:about="">
        <dc:format>image/svg+xml</dc:format>
        <dc:type
           rdf:resource="http://purl.org/dc/dcmitype/StillImage" />
      </cc:Work>
    </rdf:RDF>
  </metadata>
  <g
     style="display:inline;opacity:1"
     inkscape:label="Dark"
     id="Dark"
     inkscape:groupmode="layer">
    <path
       inkscape:connector-curvature="0"
       id="path8956-2"
       d="M 37,15.982773 V 3 h 9.318566 5.103335 L 57,9 V 17.946422 29 H 47.965222 37 Z"
       style="display:inline;fill:#353535;fill-opacity:0.5;stroke:#d9d9d9;stroke-width:2;stroke-linejoin:round;stroke-miterlimit:4;stroke-dasharray:none;stroke-opacity:1"
       sodipodi:nodetypes="cccccccccc" />
    <path
       inkscape:connector-curvature="0"
       id="path8956-2-8"
       d="M 69,15.982773 V 3 h 9.318566 5.103335 L 89,9 V 17.946422 29 H 79.965222 69 Z"
       style="display:inline;fill:#353535;fill-opacity:0.5;stroke:#d9d9d9;stroke-width:2;stroke-linejoin:round;stroke-miterlimit:4;stroke-dasharray:none;stroke-opacity:1"
       sodipodi:nodetypes="cccccccccc" />
    <rect
       y="7.7016931"
       x="41.159008"
       height="6"
       width="5"
       id="rect8758"
       style="display:inline;opacity:1;fill:none;fill-opacity:1;stroke:#ffffff;stroke-width:1;stroke-miterlimit:4;stroke-dasharray:none;stroke-opacity:1" />
    <rect
       y="17.579294"
       x="47.75"
       height="6"
       width="5"
       id="rect8760"
       style="display:inline;opacity:1;fill:none;fill-opacity:1;stroke:#ffffff;stroke-width:1;stroke-miterlimit:4;stroke-dasharray:none;stroke-opacity:1" />
    <path
       inkscape:connector-curvature="0"
       id="path8762"
       d="m 43.762563,13.738305 0,7.59099 H 48"
       style="display:inline;opacity:1;fill:none;fill-opacity:1;stroke:#ffffff;stroke-width:1;stroke-miterlimit:4;stroke-dasharray:none;stroke-opacity:1"
       sodipodi:nodetypes="ccc" />
    <path
       inkscape:connector-curvature="0"
       id="path8764"
       d="M 70.147727,11.09634 H 87.875"
       style="display:inline;opacity:1;fill:none;fill-opacity:1;stroke:#ffffff;stroke-width:1.28409;stroke-miterlimit:4;stroke-dasharray:none;stroke-opacity:1"
       sodipodi:nodetypes="cc" />
    <path
       sodipodi:nodetypes="cc"
       inkscape:connector-curvature="0"
       id="path8766"
       d="M 70.147727,23.93725 H 87.875"
       style="display:inline;opacity:1;fill:none;fill-opacity:1;stroke:#ffffff;stroke-width:1.28409;stroke-miterlimit:4;stroke-dasharray:none;stroke-opacity:1" />
    <path
       sodipodi:nodetypes="cc"
       inkscape:connector-curvature="0"
       id="path8768"
       d="M 70.136063,17.516795 H 87.875"
       style="display:inline;opacity:1;fill:none;fill-opacity:1;stroke:#ffffff;stroke-width:1.28409;stroke-miterlimit:4;stroke-dasharray:none;stroke-opacity:1" />
    <path
       sodipodi:nodetypes="cc"
       inkscape:connector-curvature="0"
       id="path8770"
       d="M 79.136364,17.597051 V 23.93725"
       style="display:inline;opacity:1;fill:none;fill-opacity:1;stroke:#ffffff;stroke-width:1.28409;stroke-miterlimit:4;stroke-dasharray:none;stroke-opacity:1" />
    <path
       sodipodi:nodetypes="cc"
       inkscape:connector-curvature="0"
       id="path8772"
       d="m 74,11.09634 v 6.420455"
       style="display:inline;opacity:1;fill:none;fill-opacity:1;stroke:#ffffff;stroke-width:1.28409;stroke-miterlimit:4;stroke-dasharray:none;stroke-opacity:1" />
    <path
       sodipodi:nodetypes="cc"
       inkscape:connector-curvature="0"
       id="path8774"
       d="m 84.272727,11.176596 v 6.340199"
       style="display:inline;opacity:1;fill:none;fill-opacity:1;stroke:#ffffff;stroke-width:1.28409;stroke-miterlimit:4;stroke-dasharray:none;stroke-opacity:1" />
    <path
       inkscape:connector-curvature="0"
       id="path8956-2-8-8"
       d="M 101,15.982773 V 3 h 9.31856 5.10334 L 121,9 V 17.946422 29 H 111.96522 101 Z"
       style="display:inline;fill:#353535;fill-opacity:0.5;stroke:#d9d9d9;stroke-width:2;stroke-linejoin:round;stroke-miterlimit:4;stroke-dasharray:none;stroke-opacity:1"
       sodipodi:nodetypes="cccccccccc" />
    <path
       inkscape:connector-curvature="0"
       id="path8956-2-8-8-2"
       d="M 133,15.982773 V 3 h 9.31856 5.10334 L 153,9 V 17.946422 29 H 143.96522 133 Z"
       style="display:inline;fill:#353535;fill-opacity:0.5;stroke:#d9d9d9;stroke-width:2;stroke-linejoin:round;stroke-miterlimit:4;stroke-dasharray:none;stroke-opacity:1"
       sodipodi:nodetypes="cccccccccc" />
    <path
       inkscape:connector-curvature="0"
       id="path8956-2-8-8-2-1"
       d="M 165,15.982773 V 3 h 9.31856 5.10334 L 185,8.9999999 V 17.946422 29 H 175.96522 165 Z"
       style="display:inline;fill:#353535;fill-opacity:0.5;stroke:#d9d9d9;stroke-width:2;stroke-linejoin:round;stroke-miterlimit:4;stroke-dasharray:none;stroke-opacity:1"
       sodipodi:nodetypes="cccccccccc" />
    <circle
       r="5.578125"
       cy="16.454296"
       cx="110.875"
       id="circle8776"
       style="display:inline;opacity:1;fill:none;fill-opacity:1;stroke:#ffffff;stroke-width:1.59375;stroke-miterlimit:4;stroke-dasharray:none;stroke-opacity:1" />
    <rect
       y="15.023129"
       x="141.69383"
       height="6.8692408"
       width="6.8692408"
       id="rect8778"
       style="display:inline;opacity:1;fill:none;fill-opacity:1;stroke:#ffffff;stroke-width:1.37385;stroke-miterlimit:4;stroke-dasharray:none;stroke-opacity:1" />
    <path
       sodipodi:nodetypes="ccccc"
       inkscape:connector-curvature="0"
       id="path8780"
       d="m 148.74522,14.901699 -6.12518,-4.038207 h -5.08585 v 5.047758 l 4.07378,6.152852"
       style="display:inline;opacity:1;fill:none;fill-opacity:1;stroke:#ffffff;stroke-width:1.37385;stroke-miterlimit:4;stroke-dasharray:none;stroke-opacity:1" />
    <path
       sodipodi:nodetypes="cc"
       inkscape:connector-curvature="0"
       id="path8782"
       d="m 137.53419,10.984924 4.15965,4.038206"
       style="display:inline;opacity:1;fill:none;fill-opacity:1;stroke:#ffffff;stroke-width:1.37385;stroke-miterlimit:4;stroke-dasharray:none;stroke-opacity:1" />
    <path
       inkscape:connector-curvature="0"
       id="path8956-2-8-8-2-0"
       d="M 197,15.982773 V 3 h 9.31856 5.10334 L 217,8.9999997 V 17.946422 29 H 207.96522 197 Z"
       style="display:inline;fill:#353535;fill-opacity:0.5;stroke:#d9d9d9;stroke-width:2;stroke-linejoin:round;stroke-miterlimit:4;stroke-dasharray:none;stroke-opacity:1"
       sodipodi:nodetypes="cccccccccc" />
    <rect
       y="15.02313"
       x="205.69385"
       height="6.8692408"
       width="6.8692408"
       id="rect8778-9"
       style="display:inline;fill:none;fill-opacity:1;stroke:#ffffff;stroke-width:1.37385;stroke-miterlimit:4;stroke-dasharray:none;stroke-opacity:1" />
    <path
       sodipodi:nodetypes="ccccc"
       inkscape:connector-curvature="0"
       id="path8780-0"
       d="m 212.74522,14.901699 -6.12518,-4.038207 h -5.08585 v 5.047758 l 4.07378,6.152852"
       style="display:inline;fill:none;fill-opacity:1;stroke:#ffffff;stroke-width:1.37385;stroke-miterlimit:4;stroke-dasharray:none;stroke-opacity:1" />
    <path
       sodipodi:nodetypes="cc"
       inkscape:connector-curvature="0"
       id="path8782-1"
       d="m 201.53419,10.984924 4.15965,4.038206"
       style="display:inline;fill:none;fill-opacity:1;stroke:#ffffff;stroke-width:1.37385;stroke-miterlimit:4;stroke-dasharray:none;stroke-opacity:1" />
    <path
       inkscape:connector-curvature="0"
       id="path8784"
       d="m 178.5,4.641795 v 22.6875"
       style="display:inline;opacity:1;fill:none;fill-opacity:1;stroke:#ffffff;stroke-width:1;stroke-miterlimit:4;stroke-dasharray:none;stroke-opacity:1"
       sodipodi:nodetypes="cc" />
    <path
       inkscape:connector-curvature="0"
       id="path8786"
       d="m 172,24.329295 6,-9 -3.125,-3.8125"
       style="display:inline;opacity:1;fill:none;fill-opacity:1;stroke:#ffffff;stroke-width:1;stroke-miterlimit:4;stroke-dasharray:none;stroke-opacity:1"
       sodipodi:nodetypes="ccc" />
    <path
       inkscape:connector-curvature="0"
       id="path8956-2-8-8-29-8"
       d="M 261,15.982773 V 3 h 9.31856 5.10334 L 281,9 V 17.946422 29 H 271.96522 261 Z"
       style="display:inline;fill:#353535;fill-opacity:0.5;stroke:#d9d9d9;stroke-width:2;stroke-linejoin:round;stroke-miterlimit:4;stroke-dasharray:none;stroke-opacity:1"
       sodipodi:nodetypes="cccccccccc" />
    <path
       inkscape:connector-curvature="0"
       id="path8956-2-8-8-29-8-7"
       d="M 293,15.982773 V 3 h 9.31856 5.10334 L 313,9 V 17.946422 29 H 303.96522 293 Z"
       style="display:inline;fill:#353535;fill-opacity:0.5;stroke:#d9d9d9;stroke-width:2;stroke-linejoin:round;stroke-miterlimit:4;stroke-dasharray:none;stroke-opacity:1"
       sodipodi:nodetypes="cccccccccc" />
    <path
       inkscape:connector-curvature="0"
       id="path8956-2-8-8-29-8-7-3"
       d="M 325,15.982773 V 3 h 9.31856 5.10334 L 345,9 V 17.946422 29 H 335.96522 325 Z"
       style="display:inline;fill:#353535;fill-opacity:0.5;stroke:#d9d9d9;stroke-width:2;stroke-linejoin:round;stroke-miterlimit:4;stroke-dasharray:none;stroke-opacity:1"
       sodipodi:nodetypes="cccccccccc" />
    <circle
       r="2.947536"
       cy="10.421795"
       cx="270.60507"
       id="circle8800"
       style="display:inline;opacity:1;fill:none;fill-opacity:1;stroke:#ffffff;stroke-width:1.17901;stroke-miterlimit:4;stroke-dasharray:none;stroke-opacity:1" />
    <path
       inkscape:connector-curvature="0"
       id="path8802"
       d="m 267.65754,25.159475 3.53704,-4.716058 3.53704,4.716058"
       style="display:inline;opacity:1;fill:none;fill-opacity:1;stroke:#ffffff;stroke-width:1.17901;stroke-miterlimit:4;stroke-dasharray:none;stroke-opacity:1" />
    <path
       sodipodi:nodetypes="cc"
       inkscape:connector-curvature="0"
       id="path8804"
       d="m 265.29951,16.906374 11.13218,-1.283225"
       style="display:inline;opacity:1;fill:none;fill-opacity:1;stroke:#ffffff;stroke-width:1.17901;stroke-miterlimit:4;stroke-dasharray:none;stroke-opacity:1" />
    <path
       sodipodi:nodetypes="cc"
       inkscape:connector-curvature="0"
       id="path8806"
       d="m 270.77774,13.26512 0.41684,7.178297"
       style="display:inline;opacity:1;fill:none;fill-opacity:1;stroke:#ffffff;stroke-width:1.17901;stroke-miterlimit:4;stroke-dasharray:none;stroke-opacity:1" />
    <path
       sodipodi:nodetypes="cccc"
       inkscape:connector-curvature="0"
       id="path8808"
       d="m 298.85227,10.530453 v 12.54071 l 8.88631,-6.193347 z"
       style="display:inline;opacity:1;fill:none;fill-opacity:1;stroke:#ffffff;stroke-width:1.26947;stroke-miterlimit:4;stroke-dasharray:none;stroke-opacity:1" />
    <path
       inkscape:connector-curvature="0"
       id="path8810"
       d="m 328.75,11.159637 c 10.85431,0 10.85431,0 10.85431,0"
       style="display:inline;opacity:1;fill:none;fill-opacity:1;stroke:#ffffff;stroke-width:1.20603;stroke-miterlimit:4;stroke-dasharray:none;stroke-opacity:1" />
    <path
       inkscape:connector-curvature="0"
       id="path8812"
       d="m 335.98621,7.5415331 3.6181,3.6181039 -3.6181,3.618103"
       style="display:inline;opacity:1;fill:none;fill-opacity:1;stroke:#ffffff;stroke-width:1.20603;stroke-miterlimit:4;stroke-dasharray:none;stroke-opacity:1" />
    <path
       style="display:inline;opacity:1;fill:none;fill-opacity:1;stroke:#ffffff;stroke-width:1.20603;stroke-miterlimit:4;stroke-dasharray:none;stroke-opacity:1"
       d="m 340.45711,21.926176 c -10.85431,0 -10.85431,0 -10.85431,0"
       id="path8814"
       inkscape:connector-curvature="0" />
    <path
       style="display:inline;opacity:1;fill:none;fill-opacity:1;stroke:#ffffff;stroke-width:1.20603;stroke-miterlimit:4;stroke-dasharray:none;stroke-opacity:1"
       d="m 333.2209,18.308073 -3.6181,3.618103 3.6181,3.618104"
       id="path8816"
       inkscape:connector-curvature="0" />
    <path
       inkscape:connector-curvature="0"
       id="path8956-2-8-8-29-8-7-8"
       d="M 357,15.982773 V 3 h 9.31856 5.10334 L 377,9 V 17.946422 29 H 367.96522 357 Z"
       style="display:inline;fill:#353535;fill-opacity:0.5;stroke:#d9d9d9;stroke-width:2;stroke-linejoin:round;stroke-miterlimit:4;stroke-dasharray:none;stroke-opacity:1"
       sodipodi:nodetypes="cccccccccc" />
    <path
       sodipodi:nodetypes="cc"
       inkscape:connector-curvature="0"
       id="path8818"
       d="m 361.34221,10.013064 c 4.69571,-2.9557074 7.42044,2.270663 11.01034,0"
       style="display:inline;opacity:1;fill:none;fill-opacity:1;stroke:#ffffff;stroke-width:1.20561;stroke-miterlimit:4;stroke-dasharray:none;stroke-opacity:1" />
    <path
       inkscape:connector-curvature="0"
       id="path8820"
       d="m 370.9871,10.526023 c 0,12.056107 0,12.056107 0,12.056107"
       style="display:inline;opacity:1;fill:none;fill-opacity:1;stroke:#ffffff;stroke-width:1.20561;stroke-miterlimit:4;stroke-dasharray:none;stroke-opacity:1" />
    <circle
       r="1.8084161"
       cy="22.671974"
       cx="369.17868"
       id="circle8822"
       style="display:inline;opacity:1;fill:none;fill-opacity:1;stroke:#ffffff;stroke-width:1.20561;stroke-miterlimit:4;stroke-dasharray:none;stroke-opacity:1" />
    <path
       style="display:inline;opacity:1;fill:none;fill-opacity:1;stroke:#ffffff;stroke-width:1.20561;stroke-miterlimit:4;stroke-dasharray:none;stroke-opacity:1"
       d="m 364.85979,9.193999 c 0,12.056107 0,12.056107 0,12.056107"
       id="path8824"
       inkscape:connector-curvature="0" />
    <circle
       style="display:inline;opacity:1;fill:none;fill-opacity:1;stroke:#ffffff;stroke-width:1.20561;stroke-miterlimit:4;stroke-dasharray:none;stroke-opacity:1"
       id="circle8826"
       cx="363.05136"
       cy="21.339954"
       r="1.8084161" />
    <path
       inkscape:connector-curvature="0"
       id="path8956-2-8-8-29-8-7-5"
       d="M 389,15.982773 V 3 h 9.31856 5.10334 L 409,9 V 17.946422 29 H 399.96522 389 Z"
       style="display:inline;fill:#353535;fill-opacity:0.5;stroke:#d9d9d9;stroke-width:2;stroke-linejoin:round;stroke-miterlimit:4;stroke-dasharray:none;stroke-opacity:1"
       sodipodi:nodetypes="cccccccccc" />
    <path
       inkscape:connector-curvature="0"
       id="path8828"
       d="m 393.20702,6.0034697 v 5.6318423 h 3.37911"
       style="display:inline;opacity:1;fill:none;fill-opacity:1;stroke:#ffffff;stroke-width:1.12637;stroke-miterlimit:4;stroke-dasharray:none;stroke-opacity:1" />
    <path
       sodipodi:nodetypes="cccc"
       inkscape:connector-curvature="0"
       id="path8830"
       d="m 396.58613,13.888049 v 4.505473 c 0,2.252737 4.50547,2.252737 4.50547,0 v -4.505473"
       style="display:inline;opacity:1;fill:none;fill-opacity:1;stroke:#ffffff;stroke-width:1.12637;stroke-miterlimit:4;stroke-dasharray:none;stroke-opacity:1" />
    <path
       sodipodi:nodetypes="ccc"
       inkscape:connector-curvature="0"
       id="path8832"
       d="m 400.96081,26.178544 2.38353,-5.532285 2.25274,5.631842"
       style="display:inline;opacity:1;fill:none;fill-opacity:1;stroke:#ffffff;stroke-width:1.12637;stroke-miterlimit:4;stroke-dasharray:none;stroke-opacity:1" />
    <path
       sodipodi:nodetypes="cc"
       inkscape:connector-curvature="0"
       id="path8834"
       d="m 401.83828,24.025364 h 2.63243"
       style="display:inline;opacity:1;fill:none;fill-opacity:1;stroke:#ffffff;stroke-width:1.12637;stroke-miterlimit:4;stroke-dasharray:none;stroke-opacity:1" />
    <path
       inkscape:connector-curvature="0"
       id="path8956-2-8-8-29-8-7-8-0-8"
       d="M 453,15.982773 V 3 h 9.31856 5.10334 L 473,9 V 17.946422 29 H 463.96522 453 Z"
       style="display:inline;fill:#353535;fill-opacity:0.5;stroke:#d9d9d9;stroke-width:2;stroke-linejoin:round;stroke-miterlimit:4;stroke-dasharray:none;stroke-opacity:1"
       sodipodi:nodetypes="cccccccccc" />
    <path
       inkscape:connector-curvature="0"
       id="path8846"
       d="m 456.71632,6.0311979 v 4.0022381 h 5.33632 V 6.0311979"
       style="display:inline;opacity:1;fill:none;fill-opacity:1;stroke:#fefefe;stroke-width:1.33408;stroke-miterlimit:4;stroke-dasharray:none;stroke-opacity:1" />
    <path
       style="display:inline;opacity:1;fill:none;fill-opacity:1;stroke:#fefefe;stroke-width:1.33408;stroke-miterlimit:4;stroke-dasharray:none;stroke-opacity:1"
       d="m 460.90266,13.637146 v 4.002239 h 5.33632 v -4.002239"
       id="path8848"
       inkscape:connector-curvature="0" />
    <path
       inkscape:connector-curvature="0"
       id="path8850"
       d="m 464.32254,21.478928 v 4.002239 h 5.33632 v -4.002239"
       style="display:inline;opacity:1;fill:none;fill-opacity:1;stroke:#fefefe;stroke-width:1.33408;stroke-miterlimit:4;stroke-dasharray:none;stroke-opacity:1" />
    <circle
       r="2.5"
       cy="14.829295"
       cx="496.5"
       id="circle8852"
       style="display:inline;opacity:1;fill:none;fill-opacity:1;stroke:#000000;stroke-width:1;stroke-miterlimit:4;stroke-dasharray:none;stroke-opacity:1" />
    <path
       sodipodi:nodetypes="cc"
       inkscape:connector-curvature="0"
       id="path8854"
       d="m 496.66291,7.831897 0.0442,3.337087"
       style="display:inline;opacity:1;fill:none;fill-opacity:1;stroke:#000000;stroke-width:1;stroke-miterlimit:4;stroke-dasharray:none;stroke-opacity:1" />
    <path
       sodipodi:nodetypes="cc"
       inkscape:connector-curvature="0"
       id="path8856"
       d="m 491.95581,9.478343 2.08838,2.071923"
       style="display:inline;opacity:1;fill:none;fill-opacity:1;stroke:#000000;stroke-width:1;stroke-miterlimit:4;stroke-dasharray:none;stroke-opacity:1" />
    <path
       sodipodi:nodetypes="cc"
       inkscape:connector-curvature="0"
       id="path8858"
       d="M 490.53033,14.285101 493,14.329291"
       style="display:inline;opacity:1;fill:none;fill-opacity:1;stroke:#000000;stroke-width:1;stroke-miterlimit:4;stroke-dasharray:none;stroke-opacity:1" />
    <path
       sodipodi:nodetypes="cc"
       inkscape:connector-curvature="0"
       id="path8860"
       d="m 493.7955,17.682848 -2.26517,2.353554"
       style="display:inline;opacity:1;fill:none;fill-opacity:1;stroke:#000000;stroke-width:1;stroke-miterlimit:4;stroke-dasharray:none;stroke-opacity:1" />
    <path
       sodipodi:nodetypes="cc"
       inkscape:connector-curvature="0"
       id="path8862"
       d="m 496.66291,18.373489 v 3.337088"
       style="display:inline;opacity:1;fill:none;fill-opacity:1;stroke:#000000;stroke-width:1;stroke-miterlimit:4;stroke-dasharray:none;stroke-opacity:1" />
    <path
       sodipodi:nodetypes="cc"
       inkscape:connector-curvature="0"
       id="path8864"
       d="m 499,17.329295 2.02773,2.116117"
       style="display:inline;opacity:1;fill:none;fill-opacity:1;stroke:#000000;stroke-width:1;stroke-miterlimit:4;stroke-dasharray:none;stroke-opacity:1" />
    <path
       inkscape:connector-curvature="0"
       id="path8866"
       d="m 500,14.329295 h 2"
       style="display:inline;opacity:1;fill:none;fill-opacity:1;stroke:#000000;stroke-width:1;stroke-miterlimit:4;stroke-dasharray:none;stroke-opacity:1" />
    <path
       sodipodi:nodetypes="cc"
       inkscape:connector-curvature="0"
       id="path8868"
       d="m 499.26517,11.815431 2.08838,-2"
       style="display:inline;opacity:1;fill:none;fill-opacity:1;stroke:#000000;stroke-width:1;stroke-miterlimit:4;stroke-dasharray:none;stroke-opacity:1" />
    <path
       sodipodi:nodetypes="cscccscsc"
       inkscape:connector-curvature="0"
       id="path8870"
       d="m 526.86742,18.417683 c 0,0 -0.86742,2.911612 -2.60225,0.795495 -0.89661,-1.093662 0.17677,-3.53033 0.17677,-3.53033 0,0 -1.44194,-2.353553 4.74867,-2.353553 6.19062,0 4.74868,2.353553 4.74868,2.353553 0,0 1.07338,2.436668 0.17677,3.53033 -1.73483,2.116117 -2.60225,-0.795495 -2.60225,-0.795495 0,0 -0.51381,-1.397749 -2.3232,-1.397747 -2.19061,2e-6 -2.32319,1.397747 -2.32319,1.397747 z"
       style="display:inline;opacity:1;fill:none;fill-opacity:1;stroke:#000000;stroke-width:1;stroke-miterlimit:4;stroke-dasharray:none;stroke-opacity:1" />
    <path
       inkscape:connector-curvature="0"
       id="path8872"
       d="m 563,24.329295 c -1,-12 -4,-13 -4,-13"
       style="display:inline;opacity:1;fill:none;fill-opacity:1;stroke:#000000;stroke-width:1;stroke-miterlimit:4;stroke-dasharray:none;stroke-opacity:1" />
    <circle
       r="1"
       cy="8.9855452"
       cx="560.53125"
       id="circle8874"
       style="display:inline;opacity:1;fill:#000000;fill-opacity:1;stroke:none;stroke-width:1;stroke-miterlimit:4;stroke-dasharray:none;stroke-opacity:1" />
    <circle
       style="display:inline;opacity:1;fill:#000000;fill-opacity:1;stroke:none;stroke-width:1;stroke-miterlimit:4;stroke-dasharray:none;stroke-opacity:1"
       id="circle8876"
       cx="556.5625"
       cy="14.141795"
       r="1" />
    <circle
       r="1"
       cy="10.829295"
       cx="554.125"
       id="circle8878"
       style="display:inline;opacity:1;fill:#000000;fill-opacity:1;stroke:none;stroke-width:1;stroke-miterlimit:4;stroke-dasharray:none;stroke-opacity:1" />
    <circle
       style="display:inline;opacity:1;fill:#000000;fill-opacity:1;stroke:none;stroke-width:1;stroke-miterlimit:4;stroke-dasharray:none;stroke-opacity:1"
       id="circle8880"
       cx="556.5625"
       cy="6.7667952"
       r="1" />
    <path
       inkscape:transform-center-y="-0.10290962"
       inkscape:transform-center-x="-0.11327127"
       d="m 558,76 -1.15953,-1.03999 -1.43357,0.609081 0.63078,-1.424154 -1.02227,-1.175186 1.54937,0.159815 0.80177,-1.335385 0.32679,1.522924 1.51779,0.349872 -1.3474,0.781405 z"
       inkscape:randomized="0"
       inkscape:rounded="0"
       inkscape:flatsided="false"
       sodipodi:arg2="1.7354672"
       sodipodi:arg1="1.1071487"
       sodipodi:r2="0.97317481"
       sodipodi:r1="2.236068"
       sodipodi:cy="74"
       sodipodi:cx="557"
       sodipodi:sides="5"
       id="path8882"
       style="display:inline;opacity:1;fill:#000000;fill-opacity:1;stroke:none;stroke-width:1;stroke-miterlimit:4;stroke-dasharray:none;stroke-opacity:1"
       sodipodi:type="star"
       transform="translate(0,-63.670705)" />
    <circle
       r="0.625"
       cy="17.173044"
       cx="556.9375"
       id="circle8884"
       style="display:inline;opacity:1;fill:#000000;fill-opacity:1;stroke:none;stroke-width:1;stroke-miterlimit:4;stroke-dasharray:none;stroke-opacity:1" />
    <circle
       style="display:inline;opacity:1;fill:#000000;fill-opacity:1;stroke:none;stroke-width:1;stroke-miterlimit:4;stroke-dasharray:none;stroke-opacity:1"
       id="circle8886"
       cx="554.0625"
       cy="15.110545"
       r="0.625" />
    <circle
       r="0.625"
       cy="10.891795"
       cx="563.65625"
       id="circle8888"
       style="display:inline;opacity:1;fill:#000000;fill-opacity:1;stroke:none;stroke-width:1;stroke-miterlimit:4;stroke-dasharray:none;stroke-opacity:1" />
    <circle
       style="display:inline;opacity:1;fill:#000000;fill-opacity:1;stroke:none;stroke-width:1;stroke-miterlimit:4;stroke-dasharray:none;stroke-opacity:1"
       id="circle8890"
       cx="562.1875"
       cy="6.9230452"
       r="0.625" />
    <rect
       y="9.6417952"
       x="586.375"
       height="4"
       width="4"
       id="rect8892"
       style="display:inline;opacity:1;fill:none;fill-opacity:1;stroke:#000000;stroke-width:1;stroke-miterlimit:4;stroke-dasharray:none;stroke-opacity:1" />
    <rect
       style="display:inline;opacity:1;fill:none;fill-opacity:1;stroke:#000000;stroke-width:1;stroke-miterlimit:4;stroke-dasharray:none;stroke-opacity:1"
       id="rect8894"
       width="4"
       height="4"
       x="589.625"
       y="18.579294" />
    <rect
       y="9.7042952"
       x="593"
       height="4"
       width="4"
       id="rect8896"
       style="display:inline;opacity:1;fill:none;fill-opacity:1;stroke:#000000;stroke-width:1;stroke-miterlimit:4;stroke-dasharray:none;stroke-opacity:1" />
    <path
       sodipodi:nodetypes="cccc"
       inkscape:connector-curvature="0"
       id="path8898"
       d="m 588,13.329295 v 3 h 7 v -2.5"
       style="display:inline;opacity:1;fill:none;fill-opacity:1;stroke:#000000;stroke-width:1;stroke-miterlimit:4;stroke-dasharray:none;stroke-opacity:1" />
    <path
       sodipodi:nodetypes="cc"
       inkscape:connector-curvature="0"
       id="path8900"
       d="m 591.65625,18.641795 v -2.34375"
       style="display:inline;opacity:1;fill:none;fill-opacity:1;stroke:#000000;stroke-width:1;stroke-miterlimit:4;stroke-dasharray:none;stroke-opacity:1" />
    <rect
       ry="0.56906408"
       rx="0.56906408"
       y="15.108806"
       x="618.97424"
       height="6.639081"
       width="10.432841"
       id="rect8902"
       style="display:inline;opacity:1;fill:none;fill-opacity:1;stroke:#000000;stroke-width:0.94844;stroke-miterlimit:4;stroke-dasharray:none;stroke-opacity:1" />
    <path
       sodipodi:nodetypes="cccc"
       inkscape:connector-curvature="0"
       id="path8904"
       d="m 621.81954,15.108803 v -2.159055 c 0,-1.89688 4.7422,-1.89688 4.7422,0 v 2.159055"
       style="display:inline;opacity:1;fill:none;fill-opacity:1;stroke:#000000;stroke-width:0.94844;stroke-miterlimit:4;stroke-dasharray:none;stroke-opacity:1" />
    <path
       sodipodi:nodetypes="cccccc"
       inkscape:connector-curvature="0"
       id="path8932"
       d="m 521.50501,4.454258 0.0899,23.091484 h 15.54688 V 9.090976 l -3.91016,-4.636718 z"
       style="display:inline;fill:none;fill-rule:evenodd;stroke:#000000;stroke-width:1.90914;stroke-linecap:butt;stroke-linejoin:miter;stroke-miterlimit:4;stroke-dasharray:none;stroke-opacity:1" />
    <path
       sodipodi:nodetypes="cccccc"
       inkscape:connector-curvature="0"
       id="path8942"
       d="m 488.43453,4.454258 0.0899,23.091484 h 15.54688 V 9.090976 l -3.91016,-4.636718 z"
       style="display:inline;fill:none;fill-rule:evenodd;stroke:#000000;stroke-width:1.90914;stroke-linecap:butt;stroke-linejoin:miter;stroke-miterlimit:4;stroke-dasharray:none;stroke-opacity:1" />
    <path
       style="display:inline;fill:none;fill-rule:evenodd;stroke:#000000;stroke-width:1.90914;stroke-linecap:butt;stroke-linejoin:miter;stroke-miterlimit:4;stroke-dasharray:none;stroke-opacity:1"
       d="m 551.73383,4.454258 0.0899,23.091484 h 15.54688 V 9.090976 l -3.91016,-4.636718 z"
       id="path8944"
       inkscape:connector-curvature="0"
       sodipodi:nodetypes="cccccc" />
    <path
       sodipodi:nodetypes="cccccc"
       inkscape:connector-curvature="0"
       id="path8946"
       d="m 583.90719,4.454258 0.0899,23.091484 h 15.54688 V 9.090976 l -3.91016,-4.636718 z"
       style="display:inline;fill:none;fill-rule:evenodd;stroke:#000000;stroke-width:1.90914;stroke-linecap:butt;stroke-linejoin:miter;stroke-miterlimit:4;stroke-dasharray:none;stroke-opacity:1" />
    <path
       style="display:inline;fill:none;fill-rule:evenodd;stroke:#000000;stroke-width:1.90914;stroke-linecap:butt;stroke-linejoin:miter;stroke-miterlimit:4;stroke-dasharray:none;stroke-opacity:1"
       d="m 616.4341,4.454258 0.0899,23.091484 h 15.54688 V 9.090976 l -3.91016,-4.636718 z"
       id="path8948"
       inkscape:connector-curvature="0"
       sodipodi:nodetypes="cccccc" />
    <path
       sodipodi:nodetypes="cccccc"
       inkscape:connector-curvature="0"
       id="path8950"
       d="m 647.72358,4.454258 0.0899,23.091484 h 15.54688 V 9.090976 L 659.4502,4.454258 Z"
       style="display:inline;fill:none;fill-rule:evenodd;stroke:#000000;stroke-width:1.90914;stroke-linecap:butt;stroke-linejoin:miter;stroke-miterlimit:4;stroke-dasharray:none;stroke-opacity:1" />
    <path
       style="display:inline;fill:none;fill-rule:evenodd;stroke:#000000;stroke-width:1.90914;stroke-linecap:butt;stroke-linejoin:miter;stroke-miterlimit:4;stroke-dasharray:none;stroke-opacity:1"
       d="m 681.13438,4.454258 0.0899,23.091484 h 15.54688 V 9.090976 L 692.861,4.454258 Z"
       id="path8952"
       inkscape:connector-curvature="0"
       sodipodi:nodetypes="cccccc" />
    <path
       sodipodi:nodetypes="cccccc"
       inkscape:connector-curvature="0"
       id="path8954"
       d="m 711.53997,4.454258 0.0899,23.091484 h 15.54688 V 9.090976 l -3.91016,-4.636718 z"
       style="display:inline;fill:none;fill-rule:evenodd;stroke:#000000;stroke-width:1.90914;stroke-linecap:butt;stroke-linejoin:miter;stroke-miterlimit:4;stroke-dasharray:none;stroke-opacity:1" />
    <path
       inkscape:connector-curvature="0"
       id="path8956"
       d="M 5,15.982773 V 3 h 9.318566 5.103335 L 25,9 V 17.946422 29 H 15.965222 5 Z"
       style="display:inline;opacity:1;fill:#353535;fill-opacity:0.5;stroke:#d9d9d9;stroke-width:2;stroke-linejoin:round;stroke-miterlimit:4;stroke-dasharray:none;stroke-opacity:1"
       sodipodi:nodetypes="cccccccccc" />
    <path
       inkscape:connector-curvature="0"
       id="path8988"
       d="m 489.51021,18.587162 c -0.0456,-4.342585 -0.083,-9.067585 -0.083,-10.499999 v -2.60439 l 5.15625,0.0067 5.15625,0.0067 1.65094,1.962009 1.65094,1.962008 0.005,8.531251 0.005,8.53125 h -6.72949 -6.72949 l -0.083,-7.895612 z m 7.66699,1.458112 v -1.6875 h -0.5625 -0.5625 v 1.6875 1.6875 h 0.5625 0.5625 z m -4.0715,-0.817307 c 0.59902,-0.621392 1.06756,-1.194532 1.04119,-1.273643 -0.0264,-0.07911 -0.20019,-0.257499 -0.38625,-0.396417 l -0.3383,-0.252579 -1.12257,1.117367 c -0.61741,0.614551 -1.12257,1.171164 -1.12257,1.236916 0,0.174588 0.51856,0.698163 0.69147,0.698163 0.0813,0 0.638,-0.508413 1.23703,-1.129807 z m 8.00376,0.260284 0.35402,-0.369522 -0.97216,-1.036728 c -0.53469,-0.5702 -1.0255,-1.056984 -1.09069,-1.081742 -0.0652,-0.02476 -0.27961,0.109327 -0.47651,0.297966 l -0.35799,0.342979 1.02208,1.108285 c 0.56215,0.609557 1.05474,1.108285 1.09465,1.108285 0.0399,0 0.23188,-0.166285 0.4266,-0.369523 z m -3.61976,-1.768213 c 0.7083,-0.193138 1.71268,-1.246789 1.93067,-2.025365 0.62462,-2.230929 -1.30629,-4.303868 -3.57104,-3.833707 -2.42844,0.504141 -3.21705,3.665596 -1.3131,5.264059 0.82705,0.694345 1.84046,0.898511 2.95347,0.595013 z m -4.4375,-3.424765 v -0.5625 h -1.3125 -1.3125 v 0.5625 0.5625 h 1.3125 1.3125 z m 9,0 v -0.5625 h -1.0625 -1.0625 v 0.5625 0.5625 h 1.0625 1.0625 z m -0.40606,-4.036836 c 0.0365,-0.09516 -0.0974,-0.336826 -0.2976,-0.537024 l -0.364,-0.363996 -1.05456,1.060065 -1.05456,1.060064 0.35775,0.373408 0.35775,0.373407 0.99441,-0.896449 c 0.54692,-0.493046 1.02429,-0.97431 1.06081,-1.069475 z m -8.25108,-0.118521 -1.09135,-1.091346 -0.407,0.408964 -0.40701,0.408963 1.125,1.048427 1.125,1.048427 0.37335,-0.366044 0.37336,-0.366045 z m 3.9065,0.561607 c -3.5e-4,-0.292187 -0.0371,-1.082498 -0.0818,-1.756246 l -0.0811,-1.224996 -0.51199,0.0375 c -0.46836,0.0343 -0.51132,0.06679 -0.50417,0.381246 0.004,0.189063 0.0184,0.9625 0.0312,1.71875 l 0.0234,1.375 h 0.5625 0.5625 l -6.5e-4,-0.53125 h 1e-5 z"
       style="display:inline;opacity:1;fill:#ffffff;fill-opacity:1;stroke:none;stroke-width:2;stroke-linejoin:round;stroke-miterlimit:4;stroke-dasharray:none;stroke-opacity:1" />
    <path
       inkscape:connector-curvature="0"
       id="path8990"
       d="m 522.5522,15.982773 v -10.5 h 5.11303 5.11303 l 1.69947,2.022254 1.69947,2.022254 v 8.477746 8.477747 h -6.8125 -6.8125 z m 3.88712,4.158124 c 0.23128,-0.194611 0.58899,-0.737302 0.83043,-1.259863 0.4885,-1.057287 0.81883,-1.27326 1.94745,-1.27326 0.93809,0 1.40156,0.339917 1.96,1.4375 0.4976,0.977995 1.04491,1.4375 1.7122,1.4375 1.09478,0 2.16588,-1.239729 2.15994,-2.5 -7.5e-4,-0.171875 -0.0918,-0.70625 -0.2022,-1.187501 -0.11039,-0.48125 -0.21036,-1.162547 -0.22214,-1.513995 -0.0573,-1.708055 -1.62267,-2.44027 -5.2603,-2.460518 -2.89277,-0.0161 -4.39863,0.345138 -5.18841,1.244647 -0.31255,0.355981 -0.37431,0.533298 -0.37544,1.077966 -7.5e-4,0.358545 -0.0893,0.93315 -0.19671,1.2769 -0.26264,0.840245 -0.27323,2.266662 -0.0204,2.750001 0.2089,0.399365 0.74426,0.939816 1.15597,1.166967 0.47923,0.264396 1.25913,0.1743 1.69962,-0.196344 z"
       style="display:inline;opacity:1;fill:#ffffff;fill-opacity:1;stroke:none;stroke-width:2;stroke-linejoin:round;stroke-miterlimit:4;stroke-dasharray:none;stroke-opacity:1" />
    <path
       inkscape:connector-curvature="0"
       id="path8992"
       d="m 552.8022,15.982773 v -10.5 h 5.10502 5.10502 l 1.64498,1.960921 1.64498,1.960921 v 8.539079 8.53908 h -6.75 -6.75 z m 10.68778,7.531251 c -0.32885,-3.378803 -1.13002,-7.427728 -1.81176,-9.156251 -0.67881,-1.721061 -1.9052,-3.5 -2.41288,-3.5 -0.0942,0 -0.23461,0.206633 -0.31212,0.459185 -0.13353,0.43508 -0.11839,0.484128 0.28839,0.934383 1.41719,1.568658 2.60001,5.832894 3.12406,11.262683 l 0.0814,0.84375 h 0.5625 0.5625 l -0.0821,-0.84375 z m -6.13354,-5.822249 c 0.47656,-0.348472 0.1604,-1.209002 -0.4442,-1.209002 -0.32736,0 -0.61004,0.348789 -0.61004,0.752718 0,0.548267 0.58323,0.800694 1.05424,0.456284 z m -2.82924,-2.109002 c 0.19337,-0.193364 0.19337,-0.756635 0,-0.95 -0.0825,-0.0825 -0.29625,-0.15 -0.475,-0.15 -0.17875,0 -0.3925,0.0675 -0.475,0.15 -0.19336,0.193365 -0.19336,0.756636 0,0.95 0.19337,0.193365 0.75664,0.193365 0.95,0 z M 557.0566,15.043 c 0.61879,-0.319989 0.7059,-1.171169 0.16927,-1.653977 -0.65699,-0.591094 -1.67367,-0.134486 -1.67367,0.751677 0,0.451316 0.16588,0.730796 0.5625,0.947732 0.33919,0.18552 0.51135,0.177216 0.9419,-0.04543 z m 0.93416,-3.466477 -0.0814,-0.78125 0.6339,-0.35096 c 0.34864,-0.193029 0.63389,-0.392712 0.63389,-0.443741 0,-0.05103 -0.3375,-0.162489 -0.75,-0.247689 -0.63829,-0.131839 -0.75143,-0.196069 -0.7596,-0.43126 -0.005,-0.151992 -0.077,-0.499991 -0.15941,-0.77333 l -0.1498,-0.496981 -0.4123,0.670075 -0.4123,0.670075 -0.7408,-0.07743 c -0.40743,-0.04259 -0.74079,-0.0419 -0.74079,0.0015 0,0.04343 0.20272,0.326345 0.45048,0.628705 l 0.45047,0.549745 -0.26297,0.611301 c -0.14464,0.336216 -0.26298,0.668091 -0.26298,0.7375 0,0.06941 0.31515,-0.01317 0.70033,-0.183519 l 0.70033,-0.309718 0.54688,0.504097 c 0.30078,0.277253 0.58074,0.504096 0.62212,0.504096 0.0414,0 0.0386,-0.351562 -0.006,-0.78125 z m -3.12037,-0.02557 c 0.39516,-0.395169 0.39931,-0.946705 0.0105,-1.398711 -0.4152,-0.482704 -1.11719,-0.482704 -1.53239,0 -0.3426,0.398293 -0.37055,0.699373 -0.11144,1.200444 0.21226,0.410466 0.34352,0.481537 0.91457,0.495217 0.27982,0.0067 0.51032,-0.08853 0.71875,-0.29695 z m 9.154,-0.13777 c 0.35661,-0.249781 0.37781,-0.868099 0.036,-1.051014 -0.62886,-0.336556 -1.26022,0.14527 -1.01962,0.778121 0.18298,0.48126 0.54336,0.581246 0.98359,0.272893 z M 561.2629,9.710982 c 0.63788,-0.599261 0.19485,-1.728211 -0.6782,-1.728211 -0.57613,0 -0.85625,0.173137 -1.01448,0.627039 -0.15139,0.434276 -0.0107,0.962537 0.324,1.216711 0.33027,0.250798 1.04275,0.190653 1.36868,-0.115539 z m -4.2063,-2.042984 c 0.61879,-0.319989 0.7059,-1.171169 0.16927,-1.653977 -0.65699,-0.591094 -1.67367,-0.134486 -1.67367,0.751677 0,0.451316 0.16588,0.730796 0.5625,0.947732 0.33919,0.18552 0.51135,0.177216 0.9419,-0.04543 z m 5.54984,-0.226225 c 0.47656,-0.348472 0.1604,-1.209002 -0.4442,-1.209002 -0.32736,0 -0.61004,0.348789 -0.61004,0.752718 0,0.548267 0.58323,0.800694 1.05424,0.456284 z"
       style="display:inline;opacity:1;fill:#ffffff;fill-opacity:1;stroke:none;stroke-width:2;stroke-linejoin:round;stroke-miterlimit:4;stroke-dasharray:none;stroke-opacity:1" />
    <path
       inkscape:connector-curvature="0"
       id="path8994"
       d="m 585.00958,23.837619 c -0.0453,-1.454835 -0.0824,-6.179835 -0.0824,-10.5 V 5.482773 h 5.11878 5.11878 l 1.69372,1.997202 1.69372,1.997201 v 8.502799 8.502799 h -6.73012 -6.73012 l -0.0824,-2.645155 z m 9.16762,-3.292345 v -2.5625 h -1 -1 v -0.5625 -0.562501 h 1.6875 1.6875 v -1.3125 -1.3125 h 1 1 v -2.5625 -2.5625 h -2.5625 -2.5625 v 2.5625 2.5625 h 1 1 v 0.75 0.75 h -2.9375 -2.9375 v -0.75 -0.75 h 1.1875 1.1875 v -2.5625 -2.5625 h -2.5625 -2.5625 v 2.5625 2.5625 h 0.8125 0.8125 v 1.3125 1.3125 h 1.8125 1.8125 v 0.562501 0.5625 h -1 -1 v 2.5625 2.5625 h 2.5625 2.5625 z"
       style="display:inline;opacity:1;fill:#ffffff;fill-opacity:1;stroke:none;stroke-width:2;stroke-linejoin:round;stroke-miterlimit:4;stroke-dasharray:none;stroke-opacity:1" />
    <path
       inkscape:connector-curvature="0"
       id="path8996"
       d="m 648.80557,17.014023 c -4.1e-4,-5.207812 -0.0369,-9.932812 -0.081,-10.5 l -0.0803,-1.03125 5.17478,2.67e-4 5.17478,2.66e-4 1.65625,1.96522 1.65625,1.965221 v 8.534513 8.534514 h -6.75 -6.75 l -7.5e-4,-9.468751 z"
       style="display:inline;opacity:1;fill:#ffffff;fill-opacity:1;stroke:none;stroke-width:2;stroke-linejoin:round;stroke-miterlimit:4;stroke-dasharray:none;stroke-opacity:1" />
    <path
       inkscape:connector-curvature="0"
       id="path8998"
       d="m 682.18132,15.982773 v -10.5 h 5.11303 5.11303 l 1.69947,2.022254 1.69947,2.022254 v 8.477746 8.477747 h -6.8125 -6.8125 z"
       style="display:inline;opacity:1;fill:#ffffff;fill-opacity:1;stroke:none;stroke-width:2;stroke-linejoin:round;stroke-miterlimit:4;stroke-dasharray:none;stroke-opacity:1" />
    <path
       inkscape:connector-curvature="0"
       id="path9000"
       d="m 712.6389,23.087465 c -0.0454,-1.867419 -0.0826,-6.592419 -0.0826,-10.5 V 5.482773 h 5.11737 5.11737 l 1.69513,1.991037 1.69513,1.991036 v 8.508964 8.508964 h -6.72992 -6.72991 l -0.0826,-3.395309 z"
       style="display:inline;opacity:1;fill:#ffffff;fill-opacity:1;stroke:none;stroke-width:2;stroke-linejoin:round;stroke-miterlimit:4;stroke-dasharray:none;stroke-opacity:1" />
    <path
       inkscape:connector-curvature="0"
       id="path9014"
       d="m 171.22812,10.915575 c -1.67277,-1.3158011 -1.2371,-3.720007 0.81505,-4.4976105 1.4698,-0.556946 3.28503,0.8275553 3.28503,2.5055364 0,0.729197 -0.14844,1.053344 -0.7647,1.6695751 -0.6413,0.641311 -0.92674,0.764697 -1.76895,0.764697 -0.65793,0 -1.19813,-0.152489 -1.56643,-0.442198 z"
       style="display:inline;opacity:1;fill:#ffff4c;fill-opacity:1;stroke:none;stroke-width:3.59857;stroke-linejoin:round;stroke-miterlimit:4;stroke-dasharray:none;stroke-opacity:1" />
    <path
       inkscape:connector-curvature="0"
       id="path9016"
       d="m 495.54969,16.500856 c -0.48981,-0.262689 -1.00116,-1.113999 -1.00116,-1.666758 0,-0.572216 0.31124,-1.16497 0.81241,-1.547235 0.37079,-0.282809 0.59744,-0.355143 1.12877,-0.360228 1.8993,-0.01817 2.65064,2.430217 1.07444,3.501272 -0.55284,0.375665 -1.39326,0.406099 -2.01446,0.07295 z"
       style="display:inline;opacity:1;fill:#ffff4c;fill-opacity:1;stroke:none;stroke-width:2;stroke-linejoin:round;stroke-miterlimit:4;stroke-dasharray:none;stroke-opacity:1" />
    <path
       inkscape:connector-curvature="0"
       id="path9018"
       d="m 524.96449,19.064932 c -0.45507,-0.417549 -0.47768,-0.474586 -0.46251,-1.166833 0.009,-0.400304 0.13647,-1.080972 0.28377,-1.512596 0.19815,-0.580638 0.23476,-0.846527 0.14074,-1.022194 -0.27817,-0.519759 0.30946,-0.962325 1.68454,-1.268708 1.09824,-0.244699 4.40809,-0.213325 5.40699,0.05125 1.22376,0.324137 1.71937,0.77164 1.42908,1.290358 -0.0797,0.142488 -0.0383,0.430163 0.13083,0.908773 0.37749,1.068058 0.41729,1.986639 0.10738,2.478184 -0.29051,0.460769 -0.79166,0.64416 -1.08806,0.398169 -0.10892,-0.09039 -0.36725,-0.522496 -0.57407,-0.960228 -0.62123,-1.314844 -1.63628,-1.861088 -3.24655,-1.747114 -1.28692,0.09109 -1.89354,0.502902 -2.41269,1.637903 -0.22474,0.491356 -0.52391,0.996575 -0.66481,1.122708 -0.25084,0.224556 -0.26614,0.220187 -0.73464,-0.209675 z"
       style="display:inline;opacity:1;fill:#ffffff;fill-opacity:1;stroke:none;stroke-width:2;stroke-linejoin:round;stroke-miterlimit:4;stroke-dasharray:none;stroke-opacity:1" />
    <path
       inkscape:connector-curvature="0"
       id="path9020"
       d="m 586.92353,11.670273 v -1.4375 h 1.4375 1.4375 v 1.4375 1.4375 h -1.4375 -1.4375 z"
       style="display:inline;opacity:1;fill:#ffffff;fill-opacity:1;stroke:none;stroke-width:2;stroke-linejoin:round;stroke-miterlimit:4;stroke-dasharray:none;stroke-opacity:1" />
    <path
       inkscape:connector-curvature="0"
       id="path9022"
       d="m 590.17353,20.545274 v -1.4375 h 1.4375 1.4375 v 1.4375 1.4375 h -1.4375 -1.4375 z"
       style="display:inline;opacity:1;fill:#ffffff;fill-opacity:1;stroke:none;stroke-width:2;stroke-linejoin:round;stroke-miterlimit:4;stroke-dasharray:none;stroke-opacity:1" />
    <path
       inkscape:connector-curvature="0"
       id="path9024"
       d="m 593.54853,11.670273 v -1.4375 h 1.4375 1.4375 v 1.4375 1.4375 h -1.4375 -1.4375 z"
       style="display:inline;opacity:1;fill:#ffffff;fill-opacity:1;stroke:none;stroke-width:2;stroke-linejoin:round;stroke-miterlimit:4;stroke-dasharray:none;stroke-opacity:1" />
    <path
       inkscape:connector-curvature="0"
       id="path9074"
       d="m 617.51508,23.951231 c -0.0321,-1.421948 -0.0583,-6.175031 -0.0584,-10.562408 l -1.6e-4,-7.977049 5.10442,1.2e-5 5.10443,1.3e-5 1.69863,2.010822 1.69862,2.010823 0.003,8.551573 0.003,8.551573 h -6.74747 -6.74747 l -0.0583,-2.585359 z m 11.694,-1.772756 c 0.17662,-0.06083 0.39313,-0.234633 0.5114,-0.41053 l 0.2051,-0.305033 -0.0253,-3.118413 -0.0253,-3.118413 -0.28871,-0.288865 -0.28872,-0.288864 -1.1034,-0.02931 -1.1034,-0.0293 -0.002,-0.942967 c -0.002,-1.049997 -0.12979,-1.463005 -0.58354,-1.888402 -1.02808,-0.963842 -3.49146,-0.976025 -4.61936,-0.02285 -0.45027,0.380526 -0.54041,0.68897 -0.54041,1.849327 v 1.019305 h -1.04759 c -0.94452,0 -1.07713,0.01987 -1.34792,0.201934 -0.1716,0.11538 -0.34555,0.333223 -0.40583,0.508233 -0.11354,0.329645 -0.16439,5.563882 -0.0592,6.089999 0.0654,0.326941 0.47538,0.772059 0.76204,0.82734 0.10897,0.02101 2.32607,0.04138 4.9269,0.04526 3.45004,0.0051 4.81161,-0.02148 5.03508,-0.09845 z"
       style="display:inline;fill:#ffffff;fill-opacity:1;stroke:none;stroke-width:2;stroke-linecap:butt;stroke-linejoin:miter;stroke-miterlimit:4;stroke-dasharray:none;stroke-opacity:1" />
    <path
       inkscape:connector-curvature="0"
       id="path9076"
       d="m 619.48942,18.449056 v -2.784233 h 4.68458 4.68458 v 2.784233 2.784233 h -4.68458 -4.68458 z"
       style="display:inline;fill:#ffffff;fill-opacity:1;stroke:none;stroke-width:2;stroke-linecap:butt;stroke-linejoin:miter;stroke-miterlimit:4;stroke-dasharray:none;stroke-opacity:1" />
    <path
       inkscape:connector-curvature="0"
       id="path9078"
       d="m 622.31785,13.688138 c 0,-0.867528 0.0121,-0.928134 0.22873,-1.144755 0.33123,-0.331234 0.77579,-0.456148 1.62742,-0.457285 0.84079,-0.0011 1.50176,0.195269 1.72372,0.512166 0.0968,0.138199 0.13244,0.433517 0.13244,1.097488 v 0.908411 h -1.85616 -1.85615 z"
       style="display:inline;fill:#ffffff;fill-opacity:1;stroke:none;stroke-width:2;stroke-linecap:butt;stroke-linejoin:miter;stroke-miterlimit:4;stroke-dasharray:none;stroke-opacity:1" />
    <path
       inkscape:connector-curvature="0"
       id="path8956-2-8-8-29"
       d="M 229,15.982773 V 3 h 9.31856 5.10334 L 249,9 V 17.946422 29 H 239.96522 229 Z"
       style="display:inline;fill:#353535;fill-opacity:0.5;stroke:#d9d9d9;stroke-width:2;stroke-linejoin:round;stroke-miterlimit:4;stroke-dasharray:none;stroke-opacity:1"
       sodipodi:nodetypes="cccccccccc" />
    <circle
       r="5.578125"
       cy="16.454296"
       cx="238.875"
       id="circle8776-3"
       style="display:inline;fill:none;fill-opacity:1;stroke:#ffffff;stroke-width:1.59375;stroke-miterlimit:4;stroke-dasharray:none;stroke-opacity:1" />
    <path
       inkscape:connector-curvature="0"
       id="path8956-2-8-8-29-8-7-8-0"
       d="M 421,15.982773 V 3 h 9.31856 5.10334 L 441,9.0000002 V 17.946422 29 H 431.96522 421 Z"
       style="display:inline;fill:#353535;fill-opacity:0.5;stroke:#d9d9d9;stroke-width:2;stroke-linejoin:round;stroke-miterlimit:4;stroke-dasharray:none;stroke-opacity:1"
       sodipodi:nodetypes="cccccccccc" />
    <path
       sodipodi:nodetypes="cc"
       inkscape:connector-curvature="0"
       id="path8818-4"
       d="m 425.34221,10.013064 c 4.69571,-2.9557074 7.42044,2.270663 11.01034,0"
       style="display:inline;fill:none;fill-opacity:1;stroke:#ffffff;stroke-width:1.20561;stroke-miterlimit:4;stroke-dasharray:none;stroke-opacity:1" />
    <path
       inkscape:connector-curvature="0"
       id="path8820-1"
       d="m 434.9871,10.526023 c 0,12.056107 0,12.056107 0,12.056107"
       style="display:inline;fill:none;fill-opacity:1;stroke:#ffffff;stroke-width:1.20561;stroke-miterlimit:4;stroke-dasharray:none;stroke-opacity:1" />
    <circle
       r="1.8084161"
       cy="22.671974"
       cx="433.17868"
       id="circle8822-9"
       style="display:inline;fill:none;fill-opacity:1;stroke:#ffffff;stroke-width:1.20561;stroke-miterlimit:4;stroke-dasharray:none;stroke-opacity:1" />
    <path
       style="display:inline;fill:none;fill-opacity:1;stroke:#ffffff;stroke-width:1.20561;stroke-miterlimit:4;stroke-dasharray:none;stroke-opacity:1"
       d="m 428.85979,9.1939992 c 0,12.0561068 0,12.0561068 0,12.0561068"
       id="path8824-9"
       inkscape:connector-curvature="0" />
    <circle
       style="display:inline;fill:none;fill-opacity:1;stroke:#ffffff;stroke-width:1.20561;stroke-miterlimit:4;stroke-dasharray:none;stroke-opacity:1"
       id="circle8826-6"
       cx="427.05136"
       cy="21.339954"
       r="1.8084161" />
  </g>
</svg>
